<svg width="64" height="64" viewBox="0 0 64 64" fill="none" xmlns="http://www.w3.org/2000/svg">
<g clip-path="url(#clip0_156_985)">
<rect width="64" height="64" fill="#0000FF"/>
<rect width="64" height="64" rx="6" fill="#0000FF"/>
<path d="M22.7117 35.64H20.5997V39H17.5997V35.64H10.1597V32.808L16.2797 22.32H19.5437L13.3277 32.928H17.5997V29.016H20.5997V32.928H22.7117V35.64ZM37.5752 33.936C37.5752 35.52 36.9992 36.648 36.1592 37.488C34.8632 38.784 32.8712 39.312 30.7832 39.312C28.9832 39.312 27.0872 38.832 25.6952 37.56C24.6872 36.648 23.9192 35.208 23.9192 33.6H27.0872C27.0872 34.44 27.4712 35.184 27.9752 35.688C28.6952 36.408 29.8472 36.6 30.8312 36.6C32.0072 36.6 33.1352 36.36 33.7832 35.688C34.1672 35.28 34.4552 34.872 34.4552 34.056C34.4552 32.808 33.4952 32.232 32.4392 32.04C31.2872 31.824 29.7992 31.776 28.6712 31.584C26.3192 31.2 24.3512 29.664 24.3512 26.832C24.3512 25.488 24.9512 24.36 25.8392 23.472C26.9672 22.368 28.8392 21.672 30.8312 21.672C32.6552 21.672 34.4312 22.248 35.5832 23.328C36.5912 24.288 37.2872 25.536 37.3112 26.952H34.1432C34.1192 26.352 33.8072 25.704 33.3992 25.272C32.8472 24.696 31.7192 24.36 30.8072 24.36C29.8472 24.36 28.7432 24.576 28.0472 25.296C27.6872 25.68 27.4712 26.112 27.4712 26.736C27.4712 27.84 28.1912 28.416 29.1992 28.584C30.2792 28.752 31.7912 28.872 32.8952 29.016C35.4392 29.376 37.5752 31.032 37.5752 33.936ZM53.4833 30.504C53.4833 33.288 53.1713 35.544 51.3233 37.392C50.0273 38.688 48.2513 39.312 46.4273 39.312C44.6033 39.312 42.8273 38.688 41.5313 37.392C39.6833 35.544 39.3713 33.288 39.3713 30.504C39.3713 27.72 39.6833 25.44 41.5313 23.592C42.8273 22.296 44.6033 21.672 46.4273 21.672C48.2513 21.672 50.0273 22.296 51.3233 23.592C53.1713 25.44 53.4833 27.72 53.4833 30.504ZM50.3393 30.504C50.3393 28.944 50.2913 26.832 49.1153 25.608C48.4433 24.888 47.4113 24.48 46.4273 24.48C45.4433 24.48 44.4113 24.888 43.7393 25.608C42.5633 26.832 42.5153 28.944 42.5153 30.504C42.5153 32.064 42.5633 34.152 43.7393 35.376C44.4113 36.096 45.4433 36.504 46.4273 36.504C47.4113 36.504 48.4433 36.096 49.1153 35.376C50.2913 34.152 50.3393 32.064 50.3393 30.504Z" fill="#EEEEFF"/>
<path d="M9.92635 59H5.04235V57.9L8.02335 54.347C8.28735 54.039 8.41935 53.676 8.41935 53.368C8.41935 52.829 8.07835 52.411 7.45135 52.411C6.80235 52.411 6.42835 52.906 6.42835 53.511H5.02035C5.03135 52.169 5.88935 51.212 7.46235 51.212C8.77135 51.212 9.81635 52.015 9.81635 53.357C9.81635 54.039 9.40935 54.71 8.98035 55.227L6.86835 57.757H9.92635V59ZM16.1998 59H11.3158V57.9L14.2968 54.347C14.5608 54.039 14.6928 53.676 14.6928 53.368C14.6928 52.829 14.3518 52.411 13.7248 52.411C13.0758 52.411 12.7018 52.906 12.7018 53.511H11.2938C11.3048 52.169 12.1628 51.212 13.7358 51.212C15.0448 51.212 16.0898 52.015 16.0898 53.357C16.0898 54.039 15.6828 54.71 15.2538 55.227L13.1418 57.757H16.1998V59ZM22.7372 55.172C22.7372 56.426 22.6162 57.702 21.8242 58.461C21.4282 58.846 20.8672 59.143 20.0422 59.143C19.2172 59.143 18.6562 58.846 18.2602 58.461C17.4682 57.702 17.3472 56.426 17.3472 55.172C17.3472 53.918 17.4682 52.642 18.2602 51.883C18.6562 51.498 19.2172 51.212 20.0422 51.212C20.8672 51.212 21.4282 51.498 21.8242 51.883C22.6162 52.642 22.7372 53.918 22.7372 55.172ZM21.3402 55.172C21.3402 54.182 21.4612 52.477 20.0422 52.477C18.6232 52.477 18.7442 54.182 18.7442 55.172C18.7442 56.162 18.6232 57.867 20.0422 57.867C21.4612 57.867 21.3402 56.162 21.3402 55.172ZM27.5147 59H26.1397V52.983L24.4567 54.204V52.708L26.3377 51.355H27.5147V59ZM35.5041 57.46H34.5361V59H33.1611V57.46H29.7511V56.162L32.5561 51.355H34.0521L31.2031 56.217H33.1611V54.424H34.5361V56.217H35.5041V57.46ZM41.5575 55.172C41.5575 56.426 41.4365 57.702 40.6445 58.461C40.2485 58.846 39.6875 59.143 38.8625 59.143C38.0375 59.143 37.4765 58.846 37.0805 58.461C36.2885 57.702 36.1675 56.426 36.1675 55.172C36.1675 53.918 36.2885 52.642 37.0805 51.883C37.4765 51.498 38.0375 51.212 38.8625 51.212C39.6875 51.212 40.2485 51.498 40.6445 51.883C41.4365 52.642 41.5575 53.918 41.5575 55.172ZM40.1605 55.172C40.1605 54.182 40.2815 52.477 38.8625 52.477C37.4435 52.477 37.5645 54.182 37.5645 55.172C37.5645 56.162 37.4435 57.867 38.8625 57.867C40.2815 57.867 40.1605 56.162 40.1605 55.172ZM46.434 56.228H42.661V54.996H46.434V56.228ZM52.9228 55.172C52.9228 56.426 52.8018 57.702 52.0098 58.461C51.6138 58.846 51.0528 59.143 50.2278 59.143C49.4028 59.143 48.8418 58.846 48.4458 58.461C47.6538 57.702 47.5328 56.426 47.5328 55.172C47.5328 53.918 47.6538 52.642 48.4458 51.883C48.8418 51.498 49.4028 51.212 50.2278 51.212C51.0528 51.212 51.6138 51.498 52.0098 51.883C52.8018 52.642 52.9228 53.918 52.9228 55.172ZM51.5258 55.172C51.5258 54.182 51.6468 52.477 50.2278 52.477C48.8088 52.477 48.9298 54.182 48.9298 55.172C48.9298 56.162 48.8088 57.867 50.2278 57.867C51.6468 57.867 51.5258 56.162 51.5258 55.172ZM59.1962 55.172C59.1962 56.426 59.0752 57.702 58.2832 58.461C57.8872 58.846 57.3262 59.143 56.5012 59.143C55.6762 59.143 55.1152 58.846 54.7192 58.461C53.9272 57.702 53.8062 56.426 53.8062 55.172C53.8062 53.918 53.9272 52.642 54.7192 51.883C55.1152 51.498 55.6762 51.212 56.5012 51.212C57.3262 51.212 57.8872 51.498 58.2832 51.883C59.0752 52.642 59.1962 53.918 59.1962 55.172ZM57.7992 55.172C57.7992 54.182 57.9202 52.477 56.5012 52.477C55.0822 52.477 55.2032 54.182 55.2032 55.172C55.2032 56.162 55.0822 57.867 56.5012 57.867C57.9202 57.867 57.7992 56.162 57.7992 55.172Z" fill="#EEEEFF"/>
<path d="M10.3 8.46C10.3 9.62 10.17 10.56 9.4 11.33C8.86 11.87 8.12 12.13 7.36 12.13C6.6 12.13 5.86 11.87 5.32 11.33C4.55 10.56 4.42 9.62 4.42 8.46C4.42 7.3 4.55 6.35 5.32 5.58C5.86 5.04 6.6 4.78 7.36 4.78C8.12 4.78 8.86 5.04 9.4 5.58C10.17 6.35 10.3 7.3 10.3 8.46ZM8.99 8.46C8.99 7.81 8.97 6.93 8.48 6.42C8.2 6.12 7.77 5.95 7.36 5.95C6.95 5.95 6.52 6.12 6.24 6.42C5.75 6.93 5.73 7.81 5.73 8.46C5.73 9.11 5.75 9.98 6.24 10.49C6.52 10.79 6.95 10.96 7.36 10.96C7.77 10.96 8.2 10.79 8.48 10.49C8.97 9.98 8.99 9.11 8.99 8.46ZM18.6688 12H17.4188V6.94L15.5788 11.9H14.6288L12.7988 6.88V12H11.5488V4.91H13.2887L15.1488 9.96L17.0188 4.91H18.6688V12ZM25.778 12H24.378L23.198 9.32H21.628V12H20.328V4.91H23.318C25.008 4.91 25.778 5.97 25.778 7.11C25.778 8.06 25.258 8.81 24.478 9.1L25.778 12ZM24.488 7.11C24.488 6.54 24.048 6.04 23.318 6.04H21.618V8.16H23.338C24.068 8.16 24.488 7.78 24.488 7.11ZM32.4798 12H31.1298L30.6698 10.64H27.8498L27.3898 12H26.0898L28.5798 4.91H29.9898L32.4798 12ZM30.2698 9.48L29.2598 6.49L28.2498 9.48H30.2698ZM38.9766 12H37.6466L34.5766 7.13V12H33.3066V4.91H34.6766L37.7066 9.71V4.91H38.9766V12Z" fill="#EEEEFF"/>
<rect x="58.5007" y="3" width="2.1215" height="10.6075" transform="rotate(45 58.5007 3)" fill="#EEEEFF"/>
<rect x="60.0007" y="10.501" width="2.1215" height="10.6075" transform="rotate(135 60.0007 10.501)" fill="#EEEEFF"/>
</g>
<defs>
<clipPath id="clip0_156_985">
<rect width="64" height="64" fill="white"/>
</clipPath>
</defs>
</svg>
