<svg width="64" height="64" viewBox="0 0 64 64" fill="none" xmlns="http://www.w3.org/2000/svg">
<g clip-path="url(#clip0_156_1276)">
<rect width="64" height="64" fill="#FCFF3A"/>
<rect width="64" height="64" rx="6" fill="#FCFF3A"/>
<path d="M11.95 12H10.7V6.94L8.86 11.9H7.91L6.08 6.88V12H4.83V4.91H6.57L8.43 9.96L10.3 4.91H11.95V12ZM19.0793 8.46C19.0793 9.62 18.9493 10.56 18.1793 11.33C17.6393 11.87 16.8993 12.13 16.1393 12.13C15.3793 12.13 14.6393 11.87 14.0993 11.33C13.3293 10.56 13.1993 9.62 13.1993 8.46C13.1993 7.3 13.3293 6.35 14.0993 5.58C14.6393 5.04 15.3793 4.78 16.1393 4.78C16.8993 4.78 17.6393 5.04 18.1793 5.58C18.9493 6.35 19.0793 7.3 19.0793 8.46ZM17.7693 8.46C17.7693 7.81 17.7493 6.93 17.2593 6.42C16.9793 6.12 16.5493 5.95 16.1393 5.95C15.7293 5.95 15.2993 6.12 15.0193 6.42C14.5293 6.93 14.5093 7.81 14.5093 8.46C14.5093 9.11 14.5293 9.98 15.0193 10.49C15.2993 10.79 15.7293 10.96 16.1393 10.96C16.5493 10.96 16.9793 10.79 17.2593 10.49C17.7493 9.98 17.7693 9.11 17.7693 8.46ZM25.908 8.45C25.908 9.43 25.808 10.49 25.078 11.24C24.608 11.73 23.898 12 23.088 12H20.328V4.91H23.088C23.898 4.91 24.608 5.18 25.078 5.67C25.808 6.42 25.908 7.47 25.908 8.45ZM24.598 8.45C24.598 7.8 24.588 6.97 24.088 6.47C23.848 6.23 23.498 6.07 23.088 6.07H21.618V10.84H23.088C23.498 10.84 23.848 10.68 24.088 10.44C24.588 9.94 24.598 9.1 24.598 8.45ZM32.634 8.46C32.634 9.62 32.504 10.56 31.734 11.33C31.194 11.87 30.454 12.13 29.694 12.13C28.934 12.13 28.194 11.87 27.654 11.33C26.884 10.56 26.754 9.62 26.754 8.46C26.754 7.3 26.884 6.35 27.654 5.58C28.194 5.04 28.934 4.78 29.694 4.78C30.454 4.78 31.194 5.04 31.734 5.58C32.504 6.35 32.634 7.3 32.634 8.46ZM31.324 8.46C31.324 7.81 31.304 6.93 30.814 6.42C30.534 6.12 30.104 5.95 29.694 5.95C29.284 5.95 28.854 6.12 28.574 6.42C28.084 6.93 28.064 7.81 28.064 8.46C28.064 9.11 28.084 9.98 28.574 10.49C28.854 10.79 29.284 10.96 29.694 10.96C30.104 10.96 30.534 10.79 30.814 10.49C31.304 9.98 31.324 9.11 31.324 8.46ZM39.5527 12H38.2227L35.1527 7.13V12H33.8827V4.91H35.2527L38.2827 9.71V4.91H39.5527V12Z" fill="#BD9832"/>
<path d="M25.3751 39H22.1351L21.0311 35.736H14.2631L13.1591 39H10.0391L16.0151 21.984H19.3991L25.3751 39ZM20.0711 32.952L17.6471 25.776L15.2231 32.952H20.0711ZM37.802 39H35.21L35.018 37.632C34.274 38.784 32.882 39.288 31.514 39.288C30.266 39.288 29.234 38.856 28.466 38.232C26.978 37.008 26.258 35.136 26.258 32.784C26.258 30.336 27.002 28.44 28.49 27.216C29.258 26.592 30.266 26.208 31.538 26.208C33.122 26.208 34.274 26.736 34.802 27.384V21.672H37.802V39ZM34.946 32.736C34.946 30.936 34.466 28.728 32.114 28.728C31.178 28.728 30.53 29.16 30.098 29.712C29.474 30.528 29.306 31.656 29.306 32.736C29.306 33.816 29.474 34.968 30.098 35.784C30.53 36.336 31.178 36.768 32.114 36.768C34.466 36.768 34.946 34.536 34.946 32.736ZM52.0989 43.776H49.0989V38.112C48.5229 38.808 47.3229 39.312 45.8349 39.312C44.5629 39.312 43.5549 38.928 42.7869 38.304C41.2989 37.08 40.5549 35.184 40.5549 32.736C40.5549 30.384 41.2989 28.512 42.7869 27.288C43.5549 26.664 44.5629 26.232 45.8109 26.232C47.1789 26.232 48.5709 26.736 49.3149 27.888L49.5069 26.52H52.0989V43.776ZM49.2429 32.784C49.2429 30.984 48.7629 28.752 46.4109 28.752C45.4749 28.752 44.8269 29.184 44.3949 29.736C43.7709 30.552 43.6029 31.704 43.6029 32.784C43.6029 33.864 43.7709 34.992 44.3949 35.808C44.8269 36.36 45.4749 36.792 46.4109 36.792C48.7629 36.792 49.2429 34.584 49.2429 32.784Z" fill="#BD9832"/>
<path d="M9.92635 59H5.04235V57.9L8.02335 54.347C8.28735 54.039 8.41935 53.676 8.41935 53.368C8.41935 52.829 8.07835 52.411 7.45135 52.411C6.80235 52.411 6.42835 52.906 6.42835 53.511H5.02035C5.03135 52.169 5.88935 51.212 7.46235 51.212C8.77135 51.212 9.81635 52.015 9.81635 53.357C9.81635 54.039 9.40935 54.71 8.98035 55.227L6.86835 57.757H9.92635V59ZM16.4638 55.172C16.4638 56.426 16.3428 57.702 15.5508 58.461C15.1548 58.846 14.5938 59.143 13.7688 59.143C12.9438 59.143 12.3828 58.846 11.9868 58.461C11.1948 57.702 11.0738 56.426 11.0738 55.172C11.0738 53.918 11.1948 52.642 11.9868 51.883C12.3828 51.498 12.9438 51.212 13.7688 51.212C14.5938 51.212 15.1548 51.498 15.5508 51.883C16.3428 52.642 16.4638 53.918 16.4638 55.172ZM15.0668 55.172C15.0668 54.182 15.1878 52.477 13.7688 52.477C12.3498 52.477 12.4708 54.182 12.4708 55.172C12.4708 56.162 12.3498 57.867 13.7688 57.867C15.1878 57.867 15.0668 56.162 15.0668 55.172ZM22.7372 55.172C22.7372 56.426 22.6162 57.702 21.8242 58.461C21.4282 58.846 20.8672 59.143 20.0422 59.143C19.2172 59.143 18.6562 58.846 18.2602 58.461C17.4682 57.702 17.3472 56.426 17.3472 55.172C17.3472 53.918 17.4682 52.642 18.2602 51.883C18.6562 51.498 19.2172 51.212 20.0422 51.212C20.8672 51.212 21.4282 51.498 21.8242 51.883C22.6162 52.642 22.7372 53.918 22.7372 55.172ZM21.3402 55.172C21.3402 54.182 21.4612 52.477 20.0422 52.477C18.6232 52.477 18.7442 54.182 18.7442 55.172C18.7442 56.162 18.6232 57.867 20.0422 57.867C21.4612 57.867 21.3402 56.162 21.3402 55.172ZM28.7467 59H23.8627V57.9L26.8437 54.347C27.1077 54.039 27.2397 53.676 27.2397 53.368C27.2397 52.829 26.8987 52.411 26.2717 52.411C25.6227 52.411 25.2487 52.906 25.2487 53.511H23.8407C23.8517 52.169 24.7097 51.212 26.2827 51.212C27.5917 51.212 28.6367 52.015 28.6367 53.357C28.6367 54.039 28.2297 54.71 27.8007 55.227L25.6887 57.757H28.7467V59ZM35.2401 52.455L32.2591 59H30.7741L33.7661 52.587H29.9711V51.355H35.2401V52.455ZM41.4695 55.04C41.4695 56.162 41.4035 57.537 40.6225 58.373C40.2045 58.813 39.6655 59.143 38.7525 59.143C37.9715 59.143 37.3995 58.89 37.0035 58.516C36.5745 58.109 36.3545 57.559 36.3545 57.108H37.7405C37.7625 57.339 37.8615 57.548 38.0045 57.691C38.1805 57.878 38.4445 57.966 38.8185 57.966C39.1815 57.966 39.3905 57.834 39.5775 57.658C39.9955 57.273 40.1055 56.58 40.1055 55.909C39.7645 56.316 39.1155 56.47 38.6535 56.47C37.0035 56.47 36.1345 55.414 36.1345 53.863C36.1345 52.367 37.0255 51.212 38.7635 51.212C40.2155 51.212 41.1175 52.235 41.3485 53.61C41.4365 54.105 41.4695 54.556 41.4695 55.04ZM39.9735 53.918C39.9735 53.082 39.5775 52.433 38.7635 52.433C37.9385 52.433 37.5315 53.027 37.5315 53.918C37.5315 54.71 37.9385 55.348 38.7855 55.348C39.5225 55.348 39.9735 54.721 39.9735 53.918ZM46.434 56.228H42.661V54.996H46.434V56.228ZM52.9228 55.172C52.9228 56.426 52.8018 57.702 52.0098 58.461C51.6138 58.846 51.0528 59.143 50.2278 59.143C49.4028 59.143 48.8418 58.846 48.4458 58.461C47.6538 57.702 47.5328 56.426 47.5328 55.172C47.5328 53.918 47.6538 52.642 48.4458 51.883C48.8418 51.498 49.4028 51.212 50.2278 51.212C51.0528 51.212 51.6138 51.498 52.0098 51.883C52.8018 52.642 52.9228 53.918 52.9228 55.172ZM51.5258 55.172C51.5258 54.182 51.6468 52.477 50.2278 52.477C48.8088 52.477 48.9298 54.182 48.9298 55.172C48.9298 56.162 48.8088 57.867 50.2278 57.867C51.6468 57.867 51.5258 56.162 51.5258 55.172ZM59.1962 55.172C59.1962 56.426 59.0752 57.702 58.2832 58.461C57.8872 58.846 57.3262 59.143 56.5012 59.143C55.6762 59.143 55.1152 58.846 54.7192 58.461C53.9272 57.702 53.8062 56.426 53.8062 55.172C53.8062 53.918 53.9272 52.642 54.7192 51.883C55.1152 51.498 55.6762 51.212 56.5012 51.212C57.3262 51.212 57.8872 51.498 58.2832 51.883C59.0752 52.642 59.1962 53.918 59.1962 55.172ZM57.7992 55.172C57.7992 54.182 57.9202 52.477 56.5012 52.477C55.0822 52.477 55.2032 54.182 55.2032 55.172C55.2032 56.162 55.0822 57.867 56.5012 57.867C57.9202 57.867 57.7992 56.162 57.7992 55.172Z" fill="#BD9832"/>
<rect x="58.5007" y="4" width="2.1215" height="10.6075" transform="rotate(45 58.5007 4)" fill="#BD9832"/>
<rect x="60.0007" y="11.501" width="2.1215" height="10.6075" transform="rotate(135 60.0007 11.501)" fill="#BD9832"/>
</g>
<defs>
<clipPath id="clip0_156_1276">
<rect width="64" height="64" fill="white"/>
</clipPath>
</defs>
</svg>
