<svg width="64" height="64" viewBox="0 0 64 64" fill="none" xmlns="http://www.w3.org/2000/svg">
<g clip-path="url(#clip0_156_931)">
<rect width="64" height="64" fill="#0000FF"/>
<rect width="64" height="64" rx="6" fill="#0000FF"/>
<path d="M24.9195 33.576C24.7755 34.92 24.2715 36.288 23.2875 37.296C22.0155 38.592 20.2395 39.312 18.4155 39.312C16.5915 39.312 14.8875 38.712 13.5915 37.416C11.7435 35.568 11.4795 33.288 11.4795 30.504C11.4795 27.72 11.7435 25.44 13.5915 23.592C14.8875 22.296 16.5915 21.672 18.4155 21.672C20.2395 21.672 22.0155 22.344 23.2875 23.64C24.2715 24.648 24.7755 25.992 24.9195 27.336H21.7515C21.6795 26.592 21.4155 26.064 20.9835 25.536C20.4315 24.84 19.4715 24.48 18.4155 24.48C17.4315 24.48 16.4715 24.888 15.7995 25.608C14.6235 26.832 14.6235 28.944 14.6235 30.504C14.6235 32.064 14.6235 34.176 15.7995 35.4C16.4715 36.12 17.4315 36.528 18.4155 36.528C19.4715 36.528 20.4315 36.144 20.9835 35.448C21.4155 34.92 21.6795 34.32 21.7515 33.576H24.9195ZM38.3338 38.856C37.8298 39.072 37.5658 39.192 36.8458 39.192C35.5498 39.192 34.8298 38.376 34.7338 37.44C34.1578 38.448 32.7178 39.312 30.9418 39.312C27.9658 39.312 26.4298 37.44 26.4298 35.4C26.4298 33.024 28.2778 31.656 30.6538 31.488L34.3258 31.224V30.456C34.3258 29.28 33.9178 28.488 32.2138 28.488C30.8218 28.488 30.0058 29.112 29.9338 30.264H27.0298C27.1978 27.456 29.4298 26.208 32.2138 26.208C34.3498 26.208 36.1738 26.88 36.8938 28.752C37.2058 29.544 37.2538 30.432 37.2538 31.272V35.904C37.2538 36.48 37.4458 36.696 37.9498 36.696C38.1418 36.696 38.3338 36.648 38.3338 36.648V38.856ZM34.3258 34.032V33.456L31.1578 33.696C30.2458 33.768 29.3578 34.32 29.3578 35.328C29.3578 36.288 30.1978 36.888 31.1338 36.888C33.0058 36.888 34.3258 35.88 34.3258 34.032ZM52.4824 32.736C52.4824 35.184 51.7384 37.08 50.2504 38.304C49.4824 38.928 48.4744 39.312 47.2024 39.312C45.7144 39.312 44.5144 38.784 43.9384 38.088V43.776H40.9384V26.52H43.5304L43.7224 27.888C44.4664 26.736 45.8584 26.232 47.2264 26.232C48.4744 26.232 49.4824 26.664 50.2504 27.288C51.7384 28.512 52.4824 30.384 52.4824 32.736ZM49.4344 32.784C49.4344 31.704 49.2664 30.552 48.6424 29.736C48.2104 29.184 47.5624 28.752 46.6264 28.752C44.2744 28.752 43.7944 30.984 43.7944 32.784C43.7944 34.584 44.2744 36.792 46.6264 36.792C47.5624 36.792 48.2104 36.36 48.6424 35.808C49.2664 34.992 49.4344 33.864 49.4344 32.784Z" fill="#EEEEFF"/>
<path d="M9.92635 59H5.04235V57.9L8.02335 54.347C8.28735 54.039 8.41935 53.676 8.41935 53.368C8.41935 52.829 8.07835 52.411 7.45135 52.411C6.80235 52.411 6.42835 52.906 6.42835 53.511H5.02035C5.03135 52.169 5.88935 51.212 7.46235 51.212C8.77135 51.212 9.81635 52.015 9.81635 53.357C9.81635 54.039 9.40935 54.71 8.98035 55.227L6.86835 57.757H9.92635V59ZM16.4638 55.172C16.4638 56.426 16.3428 57.702 15.5508 58.461C15.1548 58.846 14.5938 59.143 13.7688 59.143C12.9438 59.143 12.3828 58.846 11.9868 58.461C11.1948 57.702 11.0738 56.426 11.0738 55.172C11.0738 53.918 11.1948 52.642 11.9868 51.883C12.3828 51.498 12.9438 51.212 13.7688 51.212C14.5938 51.212 15.1548 51.498 15.5508 51.883C16.3428 52.642 16.4638 53.918 16.4638 55.172ZM15.0668 55.172C15.0668 54.182 15.1878 52.477 13.7688 52.477C12.3498 52.477 12.4708 54.182 12.4708 55.172C12.4708 56.162 12.3498 57.867 13.7688 57.867C15.1878 57.867 15.0668 56.162 15.0668 55.172ZM22.7372 55.172C22.7372 56.426 22.6162 57.702 21.8242 58.461C21.4282 58.846 20.8672 59.143 20.0422 59.143C19.2172 59.143 18.6562 58.846 18.2602 58.461C17.4682 57.702 17.3472 56.426 17.3472 55.172C17.3472 53.918 17.4682 52.642 18.2602 51.883C18.6562 51.498 19.2172 51.212 20.0422 51.212C20.8672 51.212 21.4282 51.498 21.8242 51.883C22.6162 52.642 22.7372 53.918 22.7372 55.172ZM21.3402 55.172C21.3402 54.182 21.4612 52.477 20.0422 52.477C18.6232 52.477 18.7442 54.182 18.7442 55.172C18.7442 56.162 18.6232 57.867 20.0422 57.867C21.4612 57.867 21.3402 56.162 21.3402 55.172ZM28.7467 59H23.8627V57.9L26.8437 54.347C27.1077 54.039 27.2397 53.676 27.2397 53.368C27.2397 52.829 26.8987 52.411 26.2717 52.411C25.6227 52.411 25.2487 52.906 25.2487 53.511H23.8407C23.8517 52.169 24.7097 51.212 26.2827 51.212C27.5917 51.212 28.6367 52.015 28.6367 53.357C28.6367 54.039 28.2297 54.71 27.8007 55.227L25.6887 57.757H28.7467V59ZM35.2291 56.855C35.2291 58.34 33.9641 59.154 32.5891 59.154C31.2141 59.154 29.9491 58.34 29.9491 56.855C29.9491 56.096 30.3341 55.37 31.0601 55.029C30.4991 54.721 30.1031 54.028 30.1031 53.379C30.1031 51.938 31.2581 51.212 32.5891 51.212C33.9201 51.212 35.0751 51.938 35.0751 53.379C35.0751 54.028 34.6791 54.721 34.1181 55.029C34.8441 55.37 35.2291 56.096 35.2291 56.855ZM33.6891 53.401C33.6891 52.84 33.3151 52.411 32.5891 52.411C31.8521 52.411 31.4891 52.84 31.4891 53.401C31.4891 53.962 31.8631 54.424 32.5891 54.424C33.3151 54.424 33.6891 53.962 33.6891 53.401ZM33.8431 56.767C33.8431 56.14 33.4031 55.634 32.5891 55.634C31.7751 55.634 31.3351 56.14 31.3351 56.767C31.3351 57.471 31.8411 57.933 32.5891 57.933C33.3371 57.933 33.8431 57.471 33.8431 56.767ZM41.4035 56.811C41.4035 58.34 40.2375 59.143 38.7965 59.143C37.3885 59.143 36.2445 58.219 36.2005 56.789H37.5755C37.6305 57.537 38.1365 57.933 38.8075 57.933C39.4895 57.933 40.0175 57.515 40.0175 56.789C40.0175 55.997 39.3905 55.634 38.6755 55.634H38.1035V54.435H38.6755C39.4235 54.435 39.8525 54.127 39.8525 53.412C39.8525 52.862 39.4125 52.411 38.8075 52.411C38.1255 52.411 37.6415 52.752 37.6305 53.445H36.2445C36.2665 52.004 37.4105 51.212 38.8075 51.212C40.1935 51.212 41.2495 52.059 41.2495 53.379C41.2495 54.072 40.8425 54.776 40.1495 55.018C40.9415 55.238 41.4035 56.019 41.4035 56.811ZM46.434 56.228H42.661V54.996H46.434V56.228ZM52.9228 55.172C52.9228 56.426 52.8018 57.702 52.0098 58.461C51.6138 58.846 51.0528 59.143 50.2278 59.143C49.4028 59.143 48.8418 58.846 48.4458 58.461C47.6538 57.702 47.5328 56.426 47.5328 55.172C47.5328 53.918 47.6538 52.642 48.4458 51.883C48.8418 51.498 49.4028 51.212 50.2278 51.212C51.0528 51.212 51.6138 51.498 52.0098 51.883C52.8018 52.642 52.9228 53.918 52.9228 55.172ZM51.5258 55.172C51.5258 54.182 51.6468 52.477 50.2278 52.477C48.8088 52.477 48.9298 54.182 48.9298 55.172C48.9298 56.162 48.8088 57.867 50.2278 57.867C51.6468 57.867 51.5258 56.162 51.5258 55.172ZM59.1962 55.172C59.1962 56.426 59.0752 57.702 58.2832 58.461C57.8872 58.846 57.3262 59.143 56.5012 59.143C55.6762 59.143 55.1152 58.846 54.7192 58.461C53.9272 57.702 53.8062 56.426 53.8062 55.172C53.8062 53.918 53.9272 52.642 54.7192 51.883C55.1152 51.498 55.6762 51.212 56.5012 51.212C57.3262 51.212 57.8872 51.498 58.2832 51.883C59.0752 52.642 59.1962 53.918 59.1962 55.172ZM57.7992 55.172C57.7992 54.182 57.9202 52.477 56.5012 52.477C55.0822 52.477 55.2032 54.182 55.2032 55.172C55.2032 56.162 55.0822 57.867 56.5012 57.867C57.9202 57.867 57.7992 56.162 57.7992 55.172Z" fill="#EEEEFF"/>
<path d="M10.41 8.45C10.41 9.43 10.31 10.49 9.58 11.24C9.11 11.73 8.4 12 7.59 12H4.83V4.91H7.59C8.4 4.91 9.11 5.18 9.58 5.67C10.31 6.42 10.41 7.47 10.41 8.45ZM9.1 8.45C9.1 7.8 9.09 6.97 8.59 6.47C8.35 6.23 8 6.07 7.59 6.07H6.12V10.84H7.59C8 10.84 8.35 10.68 8.59 10.44C9.09 9.94 9.1 9.1 9.1 8.45ZM16.5459 12H15.7159L15.5659 11.22C15.3559 11.63 14.6759 12.12 13.7859 12.13C12.9659 12.14 12.2359 11.93 11.6759 11.34C10.9359 10.57 10.7559 9.62 10.7559 8.46C10.7559 7.3 10.9059 6.38 11.6759 5.61C12.2159 5.07 13.0259 4.78 13.7859 4.78C14.6559 4.78 15.4059 5.1 15.8859 5.59C16.2359 5.95 16.4959 6.4 16.5359 7.02H15.2159C15.1959 6.74 15.0559 6.55 14.9059 6.37C14.6559 6.08 14.2659 5.94 13.7759 5.94C13.3659 5.94 12.8959 6.12 12.6159 6.42C12.1259 6.93 12.0659 7.81 12.0659 8.46C12.0659 9.11 12.1359 10.02 12.6259 10.53C12.9059 10.83 13.3659 10.98 13.7759 10.98C14.2359 10.98 14.5959 10.82 14.8359 10.57C15.2159 10.17 15.2959 9.73 15.2959 9.19H13.6059V8.12H16.5459V12ZM22.6719 9.74C22.6119 10.3 22.4019 10.87 21.9919 11.29C21.4619 11.83 20.7219 12.13 19.9619 12.13C19.2019 12.13 18.4919 11.88 17.9519 11.34C17.1819 10.57 17.0719 9.62 17.0719 8.46C17.0719 7.3 17.1819 6.35 17.9519 5.58C18.4919 5.04 19.2019 4.78 19.9619 4.78C20.7219 4.78 21.4619 5.06 21.9919 5.6C22.4019 6.02 22.6119 6.58 22.6719 7.14H21.3519C21.3219 6.83 21.2119 6.61 21.0319 6.39C20.8019 6.1 20.4019 5.95 19.9619 5.95C19.5519 5.95 19.1519 6.12 18.8719 6.42C18.3819 6.93 18.3819 7.81 18.3819 8.46C18.3819 9.11 18.3819 9.99 18.8719 10.5C19.1519 10.8 19.5519 10.97 19.9619 10.97C20.4019 10.97 20.8019 10.81 21.0319 10.52C21.2119 10.3 21.3219 10.05 21.3519 9.74H22.6719ZM27.8612 12H23.2812V4.91H24.5712V10.78H27.8612V12Z" fill="#EEEEFF"/>
<path d="M54.634 4.5C55.0189 3.83333 55.9811 3.83333 56.366 4.5L59.3971 9.75C59.782 10.4167 59.3009 11.25 58.5311 11.25H52.4689C51.6991 11.25 51.218 10.4167 51.6029 9.75L54.634 4.5Z" fill="#EEEEFF"/>
</g>
<defs>
<clipPath id="clip0_156_931">
<rect width="64" height="64" fill="white"/>
</clipPath>
</defs>
</svg>
