<svg width="64" height="64" viewBox="0 0 64 64" fill="none" xmlns="http://www.w3.org/2000/svg">
<g clip-path="url(#clip0_156_1081)">
<rect width="64" height="64" fill="#621495"/>
<rect width="64" height="64" rx="6" fill="#621495"/>
<path d="M10.41 8.45C10.41 9.43 10.31 10.49 9.58 11.24C9.11 11.73 8.4 12 7.59 12H4.83V4.91H7.59C8.4 4.91 9.11 5.18 9.58 5.67C10.31 6.42 10.41 7.47 10.41 8.45ZM9.1 8.45C9.1 7.8 9.09 6.97 8.59 6.47C8.35 6.23 8 6.07 7.59 6.07H6.12V10.84H7.59C8 10.84 8.35 10.68 8.59 10.44C9.09 9.94 9.1 9.1 9.1 8.45ZM17.0459 12H16.2159L16.0659 11.22C15.8559 11.63 15.1759 12.12 14.2859 12.13C13.4659 12.14 12.7359 11.93 12.1759 11.34C11.4359 10.57 11.2559 9.62 11.2559 8.46C11.2559 7.3 11.4059 6.38 12.1759 5.61C12.7159 5.07 13.5259 4.78 14.2859 4.78C15.1559 4.78 15.9059 5.1 16.3859 5.59C16.7359 5.95 16.9959 6.4 17.0359 7.02H15.7159C15.6959 6.74 15.5559 6.55 15.4059 6.37C15.1559 6.08 14.7659 5.94 14.2759 5.94C13.8659 5.94 13.3959 6.12 13.1159 6.42C12.6259 6.93 12.5659 7.81 12.5659 8.46C12.5659 9.11 12.6359 10.02 13.1259 10.53C13.4059 10.83 13.8659 10.98 14.2759 10.98C14.7359 10.98 15.0959 10.82 15.3359 10.57C15.7159 10.17 15.7959 9.73 15.7959 9.19H14.1059V8.12H17.0459V12ZM23.6719 9.74C23.6119 10.3 23.4019 10.87 22.9919 11.29C22.4619 11.83 21.7219 12.13 20.9619 12.13C20.2019 12.13 19.4919 11.88 18.9519 11.34C18.1819 10.57 18.0719 9.62 18.0719 8.46C18.0719 7.3 18.1819 6.35 18.9519 5.58C19.4919 5.04 20.2019 4.78 20.9619 4.78C21.7219 4.78 22.4619 5.06 22.9919 5.6C23.4019 6.02 23.6119 6.58 23.6719 7.14H22.3519C22.3219 6.83 22.2119 6.61 22.0319 6.39C21.8019 6.1 21.4019 5.95 20.9619 5.95C20.5519 5.95 20.1519 6.12 19.8719 6.42C19.3819 6.93 19.3819 7.81 19.3819 8.46C19.3819 9.11 19.3819 9.99 19.8719 10.5C20.1519 10.8 20.5519 10.97 20.9619 10.97C21.4019 10.97 21.8019 10.81 22.0319 10.52C22.2119 10.3 22.3219 10.05 22.3519 9.74H23.6719ZM29.3612 12H24.7812V4.91H26.0712V10.78H29.3612V12Z" fill="#EFD8FF"/>
<path d="M23.8531 33.576C23.7091 34.92 23.2051 36.288 22.2211 37.296C20.9491 38.592 19.1731 39.312 17.3491 39.312C15.5251 39.312 13.8211 38.712 12.5251 37.416C10.6771 35.568 10.4131 33.288 10.4131 30.504C10.4131 27.72 10.6771 25.44 12.5251 23.592C13.8211 22.296 15.5251 21.672 17.3491 21.672C19.1731 21.672 20.9491 22.344 22.2211 23.64C23.2051 24.648 23.7091 25.992 23.8531 27.336H20.6851C20.6131 26.592 20.3491 26.064 19.9171 25.536C19.3651 24.84 18.4051 24.48 17.3491 24.48C16.3651 24.48 15.4051 24.888 14.7331 25.608C13.5571 26.832 13.5571 28.944 13.5571 30.504C13.5571 32.064 13.5571 34.176 14.7331 35.4C15.4051 36.12 16.3651 36.528 17.3491 36.528C18.4051 36.528 19.3651 36.144 19.9171 35.448C20.3491 34.92 20.6131 34.32 20.6851 33.576H23.8531ZM38.6354 39H26.5154V21.984H38.6354V24.792H29.6114V28.752H37.5554V31.536H29.6114V36.192H38.6354V39ZM53.8766 33.576C53.7326 34.92 53.2286 36.288 52.2446 37.296C50.9726 38.592 49.1966 39.312 47.3726 39.312C45.5486 39.312 43.8446 38.712 42.5486 37.416C40.7006 35.568 40.4366 33.288 40.4366 30.504C40.4366 27.72 40.7006 25.44 42.5486 23.592C43.8446 22.296 45.5486 21.672 47.3726 21.672C49.1966 21.672 50.9726 22.344 52.2446 23.64C53.2286 24.648 53.7326 25.992 53.8766 27.336H50.7086C50.6366 26.592 50.3726 26.064 49.9406 25.536C49.3886 24.84 48.4286 24.48 47.3726 24.48C46.3886 24.48 45.4286 24.888 44.7566 25.608C43.5806 26.832 43.5806 28.944 43.5806 30.504C43.5806 32.064 43.5806 34.176 44.7566 35.4C45.4286 36.12 46.3886 36.528 47.3726 36.528C48.4286 36.528 49.3886 36.144 49.9406 35.448C50.3726 34.92 50.6366 34.32 50.7086 33.576H53.8766Z" fill="#EFD8FF"/>
<path d="M9.92635 59H5.04235V57.9L8.02335 54.347C8.28735 54.039 8.41935 53.676 8.41935 53.368C8.41935 52.829 8.07835 52.411 7.45135 52.411C6.80235 52.411 6.42835 52.906 6.42835 53.511H5.02035C5.03135 52.169 5.88935 51.212 7.46235 51.212C8.77135 51.212 9.81635 52.015 9.81635 53.357C9.81635 54.039 9.40935 54.71 8.98035 55.227L6.86835 57.757H9.92635V59ZM16.6838 57.46H15.7158V59H14.3408V57.46H10.9308V56.162L13.7358 51.355H15.2318L12.3828 56.217H14.3408V54.424H15.7158V56.217H16.6838V57.46ZM22.7372 55.172C22.7372 56.426 22.6162 57.702 21.8242 58.461C21.4282 58.846 20.8672 59.143 20.0422 59.143C19.2172 59.143 18.6562 58.846 18.2602 58.461C17.4682 57.702 17.3472 56.426 17.3472 55.172C17.3472 53.918 17.4682 52.642 18.2602 51.883C18.6562 51.498 19.2172 51.212 20.0422 51.212C20.8672 51.212 21.4282 51.498 21.8242 51.883C22.6162 52.642 22.7372 53.918 22.7372 55.172ZM21.3402 55.172C21.3402 54.182 21.4612 52.477 20.0422 52.477C18.6232 52.477 18.7442 54.182 18.7442 55.172C18.7442 56.162 18.6232 57.867 20.0422 57.867C21.4612 57.867 21.3402 56.162 21.3402 55.172ZM27.5147 59H26.1397V52.983L24.4567 54.204V52.708L26.3377 51.355H27.5147V59ZM35.3171 56.404C35.3171 58.021 34.3601 59.154 32.6551 59.154C31.1371 59.154 30.0811 58.208 30.0041 56.767H31.3791C31.4121 57.526 31.9401 57.933 32.6661 57.933C33.5901 57.933 33.9201 57.262 33.9201 56.437C33.9201 55.634 33.5461 55.051 32.6661 55.051C32.2151 55.051 31.7641 55.282 31.5221 55.667H30.1691L30.3341 51.355H34.9761V52.587H31.5221L31.4341 54.336C31.7861 54.006 32.2701 53.841 32.9521 53.841C34.4921 53.841 35.3171 54.952 35.3171 56.404ZM41.7775 57.46H40.8095V59H39.4345V57.46H36.0245V56.162L38.8295 51.355H40.3255L37.4765 56.217H39.4345V54.424H40.8095V56.217H41.7775V57.46ZM46.434 56.228H42.661V54.996H46.434V56.228ZM52.9228 55.172C52.9228 56.426 52.8018 57.702 52.0098 58.461C51.6138 58.846 51.0528 59.143 50.2278 59.143C49.4028 59.143 48.8418 58.846 48.4458 58.461C47.6538 57.702 47.5328 56.426 47.5328 55.172C47.5328 53.918 47.6538 52.642 48.4458 51.883C48.8418 51.498 49.4028 51.212 50.2278 51.212C51.0528 51.212 51.6138 51.498 52.0098 51.883C52.8018 52.642 52.9228 53.918 52.9228 55.172ZM51.5258 55.172C51.5258 54.182 51.6468 52.477 50.2278 52.477C48.8088 52.477 48.9298 54.182 48.9298 55.172C48.9298 56.162 48.8088 57.867 50.2278 57.867C51.6468 57.867 51.5258 56.162 51.5258 55.172ZM59.1962 55.172C59.1962 56.426 59.0752 57.702 58.2832 58.461C57.8872 58.846 57.3262 59.143 56.5012 59.143C55.6762 59.143 55.1152 58.846 54.7192 58.461C53.9272 57.702 53.8062 56.426 53.8062 55.172C53.8062 53.918 53.9272 52.642 54.7192 51.883C55.1152 51.498 55.6762 51.212 56.5012 51.212C57.3262 51.212 57.8872 51.498 58.2832 51.883C59.0752 52.642 59.1962 53.918 59.1962 55.172ZM57.7992 55.172C57.7992 54.182 57.9202 52.477 56.5012 52.477C55.0822 52.477 55.2032 54.182 55.2032 55.172C55.2032 56.162 55.0822 57.867 56.5012 57.867C57.9202 57.867 57.7992 56.162 57.7992 55.172Z" fill="#EFD8FF"/>
<path d="M54.634 4.5C55.0189 3.83333 55.9811 3.83333 56.366 4.5L59.3971 9.75C59.782 10.4167 59.3009 11.25 58.5311 11.25H52.4689C51.6991 11.25 51.218 10.4167 51.6029 9.75L54.634 4.5Z" fill="#EFD8FF"/>
</g>
<defs>
<clipPath id="clip0_156_1081">
<rect width="64" height="64" fill="white"/>
</clipPath>
</defs>
</svg>
