<svg width="64" height="64" viewBox="0 0 64 64" fill="none" xmlns="http://www.w3.org/2000/svg">
<g clip-path="url(#clip0_156_797)">
<rect width="64" height="64" fill="#149618"/>
<rect width="64" height="64" rx="6" fill="#149618"/>
<path d="M22.9977 33.576C22.8537 34.92 22.3497 36.288 21.3657 37.296C20.0937 38.592 18.3177 39.312 16.4937 39.312C14.6697 39.312 12.9657 38.712 11.6697 37.416C9.82166 35.568 9.55766 33.288 9.55766 30.504C9.55766 27.72 9.82166 25.44 11.6697 23.592C12.9657 22.296 14.6697 21.672 16.4937 21.672C18.3177 21.672 20.0937 22.344 21.3657 23.64C22.3497 24.648 22.8537 25.992 22.9977 27.336H19.8297C19.7577 26.592 19.4937 26.064 19.0617 25.536C18.5097 24.84 17.5497 24.48 16.4937 24.48C15.5097 24.48 14.5497 24.888 13.8777 25.608C12.7017 26.832 12.7017 28.944 12.7017 30.504C12.7017 32.064 12.7017 34.176 13.8777 35.4C14.5497 36.12 15.5097 36.528 16.4937 36.528C17.5497 36.528 18.5097 36.144 19.0617 35.448C19.4937 34.92 19.7577 34.32 19.8297 33.576H22.9977ZM38.572 39H36.58L36.22 37.128C35.716 38.112 34.084 39.288 31.948 39.312C29.98 39.336 28.228 38.832 26.884 37.416C25.108 35.568 24.676 33.288 24.676 30.504C24.676 27.72 25.036 25.512 26.884 23.664C28.18 22.368 30.124 21.672 31.948 21.672C34.036 21.672 35.836 22.44 36.988 23.616C37.828 24.48 38.452 25.56 38.548 27.048H35.38C35.332 26.376 34.996 25.92 34.636 25.488C34.036 24.792 33.1 24.456 31.924 24.456C30.94 24.456 29.812 24.888 29.14 25.608C27.964 26.832 27.82 28.944 27.82 30.504C27.82 32.064 27.988 34.248 29.164 35.472C29.836 36.192 30.94 36.552 31.924 36.552C33.028 36.552 33.892 36.168 34.468 35.568C35.38 34.608 35.572 33.552 35.572 32.256H31.516V29.688H38.572V39ZM55.4102 39H52.1702L51.0662 35.736H44.2982L43.1942 39H40.0742L46.0502 21.984H49.4342L55.4102 39ZM50.1062 32.952L47.6822 25.776L45.2582 32.952H50.1062Z" fill="#CCFFCE"/>
<path d="M8.69435 59H7.31935V52.983L5.63635 54.204V52.708L7.51735 51.355H8.69435V59ZM16.4088 56.855C16.4088 58.34 15.1438 59.154 13.7688 59.154C12.3938 59.154 11.1288 58.34 11.1288 56.855C11.1288 56.096 11.5138 55.37 12.2398 55.029C11.6788 54.721 11.2828 54.028 11.2828 53.379C11.2828 51.938 12.4378 51.212 13.7688 51.212C15.0998 51.212 16.2548 51.938 16.2548 53.379C16.2548 54.028 15.8588 54.721 15.2978 55.029C16.0238 55.37 16.4088 56.096 16.4088 56.855ZM14.8688 53.401C14.8688 52.84 14.4948 52.411 13.7688 52.411C13.0318 52.411 12.6688 52.84 12.6688 53.401C12.6688 53.962 13.0428 54.424 13.7688 54.424C14.4948 54.424 14.8688 53.962 14.8688 53.401ZM15.0228 56.767C15.0228 56.14 14.5828 55.634 13.7688 55.634C12.9548 55.634 12.5148 56.14 12.5148 56.767C12.5148 57.471 13.0208 57.933 13.7688 57.933C14.5168 57.933 15.0228 57.471 15.0228 56.767ZM22.7372 55.172C22.7372 56.426 22.6162 57.702 21.8242 58.461C21.4282 58.846 20.8672 59.143 20.0422 59.143C19.2172 59.143 18.6562 58.846 18.2602 58.461C17.4682 57.702 17.3472 56.426 17.3472 55.172C17.3472 53.918 17.4682 52.642 18.2602 51.883C18.6562 51.498 19.2172 51.212 20.0422 51.212C20.8672 51.212 21.4282 51.498 21.8242 51.883C22.6162 52.642 22.7372 53.918 22.7372 55.172ZM21.3402 55.172C21.3402 54.182 21.4612 52.477 20.0422 52.477C18.6232 52.477 18.7442 54.182 18.7442 55.172C18.7442 56.162 18.6232 57.867 20.0422 57.867C21.4612 57.867 21.3402 56.162 21.3402 55.172ZM27.5147 59H26.1397V52.983L24.4567 54.204V52.708L26.3377 51.355H27.5147V59ZM35.3171 56.404C35.3171 58.021 34.3601 59.154 32.6551 59.154C31.1371 59.154 30.0811 58.208 30.0041 56.767H31.3791C31.4121 57.526 31.9401 57.933 32.6661 57.933C33.5901 57.933 33.9201 57.262 33.9201 56.437C33.9201 55.634 33.5461 55.051 32.6661 55.051C32.2151 55.051 31.7641 55.282 31.5221 55.667H30.1691L30.3341 51.355H34.9761V52.587H31.5221L31.4341 54.336C31.7861 54.006 32.2701 53.841 32.9521 53.841C34.4921 53.841 35.3171 54.952 35.3171 56.404ZM41.4695 55.04C41.4695 56.162 41.4035 57.537 40.6225 58.373C40.2045 58.813 39.6655 59.143 38.7525 59.143C37.9715 59.143 37.3995 58.89 37.0035 58.516C36.5745 58.109 36.3545 57.559 36.3545 57.108H37.7405C37.7625 57.339 37.8615 57.548 38.0045 57.691C38.1805 57.878 38.4445 57.966 38.8185 57.966C39.1815 57.966 39.3905 57.834 39.5775 57.658C39.9955 57.273 40.1055 56.58 40.1055 55.909C39.7645 56.316 39.1155 56.47 38.6535 56.47C37.0035 56.47 36.1345 55.414 36.1345 53.863C36.1345 52.367 37.0255 51.212 38.7635 51.212C40.2155 51.212 41.1175 52.235 41.3485 53.61C41.4365 54.105 41.4695 54.556 41.4695 55.04ZM39.9735 53.918C39.9735 53.082 39.5775 52.433 38.7635 52.433C37.9385 52.433 37.5315 53.027 37.5315 53.918C37.5315 54.71 37.9385 55.348 38.7855 55.348C39.5225 55.348 39.9735 54.721 39.9735 53.918ZM46.434 56.228H42.661V54.996H46.434V56.228ZM52.9228 55.172C52.9228 56.426 52.8018 57.702 52.0098 58.461C51.6138 58.846 51.0528 59.143 50.2278 59.143C49.4028 59.143 48.8418 58.846 48.4458 58.461C47.6538 57.702 47.5328 56.426 47.5328 55.172C47.5328 53.918 47.6538 52.642 48.4458 51.883C48.8418 51.498 49.4028 51.212 50.2278 51.212C51.0528 51.212 51.6138 51.498 52.0098 51.883C52.8018 52.642 52.9228 53.918 52.9228 55.172ZM51.5258 55.172C51.5258 54.182 51.6468 52.477 50.2278 52.477C48.8088 52.477 48.9298 54.182 48.9298 55.172C48.9298 56.162 48.8088 57.867 50.2278 57.867C51.6468 57.867 51.5258 56.162 51.5258 55.172ZM59.1962 55.172C59.1962 56.426 59.0752 57.702 58.2832 58.461C57.8872 58.846 57.3262 59.143 56.5012 59.143C55.6762 59.143 55.1152 58.846 54.7192 58.461C53.9272 57.702 53.8062 56.426 53.8062 55.172C53.8062 53.918 53.9272 52.642 54.7192 51.883C55.1152 51.498 55.6762 51.212 56.5012 51.212C57.3262 51.212 57.8872 51.498 58.2832 51.883C59.0752 52.642 59.1962 53.918 59.1962 55.172ZM57.7992 55.172C57.7992 54.182 57.9202 52.477 56.5012 52.477C55.0822 52.477 55.2032 54.182 55.2032 55.172C55.2032 56.162 55.0822 57.867 56.5012 57.867C57.9202 57.867 57.7992 56.162 57.7992 55.172Z" fill="#CCFFCE"/>
<path d="M54.634 4.5C55.0189 3.83333 55.9811 3.83333 56.366 4.5L59.3971 9.75C59.782 10.4167 59.3009 11.25 58.5311 11.25H52.4689C51.6991 11.25 51.218 10.4167 51.6029 9.75L54.634 4.5Z" fill="#CCFFCE"/>
<path d="M11.95 12H10.7V6.94L8.86 11.9H7.91L6.08 6.88V12H4.83V4.91H6.57L8.43 9.96L10.3 4.91H11.95V12ZM19.0793 8.46C19.0793 9.62 18.9493 10.56 18.1793 11.33C17.6393 11.87 16.8993 12.13 16.1393 12.13C15.3793 12.13 14.6393 11.87 14.0993 11.33C13.3293 10.56 13.1993 9.62 13.1993 8.46C13.1993 7.3 13.3293 6.35 14.0993 5.58C14.6393 5.04 15.3793 4.78 16.1393 4.78C16.8993 4.78 17.6393 5.04 18.1793 5.58C18.9493 6.35 19.0793 7.3 19.0793 8.46ZM17.7693 8.46C17.7693 7.81 17.7493 6.93 17.2593 6.42C16.9793 6.12 16.5493 5.95 16.1393 5.95C15.7293 5.95 15.2993 6.12 15.0193 6.42C14.5293 6.93 14.5093 7.81 14.5093 8.46C14.5093 9.11 14.5293 9.98 15.0193 10.49C15.2993 10.79 15.7293 10.96 16.1393 10.96C16.5493 10.96 16.9793 10.79 17.2593 10.49C17.7493 9.98 17.7693 9.11 17.7693 8.46ZM25.908 8.45C25.908 9.43 25.808 10.49 25.078 11.24C24.608 11.73 23.898 12 23.088 12H20.328V4.91H23.088C23.898 4.91 24.608 5.18 25.078 5.67C25.808 6.42 25.908 7.47 25.908 8.45ZM24.598 8.45C24.598 7.8 24.588 6.97 24.088 6.47C23.848 6.23 23.498 6.07 23.088 6.07H21.618V10.84H23.088C23.498 10.84 23.848 10.68 24.088 10.44C24.588 9.94 24.598 9.1 24.598 8.45ZM32.634 8.46C32.634 9.62 32.504 10.56 31.734 11.33C31.194 11.87 30.454 12.13 29.694 12.13C28.934 12.13 28.194 11.87 27.654 11.33C26.884 10.56 26.754 9.62 26.754 8.46C26.754 7.3 26.884 6.35 27.654 5.58C28.194 5.04 28.934 4.78 29.694 4.78C30.454 4.78 31.194 5.04 31.734 5.58C32.504 6.35 32.634 7.3 32.634 8.46ZM31.324 8.46C31.324 7.81 31.304 6.93 30.814 6.42C30.534 6.12 30.104 5.95 29.694 5.95C29.284 5.95 28.854 6.12 28.574 6.42C28.084 6.93 28.064 7.81 28.064 8.46C28.064 9.11 28.084 9.98 28.574 10.49C28.854 10.79 29.284 10.96 29.694 10.96C30.104 10.96 30.534 10.79 30.814 10.49C31.304 9.98 31.324 9.11 31.324 8.46ZM39.5527 12H38.2227L35.1527 7.13V12H33.8827V4.91H35.2527L38.2827 9.71V4.91H39.5527V12Z" fill="#CCFFCE"/>
</g>
<defs>
<clipPath id="clip0_156_797">
<rect width="64" height="64" fill="white"/>
</clipPath>
</defs>
</svg>
