<svg width="64" height="64" viewBox="0 0 64 64" fill="none" xmlns="http://www.w3.org/2000/svg">
<g clip-path="url(#clip0_156_1178)">
<rect width="64" height="64" fill="#F49A27"/>
<path d="M27.2867 33.576C27.1427 34.92 26.6387 36.288 25.6547 37.296C24.3827 38.592 22.6067 39.312 20.7827 39.312C18.9587 39.312 17.2547 38.712 15.9587 37.416C14.1107 35.568 13.8467 33.288 13.8467 30.504C13.8467 27.72 14.1107 25.44 15.9587 23.592C17.2547 22.296 18.9587 21.672 20.7827 21.672C22.6067 21.672 24.3827 22.344 25.6547 23.64C26.6387 24.648 27.1427 25.992 27.2867 27.336H24.1187C24.0467 26.592 23.7827 26.064 23.3507 25.536C22.7987 24.84 21.8387 24.48 20.7827 24.48C19.7987 24.48 18.8387 24.888 18.1667 25.608C16.9907 26.832 16.9907 28.944 16.9907 30.504C16.9907 32.064 16.9907 34.176 18.1667 35.4C18.8387 36.12 19.7987 36.528 20.7827 36.528C21.8387 36.528 22.7987 36.144 23.3507 35.448C23.7827 34.92 24.0467 34.32 24.1187 33.576H27.2867ZM40.629 32.76C40.629 34.872 40.101 36.192 39.165 37.368C38.301 38.424 36.693 39.312 34.797 39.312C32.901 39.312 31.293 38.424 30.429 37.368C29.493 36.192 28.965 34.872 28.965 32.76C28.965 30.648 29.493 29.328 30.429 28.152C31.293 27.096 32.901 26.208 34.797 26.208C36.693 26.208 38.301 27.096 39.165 28.152C40.101 29.328 40.629 30.648 40.629 32.76ZM37.581 32.76C37.581 31.584 37.413 30.408 36.693 29.616C36.285 29.184 35.613 28.824 34.797 28.824C33.981 28.824 33.309 29.184 32.901 29.616C32.181 30.408 32.013 31.584 32.013 32.76C32.013 33.936 32.181 35.112 32.901 35.904C33.309 36.336 33.981 36.696 34.797 36.696C35.613 36.696 36.285 36.336 36.693 35.904C37.413 35.112 37.581 33.936 37.581 32.76ZM50.7885 29.304C50.4525 29.232 50.0925 29.184 49.7565 29.184C47.6445 29.184 46.5405 30.696 46.5405 32.712V39H43.5165V26.52H46.0605L46.3245 28.392C46.9005 26.952 48.3885 26.352 49.8525 26.352C50.1645 26.352 50.4765 26.376 50.7885 26.424V29.304Z" fill="#B15300"/>
<path d="M9.92635 59H5.04235V57.9L8.02335 54.347C8.28735 54.039 8.41935 53.676 8.41935 53.368C8.41935 52.829 8.07835 52.411 7.45135 52.411C6.80235 52.411 6.42835 52.906 6.42835 53.511H5.02035C5.03135 52.169 5.88935 51.212 7.46235 51.212C8.77135 51.212 9.81635 52.015 9.81635 53.357C9.81635 54.039 9.40935 54.71 8.98035 55.227L6.86835 57.757H9.92635V59ZM16.3098 56.811C16.3098 58.34 15.1438 59.143 13.7028 59.143C12.2948 59.143 11.1508 58.219 11.1068 56.789H12.4818C12.5368 57.537 13.0428 57.933 13.7138 57.933C14.3958 57.933 14.9238 57.515 14.9238 56.789C14.9238 55.997 14.2968 55.634 13.5818 55.634H13.0098V54.435H13.5818C14.3298 54.435 14.7588 54.127 14.7588 53.412C14.7588 52.862 14.3188 52.411 13.7138 52.411C13.0318 52.411 12.5478 52.752 12.5368 53.445H11.1508C11.1728 52.004 12.3168 51.212 13.7138 51.212C15.0998 51.212 16.1558 52.059 16.1558 53.379C16.1558 54.072 15.7488 54.776 15.0558 55.018C15.8478 55.238 16.3098 56.019 16.3098 56.811ZM22.7372 55.172C22.7372 56.426 22.6162 57.702 21.8242 58.461C21.4282 58.846 20.8672 59.143 20.0422 59.143C19.2172 59.143 18.6562 58.846 18.2602 58.461C17.4682 57.702 17.3472 56.426 17.3472 55.172C17.3472 53.918 17.4682 52.642 18.2602 51.883C18.6562 51.498 19.2172 51.212 20.0422 51.212C20.8672 51.212 21.4282 51.498 21.8242 51.883C22.6162 52.642 22.7372 53.918 22.7372 55.172ZM21.3402 55.172C21.3402 54.182 21.4612 52.477 20.0422 52.477C18.6232 52.477 18.7442 54.182 18.7442 55.172C18.7442 56.162 18.6232 57.867 20.0422 57.867C21.4612 57.867 21.3402 56.162 21.3402 55.172ZM28.7467 59H23.8627V57.9L26.8437 54.347C27.1077 54.039 27.2397 53.676 27.2397 53.368C27.2397 52.829 26.8987 52.411 26.2717 52.411C25.6227 52.411 25.2487 52.906 25.2487 53.511H23.8407C23.8517 52.169 24.7097 51.212 26.2827 51.212C27.5917 51.212 28.6367 52.015 28.6367 53.357C28.6367 54.039 28.2297 54.71 27.8007 55.227L25.6887 57.757H28.7467V59ZM33.7881 59H32.4131V52.983L30.7301 54.204V52.708L32.6111 51.355H33.7881V59ZM41.4035 56.811C41.4035 58.34 40.2375 59.143 38.7965 59.143C37.3885 59.143 36.2445 58.219 36.2005 56.789H37.5755C37.6305 57.537 38.1365 57.933 38.8075 57.933C39.4895 57.933 40.0175 57.515 40.0175 56.789C40.0175 55.997 39.3905 55.634 38.6755 55.634H38.1035V54.435H38.6755C39.4235 54.435 39.8525 54.127 39.8525 53.412C39.8525 52.862 39.4125 52.411 38.8075 52.411C38.1255 52.411 37.6415 52.752 37.6305 53.445H36.2445C36.2665 52.004 37.4105 51.212 38.8075 51.212C40.1935 51.212 41.2495 52.059 41.2495 53.379C41.2495 54.072 40.8425 54.776 40.1495 55.018C40.9415 55.238 41.4035 56.019 41.4035 56.811ZM46.434 56.228H42.661V54.996H46.434V56.228ZM52.9228 55.172C52.9228 56.426 52.8018 57.702 52.0098 58.461C51.6138 58.846 51.0528 59.143 50.2278 59.143C49.4028 59.143 48.8418 58.846 48.4458 58.461C47.6538 57.702 47.5328 56.426 47.5328 55.172C47.5328 53.918 47.6538 52.642 48.4458 51.883C48.8418 51.498 49.4028 51.212 50.2278 51.212C51.0528 51.212 51.6138 51.498 52.0098 51.883C52.8018 52.642 52.9228 53.918 52.9228 55.172ZM51.5258 55.172C51.5258 54.182 51.6468 52.477 50.2278 52.477C48.8088 52.477 48.9298 54.182 48.9298 55.172C48.9298 56.162 48.8088 57.867 50.2278 57.867C51.6468 57.867 51.5258 56.162 51.5258 55.172ZM59.1962 55.172C59.1962 56.426 59.0752 57.702 58.2832 58.461C57.8872 58.846 57.3262 59.143 56.5012 59.143C55.6762 59.143 55.1152 58.846 54.7192 58.461C53.9272 57.702 53.8062 56.426 53.8062 55.172C53.8062 53.918 53.9272 52.642 54.7192 51.883C55.1152 51.498 55.6762 51.212 56.5012 51.212C57.3262 51.212 57.8872 51.498 58.2832 51.883C59.0752 52.642 59.1962 53.918 59.1962 55.172ZM57.7992 55.172C57.7992 54.182 57.9202 52.477 56.5012 52.477C55.0822 52.477 55.2032 54.182 55.2032 55.172C55.2032 56.162 55.0822 57.867 56.5012 57.867C57.9202 57.867 57.7992 56.162 57.7992 55.172Z" fill="#B15300"/>
<path d="M10.19 9.28C10.19 10.97 9.24 12.13 7.41 12.13C5.58 12.13 4.63 10.97 4.63 9.28V4.91H5.92V9.26C5.92 10.27 6.38 10.96 7.41 10.96C8.44 10.96 8.9 10.27 8.9 9.26V4.91H10.19V9.28ZM17.3164 12H15.9864L12.9164 7.13V12H11.6464V4.91H13.0164L16.0464 9.71V4.91H17.3164V12ZM20.2904 12H18.9804V4.91H20.2904V12ZM26.6691 6.11H24.5691V12H23.2791V6.11H21.1791V4.91H26.6691V6.11ZM32.6046 12H27.5546V4.91H32.6046V6.08H28.8446V7.73H32.1546V8.89H28.8446V10.83H32.6046V12ZM39.4139 8.45C39.4139 9.43 39.3139 10.49 38.5839 11.24C38.1139 11.73 37.4039 12 36.5939 12H33.8339V4.91H36.5939C37.4039 4.91 38.1139 5.18 38.5839 5.67C39.3139 6.42 39.4139 7.47 39.4139 8.45ZM38.1039 8.45C38.1039 7.8 38.0939 6.97 37.5939 6.47C37.3539 6.23 37.0039 6.07 36.5939 6.07H35.1239V10.84H36.5939C37.0039 10.84 37.3539 10.68 37.5939 10.44C38.0939 9.94 38.1039 9.1 38.1039 8.45Z" fill="#B15300"/>
<path d="M54.634 4.5C55.0189 3.83333 55.9811 3.83333 56.366 4.5L59.3971 9.75C59.782 10.4167 59.3009 11.25 58.5311 11.25H52.4689C51.6991 11.25 51.218 10.4167 51.6029 9.75L54.634 4.5Z" fill="#B15300"/>
</g>
<defs>
<clipPath id="clip0_156_1178">
<rect width="64" height="64" fill="white"/>
</clipPath>
</defs>
</svg>
