<svg width="64" height="64" viewBox="0 0 64 64" fill="none" xmlns="http://www.w3.org/2000/svg">
<g clip-path="url(#clip0_156_1260)">
<rect width="64" height="64" fill="#FCFF3A"/>
<rect width="64" height="64" rx="6" fill="#FCFF3A"/>
<path d="M9.55 6.11H7.45V12H6.16V6.11H4.06V4.91H9.55V6.11ZM15.4855 12H10.4355V4.91H15.4855V6.08H11.7255V7.73H15.0355V8.89H11.7255V10.83H15.4855V12ZM22.2748 12H20.9248L20.4648 10.64H17.6448L17.1848 12H15.8848L18.3748 4.91H19.7848L22.2748 12ZM20.0648 9.48L19.0548 6.49L18.0448 9.48H20.0648ZM28.125 9.74C28.065 10.3 27.855 10.87 27.445 11.29C26.915 11.83 26.175 12.13 25.415 12.13C24.655 12.13 23.945 11.88 23.405 11.34C22.635 10.57 22.525 9.62 22.525 8.46C22.525 7.3 22.635 6.35 23.405 5.58C23.945 5.04 24.655 4.78 25.415 4.78C26.175 4.78 26.915 5.06 27.445 5.6C27.855 6.02 28.065 6.58 28.125 7.14H26.805C26.775 6.83 26.665 6.61 26.485 6.39C26.255 6.1 25.855 5.95 25.415 5.95C25.005 5.95 24.605 6.12 24.325 6.42C23.835 6.93 23.835 7.81 23.835 8.46C23.835 9.11 23.835 9.99 24.325 10.5C24.605 10.8 25.005 10.97 25.415 10.97C25.855 10.97 26.255 10.81 26.485 10.52C26.665 10.3 26.775 10.05 26.805 9.74H28.125ZM34.7043 8.46C34.7043 9.62 34.5743 10.56 33.8043 11.33C33.2643 11.87 32.5243 12.13 31.7643 12.13C31.0043 12.13 30.2643 11.87 29.7243 11.33C28.9543 10.56 28.8243 9.62 28.8243 8.46C28.8243 7.3 28.9543 6.35 29.7243 5.58C30.2643 5.04 31.0043 4.78 31.7643 4.78C32.5243 4.78 33.2643 5.04 33.8043 5.58C34.5743 6.35 34.7043 7.3 34.7043 8.46ZM33.3943 8.46C33.3943 7.81 33.3743 6.93 32.8843 6.42C32.6043 6.12 32.1743 5.95 31.7643 5.95C31.3543 5.95 30.9243 6.12 30.6443 6.42C30.1543 6.93 30.1343 7.81 30.1343 8.46C30.1343 9.11 30.1543 9.98 30.6443 10.49C30.9243 10.79 31.3543 10.96 31.7643 10.96C32.1743 10.96 32.6043 10.79 32.8843 10.49C33.3743 9.98 33.3943 9.11 33.3943 8.46ZM43.073 12H41.823V6.94L39.983 11.9H39.033L37.203 6.88V12H35.953V4.91H37.693L39.553 9.96L41.423 4.91H43.073V12Z" fill="#BD9832"/>
<rect x="59.5007" y="3" width="2.1215" height="10.6075" transform="rotate(45 59.5007 3)" fill="#BD9832"/>
<rect x="61.0007" y="10.501" width="2.1215" height="10.6075" transform="rotate(135 61.0007 10.501)" fill="#BD9832"/>
<path d="M24.2746 30.48C24.2746 32.832 24.0346 35.376 22.2826 37.176C21.1546 38.352 19.4506 39 17.5066 39H10.8826V21.984H17.5066C19.4506 21.984 21.1546 22.632 22.2826 23.808C24.0346 25.608 24.2746 28.128 24.2746 30.48ZM21.1306 30.48C21.1306 28.92 21.1066 26.928 19.9066 25.728C19.3306 25.152 18.4906 24.768 17.5066 24.768H13.9786V36.216H17.5066C18.4906 36.216 19.3306 35.832 19.9066 35.256C21.1066 34.056 21.1306 32.04 21.1306 30.48ZM37.6809 34.224C37.6809 37.56 35.1369 39.312 31.9929 39.312C28.9209 39.312 26.4249 37.296 26.3289 34.176H29.3289C29.4489 35.808 30.5529 36.672 32.0169 36.672C33.5049 36.672 34.6569 35.76 34.6569 34.176C34.6569 32.448 33.2889 31.656 31.7289 31.656H30.4809V29.04H31.7289C33.3609 29.04 34.2969 28.368 34.2969 26.808C34.2969 25.608 33.3369 24.624 32.0169 24.624C30.5289 24.624 29.4729 25.368 29.4489 26.88H26.4249C26.4729 23.736 28.9689 22.008 32.0169 22.008C35.0409 22.008 37.3449 23.856 37.3449 26.736C37.3449 28.248 36.4569 29.784 34.9449 30.312C36.6729 30.792 37.6809 32.496 37.6809 34.224ZM54.1044 30.504C54.1044 33.288 53.7924 35.544 51.9444 37.392C50.6484 38.688 48.8724 39.312 47.0484 39.312C45.2244 39.312 43.4484 38.688 42.1524 37.392C40.3044 35.544 39.9924 33.288 39.9924 30.504C39.9924 27.72 40.3044 25.44 42.1524 23.592C43.4484 22.296 45.2244 21.672 47.0484 21.672C48.8724 21.672 50.6484 22.296 51.9444 23.592C53.7924 25.44 54.1044 27.72 54.1044 30.504ZM50.9604 30.504C50.9604 28.944 50.9124 26.832 49.7364 25.608C49.0644 24.888 48.0324 24.48 47.0484 24.48C46.0644 24.48 45.0324 24.888 44.3604 25.608C43.1844 26.832 43.1364 28.944 43.1364 30.504C43.1364 32.064 43.1844 34.152 44.3604 35.376C45.0324 36.096 46.0644 36.504 47.0484 36.504C48.0324 36.504 49.0644 36.096 49.7364 35.376C50.9124 34.152 50.9604 32.064 50.9604 30.504Z" fill="#BD9832"/>
<path d="M8.69435 59H7.31935V52.983L5.63635 54.204V52.708L7.51735 51.355H8.69435V59ZM16.3758 55.04C16.3758 56.162 16.3098 57.537 15.5288 58.373C15.1108 58.813 14.5718 59.143 13.6588 59.143C12.8778 59.143 12.3058 58.89 11.9098 58.516C11.4808 58.109 11.2608 57.559 11.2608 57.108H12.6468C12.6688 57.339 12.7678 57.548 12.9108 57.691C13.0868 57.878 13.3508 57.966 13.7248 57.966C14.0878 57.966 14.2968 57.834 14.4838 57.658C14.9018 57.273 15.0118 56.58 15.0118 55.909C14.6708 56.316 14.0218 56.47 13.5598 56.47C11.9098 56.47 11.0408 55.414 11.0408 53.863C11.0408 52.367 11.9318 51.212 13.6698 51.212C15.1218 51.212 16.0238 52.235 16.2548 53.61C16.3428 54.105 16.3758 54.556 16.3758 55.04ZM14.8798 53.918C14.8798 53.082 14.4838 52.433 13.6698 52.433C12.8448 52.433 12.4378 53.027 12.4378 53.918C12.4378 54.71 12.8448 55.348 13.6918 55.348C14.4288 55.348 14.8798 54.721 14.8798 53.918ZM22.7372 55.172C22.7372 56.426 22.6162 57.702 21.8242 58.461C21.4282 58.846 20.8672 59.143 20.0422 59.143C19.2172 59.143 18.6562 58.846 18.2602 58.461C17.4682 57.702 17.3472 56.426 17.3472 55.172C17.3472 53.918 17.4682 52.642 18.2602 51.883C18.6562 51.498 19.2172 51.212 20.0422 51.212C20.8672 51.212 21.4282 51.498 21.8242 51.883C22.6162 52.642 22.7372 53.918 22.7372 55.172ZM21.3402 55.172C21.3402 54.182 21.4612 52.477 20.0422 52.477C18.6232 52.477 18.7442 54.182 18.7442 55.172C18.7442 56.162 18.6232 57.867 20.0422 57.867C21.4612 57.867 21.3402 56.162 21.3402 55.172ZM28.7467 59H23.8627V57.9L26.8437 54.347C27.1077 54.039 27.2397 53.676 27.2397 53.368C27.2397 52.829 26.8987 52.411 26.2717 52.411C25.6227 52.411 25.2487 52.906 25.2487 53.511H23.8407C23.8517 52.169 24.7097 51.212 26.2827 51.212C27.5917 51.212 28.6367 52.015 28.6367 53.357C28.6367 54.039 28.2297 54.71 27.8007 55.227L25.6887 57.757H28.7467V59ZM35.1961 55.04C35.1961 56.162 35.1301 57.537 34.3491 58.373C33.9311 58.813 33.3921 59.143 32.4791 59.143C31.6981 59.143 31.1261 58.89 30.7301 58.516C30.3011 58.109 30.0811 57.559 30.0811 57.108H31.4671C31.4891 57.339 31.5881 57.548 31.7311 57.691C31.9071 57.878 32.1711 57.966 32.5451 57.966C32.9081 57.966 33.1171 57.834 33.3041 57.658C33.7221 57.273 33.8321 56.58 33.8321 55.909C33.4911 56.316 32.8421 56.47 32.3801 56.47C30.7301 56.47 29.8611 55.414 29.8611 53.863C29.8611 52.367 30.7521 51.212 32.4901 51.212C33.9421 51.212 34.8441 52.235 35.0751 53.61C35.1631 54.105 35.1961 54.556 35.1961 55.04ZM33.7001 53.918C33.7001 53.082 33.3041 52.433 32.4901 52.433C31.6651 52.433 31.2581 53.027 31.2581 53.918C31.2581 54.71 31.6651 55.348 32.5121 55.348C33.2491 55.348 33.7001 54.721 33.7001 53.918ZM41.7775 57.46H40.8095V59H39.4345V57.46H36.0245V56.162L38.8295 51.355H40.3255L37.4765 56.217H39.4345V54.424H40.8095V56.217H41.7775V57.46ZM46.434 56.228H42.661V54.996H46.434V56.228ZM52.9228 55.172C52.9228 56.426 52.8018 57.702 52.0098 58.461C51.6138 58.846 51.0528 59.143 50.2278 59.143C49.4028 59.143 48.8418 58.846 48.4458 58.461C47.6538 57.702 47.5328 56.426 47.5328 55.172C47.5328 53.918 47.6538 52.642 48.4458 51.883C48.8418 51.498 49.4028 51.212 50.2278 51.212C51.0528 51.212 51.6138 51.498 52.0098 51.883C52.8018 52.642 52.9228 53.918 52.9228 55.172ZM51.5258 55.172C51.5258 54.182 51.6468 52.477 50.2278 52.477C48.8088 52.477 48.9298 54.182 48.9298 55.172C48.9298 56.162 48.8088 57.867 50.2278 57.867C51.6468 57.867 51.5258 56.162 51.5258 55.172ZM59.1962 55.172C59.1962 56.426 59.0752 57.702 58.2832 58.461C57.8872 58.846 57.3262 59.143 56.5012 59.143C55.6762 59.143 55.1152 58.846 54.7192 58.461C53.9272 57.702 53.8062 56.426 53.8062 55.172C53.8062 53.918 53.9272 52.642 54.7192 51.883C55.1152 51.498 55.6762 51.212 56.5012 51.212C57.3262 51.212 57.8872 51.498 58.2832 51.883C59.0752 52.642 59.1962 53.918 59.1962 55.172ZM57.7992 55.172C57.7992 54.182 57.9202 52.477 56.5012 52.477C55.0822 52.477 55.2032 54.182 55.2032 55.172C55.2032 56.162 55.0822 57.867 56.5012 57.867C57.9202 57.867 57.7992 56.162 57.7992 55.172Z" fill="#BD9832"/>
</g>
<defs>
<clipPath id="clip0_156_1260">
<rect width="64" height="64" fill="white"/>
</clipPath>
</defs>
</svg>
