<svg width="64" height="64" viewBox="0 0 64 64" fill="none" xmlns="http://www.w3.org/2000/svg">
<g clip-path="url(#clip0_156_747)">
<rect width="64" height="64" fill="#F49A27"/>
<path d="M9.55 6.11H7.45V12H6.16V6.11H4.06V4.91H9.55V6.11ZM15.4855 12H10.4355V4.91H15.4855V6.08H11.7255V7.73H15.0355V8.89H11.7255V10.83H15.4855V12ZM22.2748 12H20.9248L20.4648 10.64H17.6448L17.1848 12H15.8848L18.3748 4.91H19.7848L22.2748 12ZM20.0648 9.48L19.0548 6.49L18.0448 9.48H20.0648ZM28.125 9.74C28.065 10.3 27.855 10.87 27.445 11.29C26.915 11.83 26.175 12.13 25.415 12.13C24.655 12.13 23.945 11.88 23.405 11.34C22.635 10.57 22.525 9.62 22.525 8.46C22.525 7.3 22.635 6.35 23.405 5.58C23.945 5.04 24.655 4.78 25.415 4.78C26.175 4.78 26.915 5.06 27.445 5.6C27.855 6.02 28.065 6.58 28.125 7.14H26.805C26.775 6.83 26.665 6.61 26.485 6.39C26.255 6.1 25.855 5.95 25.415 5.95C25.005 5.95 24.605 6.12 24.325 6.42C23.835 6.93 23.835 7.81 23.835 8.46C23.835 9.11 23.835 9.99 24.325 10.5C24.605 10.8 25.005 10.97 25.415 10.97C25.855 10.97 26.255 10.81 26.485 10.52C26.665 10.3 26.775 10.05 26.805 9.74H28.125ZM34.7043 8.46C34.7043 9.62 34.5743 10.56 33.8043 11.33C33.2643 11.87 32.5243 12.13 31.7643 12.13C31.0043 12.13 30.2643 11.87 29.7243 11.33C28.9543 10.56 28.8243 9.62 28.8243 8.46C28.8243 7.3 28.9543 6.35 29.7243 5.58C30.2643 5.04 31.0043 4.78 31.7643 4.78C32.5243 4.78 33.2643 5.04 33.8043 5.58C34.5743 6.35 34.7043 7.3 34.7043 8.46ZM33.3943 8.46C33.3943 7.81 33.3743 6.93 32.8843 6.42C32.6043 6.12 32.1743 5.95 31.7643 5.95C31.3543 5.95 30.9243 6.12 30.6443 6.42C30.1543 6.93 30.1343 7.81 30.1343 8.46C30.1343 9.11 30.1543 9.98 30.6443 10.49C30.9243 10.79 31.3543 10.96 31.7643 10.96C32.1743 10.96 32.6043 10.79 32.8843 10.49C33.3743 9.98 33.3943 9.11 33.3943 8.46ZM43.073 12H41.823V6.94L39.983 11.9H39.033L37.203 6.88V12H35.953V4.91H37.693L39.553 9.96L41.423 4.91H43.073V12Z" fill="#B15300"/>
<path d="M24.427 30.48C24.427 32.832 24.187 35.376 22.435 37.176C21.307 38.352 19.603 39 17.659 39H11.035V21.984H17.659C19.603 21.984 21.307 22.632 22.435 23.808C24.187 25.608 24.427 28.128 24.427 30.48ZM21.283 30.48C21.283 28.92 21.259 26.928 20.059 25.728C19.483 25.152 18.643 24.768 17.659 24.768H14.131V36.216H17.659C18.643 36.216 19.483 35.832 20.059 35.256C21.259 34.056 21.283 32.04 21.283 30.48ZM37.8332 34.224C37.8332 37.56 35.2892 39.312 32.1452 39.312C29.0732 39.312 26.5772 37.296 26.4812 34.176H29.4812C29.6012 35.808 30.7052 36.672 32.1692 36.672C33.6572 36.672 34.8092 35.76 34.8092 34.176C34.8092 32.448 33.4412 31.656 31.8812 31.656H30.6332V29.04H31.8812C33.5132 29.04 34.4492 28.368 34.4492 26.808C34.4492 25.608 33.4892 24.624 32.1692 24.624C30.6812 24.624 29.6252 25.368 29.6012 26.88H26.5772C26.6252 23.736 29.1212 22.008 32.1692 22.008C35.1932 22.008 37.4972 23.856 37.4972 26.736C37.4972 28.248 36.6092 29.784 35.0972 30.312C36.8252 30.792 37.8332 32.496 37.8332 34.224ZM54.2087 39H50.8487L48.0167 32.568H44.2487V39H41.1287V21.984H48.3047C52.3607 21.984 54.2087 24.528 54.2087 27.264C54.2087 29.544 52.9607 31.344 51.0887 32.04L54.2087 39ZM51.1127 27.264C51.1127 25.896 50.0567 24.696 48.3047 24.696H44.2247V29.784H48.3527C50.1047 29.784 51.1127 28.872 51.1127 27.264Z" fill="#B15300"/>
<path d="M8.69435 59H7.31935V52.983L5.63635 54.204V52.708L7.51735 51.355H8.69435V59ZM16.3758 55.04C16.3758 56.162 16.3098 57.537 15.5288 58.373C15.1108 58.813 14.5718 59.143 13.6588 59.143C12.8778 59.143 12.3058 58.89 11.9098 58.516C11.4808 58.109 11.2608 57.559 11.2608 57.108H12.6468C12.6688 57.339 12.7678 57.548 12.9108 57.691C13.0868 57.878 13.3508 57.966 13.7248 57.966C14.0878 57.966 14.2968 57.834 14.4838 57.658C14.9018 57.273 15.0118 56.58 15.0118 55.909C14.6708 56.316 14.0218 56.47 13.5598 56.47C11.9098 56.47 11.0408 55.414 11.0408 53.863C11.0408 52.367 11.9318 51.212 13.6698 51.212C15.1218 51.212 16.0238 52.235 16.2548 53.61C16.3428 54.105 16.3758 54.556 16.3758 55.04ZM14.8798 53.918C14.8798 53.082 14.4838 52.433 13.6698 52.433C12.8448 52.433 12.4378 53.027 12.4378 53.918C12.4378 54.71 12.8448 55.348 13.6918 55.348C14.4288 55.348 14.8798 54.721 14.8798 53.918ZM22.7372 55.172C22.7372 56.426 22.6162 57.702 21.8242 58.461C21.4282 58.846 20.8672 59.143 20.0422 59.143C19.2172 59.143 18.6562 58.846 18.2602 58.461C17.4682 57.702 17.3472 56.426 17.3472 55.172C17.3472 53.918 17.4682 52.642 18.2602 51.883C18.6562 51.498 19.2172 51.212 20.0422 51.212C20.8672 51.212 21.4282 51.498 21.8242 51.883C22.6162 52.642 22.7372 53.918 22.7372 55.172ZM21.3402 55.172C21.3402 54.182 21.4612 52.477 20.0422 52.477C18.6232 52.477 18.7442 54.182 18.7442 55.172C18.7442 56.162 18.6232 57.867 20.0422 57.867C21.4612 57.867 21.3402 56.162 21.3402 55.172ZM28.7467 59H23.8627V57.9L26.8437 54.347C27.1077 54.039 27.2397 53.676 27.2397 53.368C27.2397 52.829 26.8987 52.411 26.2717 52.411C25.6227 52.411 25.2487 52.906 25.2487 53.511H23.8407C23.8517 52.169 24.7097 51.212 26.2827 51.212C27.5917 51.212 28.6367 52.015 28.6367 53.357C28.6367 54.039 28.2297 54.71 27.8007 55.227L25.6887 57.757H28.7467V59ZM35.1961 55.04C35.1961 56.162 35.1301 57.537 34.3491 58.373C33.9311 58.813 33.3921 59.143 32.4791 59.143C31.6981 59.143 31.1261 58.89 30.7301 58.516C30.3011 58.109 30.0811 57.559 30.0811 57.108H31.4671C31.4891 57.339 31.5881 57.548 31.7311 57.691C31.9071 57.878 32.1711 57.966 32.5451 57.966C32.9081 57.966 33.1171 57.834 33.3041 57.658C33.7221 57.273 33.8321 56.58 33.8321 55.909C33.4911 56.316 32.8421 56.47 32.3801 56.47C30.7301 56.47 29.8611 55.414 29.8611 53.863C29.8611 52.367 30.7521 51.212 32.4901 51.212C33.9421 51.212 34.8441 52.235 35.0751 53.61C35.1631 54.105 35.1961 54.556 35.1961 55.04ZM33.7001 53.918C33.7001 53.082 33.3041 52.433 32.4901 52.433C31.6651 52.433 31.2581 53.027 31.2581 53.918C31.2581 54.71 31.6651 55.348 32.5121 55.348C33.2491 55.348 33.7001 54.721 33.7001 53.918ZM41.7775 57.46H40.8095V59H39.4345V57.46H36.0245V56.162L38.8295 51.355H40.3255L37.4765 56.217H39.4345V54.424H40.8095V56.217H41.7775V57.46ZM46.434 56.228H42.661V54.996H46.434V56.228ZM52.9228 55.172C52.9228 56.426 52.8018 57.702 52.0098 58.461C51.6138 58.846 51.0528 59.143 50.2278 59.143C49.4028 59.143 48.8418 58.846 48.4458 58.461C47.6538 57.702 47.5328 56.426 47.5328 55.172C47.5328 53.918 47.6538 52.642 48.4458 51.883C48.8418 51.498 49.4028 51.212 50.2278 51.212C51.0528 51.212 51.6138 51.498 52.0098 51.883C52.8018 52.642 52.9228 53.918 52.9228 55.172ZM51.5258 55.172C51.5258 54.182 51.6468 52.477 50.2278 52.477C48.8088 52.477 48.9298 54.182 48.9298 55.172C48.9298 56.162 48.8088 57.867 50.2278 57.867C51.6468 57.867 51.5258 56.162 51.5258 55.172ZM59.1962 55.172C59.1962 56.426 59.0752 57.702 58.2832 58.461C57.8872 58.846 57.3262 59.143 56.5012 59.143C55.6762 59.143 55.1152 58.846 54.7192 58.461C53.9272 57.702 53.8062 56.426 53.8062 55.172C53.8062 53.918 53.9272 52.642 54.7192 51.883C55.1152 51.498 55.6762 51.212 56.5012 51.212C57.3262 51.212 57.8872 51.498 58.2832 51.883C59.0752 52.642 59.1962 53.918 59.1962 55.172ZM57.7992 55.172C57.7992 54.182 57.9202 52.477 56.5012 52.477C55.0822 52.477 55.2032 54.182 55.2032 55.172C55.2032 56.162 55.0822 57.867 56.5012 57.867C57.9202 57.867 57.7992 56.162 57.7992 55.172Z" fill="#B15300"/>
<rect x="58.5007" y="3" width="2.1215" height="10.6075" transform="rotate(45 58.5007 3)" fill="#B15300"/>
<rect x="60.0007" y="10.501" width="2.1215" height="10.6075" transform="rotate(135 60.0007 10.501)" fill="#B15300"/>
</g>
<defs>
<clipPath id="clip0_156_747">
<rect width="64" height="64" fill="white"/>
</clipPath>
</defs>
</svg>
