<svg width="64" height="64" viewBox="0 0 64 64" fill="none" xmlns="http://www.w3.org/2000/svg">
<g clip-path="url(#clip0_156_1168)">
<rect width="64" height="64" fill="#FF1919"/>
<rect width="64" height="64" rx="6" fill="#FF1919"/>
<path d="M9.88 12H4.83V4.91H9.88V6.08H6.12V7.73H9.43V8.89H6.12V10.83H9.88V12ZM16.7793 12H15.4493L12.3793 7.13V12H11.1093V4.91H12.4793L15.5093 9.71V4.91H16.7793V12ZM23.9133 8.46C23.9133 9.62 23.7833 10.56 23.0133 11.33C22.4733 11.87 21.7333 12.13 20.9733 12.13C20.2133 12.13 19.4733 11.87 18.9333 11.33C18.1633 10.56 18.0333 9.62 18.0333 8.46C18.0333 7.3 18.1633 6.35 18.9333 5.58C19.4733 5.04 20.2133 4.78 20.9733 4.78C21.7333 4.78 22.4733 5.04 23.0133 5.58C23.7833 6.35 23.9133 7.3 23.9133 8.46ZM22.6033 8.46C22.6033 7.81 22.5833 6.93 22.0933 6.42C21.8133 6.12 21.3833 5.95 20.9733 5.95C20.5633 5.95 20.1333 6.12 19.8533 6.42C19.3633 6.93 19.3433 7.81 19.3433 8.46C19.3433 9.11 19.3633 9.98 19.8533 10.49C20.1333 10.79 20.5633 10.96 20.9733 10.96C21.3833 10.96 21.8133 10.79 22.0933 10.49C22.5833 9.98 22.6033 9.11 22.6033 8.46ZM30.332 9.74C30.272 10.3 30.062 10.87 29.652 11.29C29.122 11.83 28.382 12.13 27.622 12.13C26.862 12.13 26.152 11.88 25.612 11.34C24.842 10.57 24.732 9.62 24.732 8.46C24.732 7.3 24.842 6.35 25.612 5.58C26.152 5.04 26.862 4.78 27.622 4.78C28.382 4.78 29.122 5.06 29.652 5.6C30.062 6.02 30.272 6.58 30.332 7.14H29.012C28.982 6.83 28.872 6.61 28.692 6.39C28.462 6.1 28.062 5.95 27.622 5.95C27.212 5.95 26.812 6.12 26.532 6.42C26.042 6.93 26.042 7.81 26.042 8.46C26.042 9.11 26.042 9.99 26.532 10.5C26.812 10.8 27.212 10.97 27.622 10.97C28.062 10.97 28.462 10.81 28.692 10.52C28.872 10.3 28.982 10.05 29.012 9.74H30.332Z" fill="#FFCBCB"/>
<path d="M25.112 39H12.992V21.984H25.112V24.792H16.088V28.752H24.032V31.536H16.088V36.192H25.112V39ZM38.5743 39H35.5743V31.344C35.5743 29.88 35.0943 28.992 33.5103 28.992C32.4543 28.992 31.7583 29.664 31.3503 30.576C30.9183 31.56 30.9423 32.856 30.9423 33.912V39H27.9423V26.52H30.4623L30.6783 28.128C31.4223 26.808 32.9103 26.208 34.3503 26.208C37.0143 26.208 38.5743 28.08 38.5743 30.672V39ZM52.202 34.584C52.154 35.568 51.818 36.552 51.242 37.296C50.378 38.376 48.866 39.264 46.97 39.264C45.074 39.264 43.49 38.352 42.626 37.296C41.69 36.12 41.258 34.56 41.258 32.736C41.258 30.912 41.69 29.352 42.626 28.176C43.49 27.12 45.074 26.208 46.97 26.208C48.866 26.208 50.378 27.096 51.242 28.176C51.818 28.92 52.154 29.904 52.202 30.888H49.25C49.226 30.432 49.082 30.048 48.89 29.736C48.53 29.184 47.882 28.8 46.97 28.8C46.154 28.8 45.554 29.136 45.146 29.568C44.426 30.36 44.306 31.56 44.306 32.736C44.306 33.912 44.426 35.088 45.146 35.88C45.554 36.312 46.154 36.672 46.97 36.672C47.882 36.672 48.53 36.288 48.89 35.736C49.082 35.424 49.226 35.04 49.25 34.584H52.202Z" fill="#FFCBCB"/>
<path d="M8.69435 59H7.31935V52.983L5.63635 54.204V52.708L7.51735 51.355H8.69435V59ZM16.4088 56.855C16.4088 58.34 15.1438 59.154 13.7688 59.154C12.3938 59.154 11.1288 58.34 11.1288 56.855C11.1288 56.096 11.5138 55.37 12.2398 55.029C11.6788 54.721 11.2828 54.028 11.2828 53.379C11.2828 51.938 12.4378 51.212 13.7688 51.212C15.0998 51.212 16.2548 51.938 16.2548 53.379C16.2548 54.028 15.8588 54.721 15.2978 55.029C16.0238 55.37 16.4088 56.096 16.4088 56.855ZM14.8688 53.401C14.8688 52.84 14.4948 52.411 13.7688 52.411C13.0318 52.411 12.6688 52.84 12.6688 53.401C12.6688 53.962 13.0428 54.424 13.7688 54.424C14.4948 54.424 14.8688 53.962 14.8688 53.401ZM15.0228 56.767C15.0228 56.14 14.5828 55.634 13.7688 55.634C12.9548 55.634 12.5148 56.14 12.5148 56.767C12.5148 57.471 13.0208 57.933 13.7688 57.933C14.5168 57.933 15.0228 57.471 15.0228 56.767ZM22.7372 55.172C22.7372 56.426 22.6162 57.702 21.8242 58.461C21.4282 58.846 20.8672 59.143 20.0422 59.143C19.2172 59.143 18.6562 58.846 18.2602 58.461C17.4682 57.702 17.3472 56.426 17.3472 55.172C17.3472 53.918 17.4682 52.642 18.2602 51.883C18.6562 51.498 19.2172 51.212 20.0422 51.212C20.8672 51.212 21.4282 51.498 21.8242 51.883C22.6162 52.642 22.7372 53.918 22.7372 55.172ZM21.3402 55.172C21.3402 54.182 21.4612 52.477 20.0422 52.477C18.6232 52.477 18.7442 54.182 18.7442 55.172C18.7442 56.162 18.6232 57.867 20.0422 57.867C21.4612 57.867 21.3402 56.162 21.3402 55.172ZM28.8567 56.811C28.8567 58.34 27.6907 59.143 26.2497 59.143C24.8417 59.143 23.6977 58.219 23.6537 56.789H25.0287C25.0837 57.537 25.5897 57.933 26.2607 57.933C26.9427 57.933 27.4707 57.515 27.4707 56.789C27.4707 55.997 26.8437 55.634 26.1287 55.634H25.5567V54.435H26.1287C26.8767 54.435 27.3057 54.127 27.3057 53.412C27.3057 52.862 26.8657 52.411 26.2607 52.411C25.5787 52.411 25.0947 52.752 25.0837 53.445H23.6977C23.7197 52.004 24.8637 51.212 26.2607 51.212C27.6467 51.212 28.7027 52.059 28.7027 53.379C28.7027 54.072 28.2957 54.776 27.6027 55.018C28.3947 55.238 28.8567 56.019 28.8567 56.811ZM33.7881 59H32.4131V52.983L30.7301 54.204V52.708L32.6111 51.355H33.7881V59ZM41.2935 59H36.4095V57.9L39.3905 54.347C39.6545 54.039 39.7865 53.676 39.7865 53.368C39.7865 52.829 39.4455 52.411 38.8185 52.411C38.1695 52.411 37.7955 52.906 37.7955 53.511H36.3875C36.3985 52.169 37.2565 51.212 38.8295 51.212C40.1385 51.212 41.1835 52.015 41.1835 53.357C41.1835 54.039 40.7765 54.71 40.3475 55.227L38.2355 57.757H41.2935V59ZM46.434 56.228H42.661V54.996H46.434V56.228ZM52.9228 55.172C52.9228 56.426 52.8018 57.702 52.0098 58.461C51.6138 58.846 51.0528 59.143 50.2278 59.143C49.4028 59.143 48.8418 58.846 48.4458 58.461C47.6538 57.702 47.5328 56.426 47.5328 55.172C47.5328 53.918 47.6538 52.642 48.4458 51.883C48.8418 51.498 49.4028 51.212 50.2278 51.212C51.0528 51.212 51.6138 51.498 52.0098 51.883C52.8018 52.642 52.9228 53.918 52.9228 55.172ZM51.5258 55.172C51.5258 54.182 51.6468 52.477 50.2278 52.477C48.8088 52.477 48.9298 54.182 48.9298 55.172C48.9298 56.162 48.8088 57.867 50.2278 57.867C51.6468 57.867 51.5258 56.162 51.5258 55.172ZM59.1962 55.172C59.1962 56.426 59.0752 57.702 58.2832 58.461C57.8872 58.846 57.3262 59.143 56.5012 59.143C55.6762 59.143 55.1152 58.846 54.7192 58.461C53.9272 57.702 53.8062 56.426 53.8062 55.172C53.8062 53.918 53.9272 52.642 54.7192 51.883C55.1152 51.498 55.6762 51.212 56.5012 51.212C57.3262 51.212 57.8872 51.498 58.2832 51.883C59.0752 52.642 59.1962 53.918 59.1962 55.172ZM57.7992 55.172C57.7992 54.182 57.9202 52.477 56.5012 52.477C55.0822 52.477 55.2032 54.182 55.2032 55.172C55.2032 56.162 55.0822 57.867 56.5012 57.867C57.9202 57.867 57.7992 56.162 57.7992 55.172Z" fill="#FFCBCB"/>
<rect x="53" y="4" width="7" height="7" rx="3.5" stroke="#FFCBCB" stroke-width="2"/>
</g>
<defs>
<clipPath id="clip0_156_1168">
<rect width="64" height="64" fill="white"/>
</clipPath>
</defs>
</svg>
