<svg width="64" height="64" viewBox="0 0 64 64" fill="none" xmlns="http://www.w3.org/2000/svg">
<g clip-path="url(#clip0_156_1268)">
<rect width="64" height="64" fill="#FCFF3A"/>
<rect width="64" height="64" rx="6" fill="#FCFF3A"/>
<path d="M9.55 6.11H7.45V12H6.16V6.11H4.06V4.91H9.55V6.11ZM15.4855 12H10.4355V4.91H15.4855V6.08H11.7255V7.73H15.0355V8.89H11.7255V10.83H15.4855V12ZM22.2748 12H20.9248L20.4648 10.64H17.6448L17.1848 12H15.8848L18.3748 4.91H19.7848L22.2748 12ZM20.0648 9.48L19.0548 6.49L18.0448 9.48H20.0648ZM28.125 9.74C28.065 10.3 27.855 10.87 27.445 11.29C26.915 11.83 26.175 12.13 25.415 12.13C24.655 12.13 23.945 11.88 23.405 11.34C22.635 10.57 22.525 9.62 22.525 8.46C22.525 7.3 22.635 6.35 23.405 5.58C23.945 5.04 24.655 4.78 25.415 4.78C26.175 4.78 26.915 5.06 27.445 5.6C27.855 6.02 28.065 6.58 28.125 7.14H26.805C26.775 6.83 26.665 6.61 26.485 6.39C26.255 6.1 25.855 5.95 25.415 5.95C25.005 5.95 24.605 6.12 24.325 6.42C23.835 6.93 23.835 7.81 23.835 8.46C23.835 9.11 23.835 9.99 24.325 10.5C24.605 10.8 25.005 10.97 25.415 10.97C25.855 10.97 26.255 10.81 26.485 10.52C26.665 10.3 26.775 10.05 26.805 9.74H28.125ZM34.7043 8.46C34.7043 9.62 34.5743 10.56 33.8043 11.33C33.2643 11.87 32.5243 12.13 31.7643 12.13C31.0043 12.13 30.2643 11.87 29.7243 11.33C28.9543 10.56 28.8243 9.62 28.8243 8.46C28.8243 7.3 28.9543 6.35 29.7243 5.58C30.2643 5.04 31.0043 4.78 31.7643 4.78C32.5243 4.78 33.2643 5.04 33.8043 5.58C34.5743 6.35 34.7043 7.3 34.7043 8.46ZM33.3943 8.46C33.3943 7.81 33.3743 6.93 32.8843 6.42C32.6043 6.12 32.1743 5.95 31.7643 5.95C31.3543 5.95 30.9243 6.12 30.6443 6.42C30.1543 6.93 30.1343 7.81 30.1343 8.46C30.1343 9.11 30.1543 9.98 30.6443 10.49C30.9243 10.79 31.3543 10.96 31.7643 10.96C32.1743 10.96 32.6043 10.79 32.8843 10.49C33.3743 9.98 33.3943 9.11 33.3943 8.46ZM43.073 12H41.823V6.94L39.983 11.9H39.033L37.203 6.88V12H35.953V4.91H37.693L39.553 9.96L41.423 4.91H43.073V12Z" fill="#BD9832"/>
<path d="M24.4356 24.792H15.7716V29.352H23.4996V32.16H15.7716V39H12.6756V21.984H24.4356V24.792ZM36.3934 34.584C36.3454 35.568 36.0094 36.552 35.4334 37.296C34.5694 38.376 33.0574 39.264 31.1614 39.264C29.2654 39.264 27.6814 38.352 26.8174 37.296C25.8814 36.12 25.4494 34.56 25.4494 32.736C25.4494 30.912 25.8814 29.352 26.8174 28.176C27.6814 27.12 29.2654 26.208 31.1614 26.208C33.0574 26.208 34.5694 27.096 35.4334 28.176C36.0094 28.92 36.3454 29.904 36.3934 30.888H33.4414C33.4174 30.432 33.2734 30.048 33.0814 29.736C32.7214 29.184 32.0734 28.8 31.1614 28.8C30.3454 28.8 29.7454 29.136 29.3374 29.568C28.6174 30.36 28.4974 31.56 28.4974 32.736C28.4974 33.912 28.6174 35.088 29.3374 35.88C29.7454 36.312 30.3454 36.672 31.1614 36.672C32.0734 36.672 32.7214 36.288 33.0814 35.736C33.2734 35.424 33.4174 35.04 33.4414 34.584H36.3934ZM52.3114 30.504C52.3114 33.288 51.9994 35.544 50.1514 37.392C48.8554 38.688 47.0794 39.312 45.2554 39.312C43.4314 39.312 41.6554 38.688 40.3594 37.392C38.5114 35.544 38.1994 33.288 38.1994 30.504C38.1994 27.72 38.5114 25.44 40.3594 23.592C41.6554 22.296 43.4314 21.672 45.2554 21.672C47.0794 21.672 48.8554 22.296 50.1514 23.592C51.9994 25.44 52.3114 27.72 52.3114 30.504ZM49.1674 30.504C49.1674 28.944 49.1194 26.832 47.9434 25.608C47.2714 24.888 46.2394 24.48 45.2554 24.48C44.2714 24.48 43.2394 24.888 42.5674 25.608C41.3914 26.832 41.3434 28.944 41.3434 30.504C41.3434 32.064 41.3914 34.152 42.5674 35.376C43.2394 36.096 44.2714 36.504 45.2554 36.504C46.2394 36.504 47.2714 36.096 47.9434 35.376C49.1194 34.152 49.1674 32.064 49.1674 30.504Z" fill="#BD9832"/>
<path d="M9.92635 59H5.04235V57.9L8.02335 54.347C8.28735 54.039 8.41935 53.676 8.41935 53.368C8.41935 52.829 8.07835 52.411 7.45135 52.411C6.80235 52.411 6.42835 52.906 6.42835 53.511H5.02035C5.03135 52.169 5.88935 51.212 7.46235 51.212C8.77135 51.212 9.81635 52.015 9.81635 53.357C9.81635 54.039 9.40935 54.71 8.98035 55.227L6.86835 57.757H9.92635V59ZM16.3098 56.811C16.3098 58.34 15.1438 59.143 13.7028 59.143C12.2948 59.143 11.1508 58.219 11.1068 56.789H12.4818C12.5368 57.537 13.0428 57.933 13.7138 57.933C14.3958 57.933 14.9238 57.515 14.9238 56.789C14.9238 55.997 14.2968 55.634 13.5818 55.634H13.0098V54.435H13.5818C14.3298 54.435 14.7588 54.127 14.7588 53.412C14.7588 52.862 14.3188 52.411 13.7138 52.411C13.0318 52.411 12.5478 52.752 12.5368 53.445H11.1508C11.1728 52.004 12.3168 51.212 13.7138 51.212C15.0998 51.212 16.1558 52.059 16.1558 53.379C16.1558 54.072 15.7488 54.776 15.0558 55.018C15.8478 55.238 16.3098 56.019 16.3098 56.811ZM22.7372 55.172C22.7372 56.426 22.6162 57.702 21.8242 58.461C21.4282 58.846 20.8672 59.143 20.0422 59.143C19.2172 59.143 18.6562 58.846 18.2602 58.461C17.4682 57.702 17.3472 56.426 17.3472 55.172C17.3472 53.918 17.4682 52.642 18.2602 51.883C18.6562 51.498 19.2172 51.212 20.0422 51.212C20.8672 51.212 21.4282 51.498 21.8242 51.883C22.6162 52.642 22.7372 53.918 22.7372 55.172ZM21.3402 55.172C21.3402 54.182 21.4612 52.477 20.0422 52.477C18.6232 52.477 18.7442 54.182 18.7442 55.172C18.7442 56.162 18.6232 57.867 20.0422 57.867C21.4612 57.867 21.3402 56.162 21.3402 55.172ZM27.5147 59H26.1397V52.983L24.4567 54.204V52.708L26.3377 51.355H27.5147V59ZM35.5041 57.46H34.5361V59H33.1611V57.46H29.7511V56.162L32.5561 51.355H34.0521L31.2031 56.217H33.1611V54.424H34.5361V56.217H35.5041V57.46ZM41.4695 55.04C41.4695 56.162 41.4035 57.537 40.6225 58.373C40.2045 58.813 39.6655 59.143 38.7525 59.143C37.9715 59.143 37.3995 58.89 37.0035 58.516C36.5745 58.109 36.3545 57.559 36.3545 57.108H37.7405C37.7625 57.339 37.8615 57.548 38.0045 57.691C38.1805 57.878 38.4445 57.966 38.8185 57.966C39.1815 57.966 39.3905 57.834 39.5775 57.658C39.9955 57.273 40.1055 56.58 40.1055 55.909C39.7645 56.316 39.1155 56.47 38.6535 56.47C37.0035 56.47 36.1345 55.414 36.1345 53.863C36.1345 52.367 37.0255 51.212 38.7635 51.212C40.2155 51.212 41.1175 52.235 41.3485 53.61C41.4365 54.105 41.4695 54.556 41.4695 55.04ZM39.9735 53.918C39.9735 53.082 39.5775 52.433 38.7635 52.433C37.9385 52.433 37.5315 53.027 37.5315 53.918C37.5315 54.71 37.9385 55.348 38.7855 55.348C39.5225 55.348 39.9735 54.721 39.9735 53.918ZM46.434 56.228H42.661V54.996H46.434V56.228ZM52.9228 55.172C52.9228 56.426 52.8018 57.702 52.0098 58.461C51.6138 58.846 51.0528 59.143 50.2278 59.143C49.4028 59.143 48.8418 58.846 48.4458 58.461C47.6538 57.702 47.5328 56.426 47.5328 55.172C47.5328 53.918 47.6538 52.642 48.4458 51.883C48.8418 51.498 49.4028 51.212 50.2278 51.212C51.0528 51.212 51.6138 51.498 52.0098 51.883C52.8018 52.642 52.9228 53.918 52.9228 55.172ZM51.5258 55.172C51.5258 54.182 51.6468 52.477 50.2278 52.477C48.8088 52.477 48.9298 54.182 48.9298 55.172C48.9298 56.162 48.8088 57.867 50.2278 57.867C51.6468 57.867 51.5258 56.162 51.5258 55.172ZM59.1962 55.172C59.1962 56.426 59.0752 57.702 58.2832 58.461C57.8872 58.846 57.3262 59.143 56.5012 59.143C55.6762 59.143 55.1152 58.846 54.7192 58.461C53.9272 57.702 53.8062 56.426 53.8062 55.172C53.8062 53.918 53.9272 52.642 54.7192 51.883C55.1152 51.498 55.6762 51.212 56.5012 51.212C57.3262 51.212 57.8872 51.498 58.2832 51.883C59.0752 52.642 59.1962 53.918 59.1962 55.172ZM57.7992 55.172C57.7992 54.182 57.9202 52.477 56.5012 52.477C55.0822 52.477 55.2032 54.182 55.2032 55.172C55.2032 56.162 55.0822 57.867 56.5012 57.867C57.9202 57.867 57.7992 56.162 57.7992 55.172Z" fill="#BD9832"/>
<rect x="58.5007" y="4" width="2.1215" height="10.6075" transform="rotate(45 58.5007 4)" fill="#BD9832"/>
<rect x="60.0007" y="11.501" width="2.1215" height="10.6075" transform="rotate(135 60.0007 11.501)" fill="#BD9832"/>
</g>
<defs>
<clipPath id="clip0_156_1268">
<rect width="64" height="64" fill="white"/>
</clipPath>
</defs>
</svg>
