<svg width="64" height="64" viewBox="0 0 64 64" fill="none" xmlns="http://www.w3.org/2000/svg">
<g clip-path="url(#clip0_156_1211)">
<rect width="64" height="64" fill="#F49A27"/>
<path d="M9.88 12H4.83V4.91H9.88V6.08H6.12V7.73H9.43V8.89H6.12V10.83H9.88V12ZM18.2293 12H16.9793V6.94L15.1393 11.9H14.1893L12.3593 6.88V12H11.1093V4.91H12.8493L14.7093 9.96L16.5793 4.91H18.2293V12ZM25.4486 12H24.0986L23.6386 10.64H20.8186L20.3586 12H19.0586L21.5486 4.91H22.9586L25.4486 12ZM23.2386 9.48L22.2286 6.49L21.2186 9.48H23.2386ZM31.8353 12H30.4853L30.0253 10.64H27.2053L26.7453 12H25.4453L27.9353 4.91H29.3453L31.8353 12ZM29.6253 9.48L28.6153 6.49L27.6053 9.48H29.6253ZM38.112 12H36.712L35.532 9.32H33.962V12H32.662V4.91H35.652C37.342 4.91 38.112 5.97 38.112 7.11C38.112 8.06 37.592 8.81 36.812 9.1L38.112 12ZM36.822 7.11C36.822 6.54 36.382 6.04 35.652 6.04H33.952V8.16H35.672C36.402 8.16 36.822 7.78 36.822 7.11Z" fill="#B15300"/>
<rect x="59.5007" y="3" width="2.1215" height="10.6075" transform="rotate(45 59.5007 3)" fill="#B15300"/>
<rect x="61.0007" y="10.501" width="2.1215" height="10.6075" transform="rotate(135 61.0007 10.501)" fill="#B15300"/>
<path d="M26.8298 39H24.8378L24.4778 37.128C23.9738 38.112 22.3418 39.288 20.2058 39.312C18.2378 39.336 16.4858 38.832 15.1418 37.416C13.3658 35.568 12.9338 33.288 12.9338 30.504C12.9338 27.72 13.2938 25.512 15.1418 23.664C16.4378 22.368 18.3818 21.672 20.2058 21.672C22.2938 21.672 24.0938 22.44 25.2458 23.616C26.0858 24.48 26.7098 25.56 26.8058 27.048H23.6378C23.5898 26.376 23.2538 25.92 22.8938 25.488C22.2938 24.792 21.3578 24.456 20.1818 24.456C19.1978 24.456 18.0698 24.888 17.3978 25.608C16.2218 26.832 16.0778 28.944 16.0778 30.504C16.0778 32.064 16.2458 34.248 17.4218 35.472C18.0938 36.192 19.1978 36.552 20.1818 36.552C21.2858 36.552 22.1498 36.168 22.7258 35.568C23.6378 34.608 23.8298 33.552 23.8298 32.256H19.7738V29.688H26.8298V39ZM37.428 24.048C36.804 23.928 36.252 23.856 35.46 23.856C34.38 23.856 33.828 24.48 33.828 25.368V26.52H37.164V28.992H33.828V39H30.828V28.992H28.716V26.52H30.828V25.32C30.828 23.016 32.388 21.384 35.076 21.384C35.94 21.384 36.492 21.456 37.428 21.648V24.048ZM52.0658 21.984L46.4738 39H43.0658L37.4258 21.984H40.7138L44.8418 34.968L48.9458 21.984H52.0658Z" fill="#B15300"/>
<path d="M8.69435 59H7.31935V52.983L5.63635 54.204V52.708L7.51735 51.355H8.69435V59ZM16.4198 52.455L13.4388 59H11.9538L14.9458 52.587H11.1508V51.355H16.4198V52.455ZM22.7372 55.172C22.7372 56.426 22.6162 57.702 21.8242 58.461C21.4282 58.846 20.8672 59.143 20.0422 59.143C19.2172 59.143 18.6562 58.846 18.2602 58.461C17.4682 57.702 17.3472 56.426 17.3472 55.172C17.3472 53.918 17.4682 52.642 18.2602 51.883C18.6562 51.498 19.2172 51.212 20.0422 51.212C20.8672 51.212 21.4282 51.498 21.8242 51.883C22.6162 52.642 22.7372 53.918 22.7372 55.172ZM21.3402 55.172C21.3402 54.182 21.4612 52.477 20.0422 52.477C18.6232 52.477 18.7442 54.182 18.7442 55.172C18.7442 56.162 18.6232 57.867 20.0422 57.867C21.4612 57.867 21.3402 56.162 21.3402 55.172ZM28.8567 56.811C28.8567 58.34 27.6907 59.143 26.2497 59.143C24.8417 59.143 23.6977 58.219 23.6537 56.789H25.0287C25.0837 57.537 25.5897 57.933 26.2607 57.933C26.9427 57.933 27.4707 57.515 27.4707 56.789C27.4707 55.997 26.8437 55.634 26.1287 55.634H25.5567V54.435H26.1287C26.8767 54.435 27.3057 54.127 27.3057 53.412C27.3057 52.862 26.8657 52.411 26.2607 52.411C25.5787 52.411 25.0947 52.752 25.0837 53.445H23.6977C23.7197 52.004 24.8637 51.212 26.2607 51.212C27.6467 51.212 28.7027 52.059 28.7027 53.379C28.7027 54.072 28.2957 54.776 27.6027 55.018C28.3947 55.238 28.8567 56.019 28.8567 56.811ZM33.7881 59H32.4131V52.983L30.7301 54.204V52.708L32.6111 51.355H33.7881V59ZM40.0615 59H38.6865V52.983L37.0035 54.204V52.708L38.8845 51.355H40.0615V59ZM46.434 56.228H42.661V54.996H46.434V56.228ZM52.9228 55.172C52.9228 56.426 52.8018 57.702 52.0098 58.461C51.6138 58.846 51.0528 59.143 50.2278 59.143C49.4028 59.143 48.8418 58.846 48.4458 58.461C47.6538 57.702 47.5328 56.426 47.5328 55.172C47.5328 53.918 47.6538 52.642 48.4458 51.883C48.8418 51.498 49.4028 51.212 50.2278 51.212C51.0528 51.212 51.6138 51.498 52.0098 51.883C52.8018 52.642 52.9228 53.918 52.9228 55.172ZM51.5258 55.172C51.5258 54.182 51.6468 52.477 50.2278 52.477C48.8088 52.477 48.9298 54.182 48.9298 55.172C48.9298 56.162 48.8088 57.867 50.2278 57.867C51.6468 57.867 51.5258 56.162 51.5258 55.172ZM59.1962 55.172C59.1962 56.426 59.0752 57.702 58.2832 58.461C57.8872 58.846 57.3262 59.143 56.5012 59.143C55.6762 59.143 55.1152 58.846 54.7192 58.461C53.9272 57.702 53.8062 56.426 53.8062 55.172C53.8062 53.918 53.9272 52.642 54.7192 51.883C55.1152 51.498 55.6762 51.212 56.5012 51.212C57.3262 51.212 57.8872 51.498 58.2832 51.883C59.0752 52.642 59.1962 53.918 59.1962 55.172ZM57.7992 55.172C57.7992 54.182 57.9202 52.477 56.5012 52.477C55.0822 52.477 55.2032 54.182 55.2032 55.172C55.2032 56.162 55.0822 57.867 56.5012 57.867C57.9202 57.867 57.7992 56.162 57.7992 55.172Z" fill="#B15300"/>
</g>
<defs>
<clipPath id="clip0_156_1211">
<rect width="64" height="64" fill="white"/>
</clipPath>
</defs>
</svg>
