<svg width="64" height="64" viewBox="0 0 64 64" fill="none" xmlns="http://www.w3.org/2000/svg">
<g clip-path="url(#clip0_156_849)">
<rect width="64" height="64" fill="#149618"/>
<rect width="64" height="64" rx="6" fill="#149618"/>
<path d="M24.6446 39H21.5486V31.584H14.5646V39H11.4686V21.984H14.5646V28.632H21.5486V21.984H24.6446V39ZM39.3768 38.856C38.8728 39.072 38.6088 39.192 37.8888 39.192C36.5928 39.192 35.8728 38.376 35.7768 37.44C35.2008 38.448 33.7608 39.312 31.9848 39.312C29.0088 39.312 27.4728 37.44 27.4728 35.4C27.4728 33.024 29.3208 31.656 31.6968 31.488L35.3688 31.224V30.456C35.3688 29.28 34.9608 28.488 33.2568 28.488C31.8648 28.488 31.0488 29.112 30.9768 30.264H28.0728C28.2408 27.456 30.4728 26.208 33.2568 26.208C35.3928 26.208 37.2168 26.88 37.9368 28.752C38.2488 29.544 38.2968 30.432 38.2968 31.272V35.904C38.2968 36.48 38.4888 36.696 38.9928 36.696C39.1848 36.696 39.3768 36.648 39.3768 36.648V38.856ZM35.3688 34.032V33.456L32.2008 33.696C31.2888 33.768 30.4008 34.32 30.4008 35.328C30.4008 36.288 31.2408 36.888 32.1768 36.888C34.0488 36.888 35.3688 35.88 35.3688 34.032ZM53.5254 32.784C53.5254 35.136 52.7814 37.008 51.2934 38.232C50.5254 38.856 49.5174 39.288 48.2694 39.288C46.9014 39.288 45.5094 38.784 44.7654 37.632L44.5734 39H41.9814V21.672H44.9814V27.432C45.5574 26.736 46.7574 26.208 48.2454 26.208C49.5174 26.208 50.5254 26.592 51.2934 27.216C52.7814 28.44 53.5254 30.336 53.5254 32.784ZM50.4774 32.736C50.4774 31.656 50.3094 30.528 49.6854 29.712C49.2534 29.16 48.6054 28.728 47.6694 28.728C45.3174 28.728 44.8374 30.936 44.8374 32.736C44.8374 33.96 45.0534 35.352 45.9174 36.144C46.3254 36.528 46.9014 36.768 47.6694 36.768C48.6054 36.768 49.2534 36.336 49.6854 35.784C50.3094 34.968 50.4774 33.816 50.4774 32.736Z" fill="#CCFFCE"/>
<path d="M9.92635 59H5.04235V57.9L8.02335 54.347C8.28735 54.039 8.41935 53.676 8.41935 53.368C8.41935 52.829 8.07835 52.411 7.45135 52.411C6.80235 52.411 6.42835 52.906 6.42835 53.511H5.02035C5.03135 52.169 5.88935 51.212 7.46235 51.212C8.77135 51.212 9.81635 52.015 9.81635 53.357C9.81635 54.039 9.40935 54.71 8.98035 55.227L6.86835 57.757H9.92635V59ZM16.1998 59H11.3158V57.9L14.2968 54.347C14.5608 54.039 14.6928 53.676 14.6928 53.368C14.6928 52.829 14.3518 52.411 13.7248 52.411C13.0758 52.411 12.7018 52.906 12.7018 53.511H11.2938C11.3048 52.169 12.1628 51.212 13.7358 51.212C15.0448 51.212 16.0898 52.015 16.0898 53.357C16.0898 54.039 15.6828 54.71 15.2538 55.227L13.1418 57.757H16.1998V59ZM22.7372 55.172C22.7372 56.426 22.6162 57.702 21.8242 58.461C21.4282 58.846 20.8672 59.143 20.0422 59.143C19.2172 59.143 18.6562 58.846 18.2602 58.461C17.4682 57.702 17.3472 56.426 17.3472 55.172C17.3472 53.918 17.4682 52.642 18.2602 51.883C18.6562 51.498 19.2172 51.212 20.0422 51.212C20.8672 51.212 21.4282 51.498 21.8242 51.883C22.6162 52.642 22.7372 53.918 22.7372 55.172ZM21.3402 55.172C21.3402 54.182 21.4612 52.477 20.0422 52.477C18.6232 52.477 18.7442 54.182 18.7442 55.172C18.7442 56.162 18.6232 57.867 20.0422 57.867C21.4612 57.867 21.3402 56.162 21.3402 55.172ZM28.7467 59H23.8627V57.9L26.8437 54.347C27.1077 54.039 27.2397 53.676 27.2397 53.368C27.2397 52.829 26.8987 52.411 26.2717 52.411C25.6227 52.411 25.2487 52.906 25.2487 53.511H23.8407C23.8517 52.169 24.7097 51.212 26.2827 51.212C27.5917 51.212 28.6367 52.015 28.6367 53.357C28.6367 54.039 28.2297 54.71 27.8007 55.227L25.6887 57.757H28.7467V59ZM35.3391 56.481C35.3391 57.977 34.4481 59.143 32.7101 59.143C31.2581 59.143 30.3561 58.109 30.1251 56.734C30.0371 56.239 30.0041 55.788 30.0041 55.304C30.0041 54.182 30.0701 52.807 30.8511 51.971C31.2691 51.531 31.8081 51.212 32.7211 51.212C33.5021 51.212 34.0741 51.454 34.4701 51.828C34.8991 52.235 35.1191 52.785 35.1191 53.236H33.7331C33.7111 53.005 33.6121 52.796 33.4691 52.653C33.2931 52.466 33.0291 52.378 32.6551 52.378C32.2921 52.378 32.0831 52.51 31.8961 52.686C31.4781 53.071 31.3681 53.764 31.3681 54.435C31.7091 54.028 32.3581 53.874 32.8201 53.874C34.4701 53.874 35.3391 54.93 35.3391 56.481ZM33.9421 56.426C33.9421 55.634 33.5351 54.996 32.6881 54.996C31.9511 54.996 31.5001 55.623 31.5001 56.426C31.5001 57.262 31.8961 57.911 32.7101 57.911C33.5351 57.911 33.9421 57.317 33.9421 56.426ZM41.2935 59H36.4095V57.9L39.3905 54.347C39.6545 54.039 39.7865 53.676 39.7865 53.368C39.7865 52.829 39.4455 52.411 38.8185 52.411C38.1695 52.411 37.7955 52.906 37.7955 53.511H36.3875C36.3985 52.169 37.2565 51.212 38.8295 51.212C40.1385 51.212 41.1835 52.015 41.1835 53.357C41.1835 54.039 40.7765 54.71 40.3475 55.227L38.2355 57.757H41.2935V59ZM46.434 56.228H42.661V54.996H46.434V56.228ZM52.9228 55.172C52.9228 56.426 52.8018 57.702 52.0098 58.461C51.6138 58.846 51.0528 59.143 50.2278 59.143C49.4028 59.143 48.8418 58.846 48.4458 58.461C47.6538 57.702 47.5328 56.426 47.5328 55.172C47.5328 53.918 47.6538 52.642 48.4458 51.883C48.8418 51.498 49.4028 51.212 50.2278 51.212C51.0528 51.212 51.6138 51.498 52.0098 51.883C52.8018 52.642 52.9228 53.918 52.9228 55.172ZM51.5258 55.172C51.5258 54.182 51.6468 52.477 50.2278 52.477C48.8088 52.477 48.9298 54.182 48.9298 55.172C48.9298 56.162 48.8088 57.867 50.2278 57.867C51.6468 57.867 51.5258 56.162 51.5258 55.172ZM59.1962 55.172C59.1962 56.426 59.0752 57.702 58.2832 58.461C57.8872 58.846 57.3262 59.143 56.5012 59.143C55.6762 59.143 55.1152 58.846 54.7192 58.461C53.9272 57.702 53.8062 56.426 53.8062 55.172C53.8062 53.918 53.9272 52.642 54.7192 51.883C55.1152 51.498 55.6762 51.212 56.5012 51.212C57.3262 51.212 57.8872 51.498 58.2832 51.883C59.0752 52.642 59.1962 53.918 59.1962 55.172ZM57.7992 55.172C57.7992 54.182 57.9202 52.477 56.5012 52.477C55.0822 52.477 55.2032 54.182 55.2032 55.172C55.2032 56.162 55.0822 57.867 56.5012 57.867C57.9202 57.867 57.7992 56.162 57.7992 55.172Z" fill="#CCFFCE"/>
<path d="M8.28 12H6.88L5.7 9.32H4.13V12H2.83V4.91H5.82C7.51 4.91 8.28 5.97 8.28 7.11C8.28 8.06 7.76 8.81 6.98 9.1L8.28 12ZM6.99 7.11C6.99 6.54 6.55 6.04 5.82 6.04H4.12V8.16H5.84C6.57 8.16 6.99 7.78 6.99 7.11ZM10.3118 12H8.7918V10.44H10.3118V12ZM16.375 9.74C16.315 10.3 16.105 10.87 15.695 11.29C15.165 11.83 14.425 12.13 13.665 12.13C12.905 12.13 12.195 11.88 11.655 11.34C10.885 10.57 10.775 9.62 10.775 8.46C10.775 7.3 10.885 6.35 11.655 5.58C12.195 5.04 12.905 4.78 13.665 4.78C14.425 4.78 15.165 5.06 15.695 5.6C16.105 6.02 16.315 6.58 16.375 7.14H15.055C15.025 6.83 14.915 6.61 14.735 6.39C14.505 6.1 14.105 5.95 13.665 5.95C13.255 5.95 12.855 6.12 12.575 6.42C12.085 6.93 12.085 7.81 12.085 8.46C12.085 9.11 12.085 9.99 12.575 10.5C12.855 10.8 13.255 10.97 13.665 10.97C14.105 10.97 14.505 10.81 14.735 10.52C14.915 10.3 15.025 10.05 15.055 9.74H16.375ZM18.2278 12H16.7078V10.44H18.2278V12ZM25.9193 12H24.5693L24.1093 10.64H21.2893L20.8293 12H19.5293L22.0193 4.91H23.4293L25.9193 12ZM23.7093 9.48L22.6993 6.49L21.6893 9.48H23.7093ZM30.826 12H26.246V4.91H27.536V10.78H30.826V12ZM36.3013 9.28C36.3013 10.97 35.3513 12.13 33.5213 12.13C31.6913 12.13 30.7413 10.97 30.7413 9.28V4.91H32.0313V9.26C32.0313 10.27 32.4913 10.96 33.5213 10.96C34.5513 10.96 35.0113 10.27 35.0113 9.26V4.91H36.3013V9.28ZM41.8377 12H37.2577V4.91H38.5477V10.78H41.8377V12ZM47.8158 12H46.4658L46.0058 10.64H43.1858L42.7258 12H41.4258L43.9158 4.91H45.3258L47.8158 12ZM45.6058 9.48L44.5958 6.49L43.5858 9.48H45.6058Z" fill="#CCFFCE"/>
<rect x="58.5" y="3" width="2.1215" height="10.6075" transform="rotate(45 58.5 3)" fill="#CCFFCE"/>
<rect x="60" y="10.501" width="2.1215" height="10.6075" transform="rotate(135 60 10.501)" fill="#CCFFCE"/>
</g>
<defs>
<clipPath id="clip0_156_849">
<rect width="64" height="64" fill="white"/>
</clipPath>
</defs>
</svg>
