<svg width="64" height="64" viewBox="0 0 64 64" fill="none" xmlns="http://www.w3.org/2000/svg">
<g clip-path="url(#clip0_156_1242)">
<rect width="64" height="64" fill="#F49A27"/>
<path d="M12.55 4.91L11.14 12H9.85L8.37 7.11L6.89 12H5.6L4.17 4.91H5.4L6.39 9.84L7.85 5.02H8.93L10.36 9.84L11.37 4.91H12.55ZM18.9642 12H17.6142L17.1542 10.64H14.3342L13.8742 12H12.5742L15.0642 4.91H16.4742L18.9642 12ZM16.7542 9.48L15.7442 6.49L14.7342 9.48H16.7542ZM24.9021 9.89C24.9021 10.55 24.6621 11.02 24.3121 11.37C23.7721 11.91 22.9421 12.13 22.0721 12.13C21.3221 12.13 20.5321 11.93 19.9521 11.4C19.5321 11.02 19.2121 10.42 19.2121 9.75H20.5321C20.5321 10.1 20.6921 10.41 20.9021 10.62C21.2021 10.92 21.6821 11 22.0921 11C22.5821 11 23.0521 10.9 23.3221 10.62C23.4821 10.45 23.6021 10.28 23.6021 9.94C23.6021 9.42 23.2021 9.18 22.7621 9.1C22.2821 9.01 21.6621 8.99 21.1921 8.91C20.2121 8.75 19.3921 8.11 19.3921 6.93C19.3921 6.37 19.6421 5.9 20.0121 5.53C20.4821 5.07 21.2621 4.78 22.0921 4.78C22.8521 4.78 23.5921 5.02 24.0721 5.47C24.4921 5.87 24.7821 6.39 24.7921 6.98H23.4721C23.4621 6.73 23.3321 6.46 23.1621 6.28C22.9321 6.04 22.4621 5.9 22.0821 5.9C21.6821 5.9 21.2221 5.99 20.9321 6.29C20.7821 6.45 20.6921 6.63 20.6921 6.89C20.6921 7.35 20.9921 7.59 21.4121 7.66C21.8621 7.73 22.4921 7.78 22.9521 7.84C24.0121 7.99 24.9021 8.68 24.9021 9.89ZM30.6405 12H26.0605V4.91H27.3505V10.78H30.6405V12Z" fill="#B15300"/>
<rect x="58.5007" y="4" width="2.1215" height="10.6075" transform="rotate(45 58.5007 4)" fill="#B15300"/>
<rect x="60.0007" y="11.501" width="2.1215" height="10.6075" transform="rotate(135 60.0007 11.501)" fill="#B15300"/>
<path d="M22.7954 34.032C22.7954 37.248 20.8994 39.336 17.6354 39.336C16.0274 39.336 14.8514 38.808 14.0114 37.944C13.0034 36.912 12.5234 35.52 12.5234 33.672H15.5234C15.5234 34.512 15.6194 35.376 16.1474 35.952C16.4834 36.312 17.0114 36.576 17.6354 36.576C19.0274 36.576 19.6994 35.664 19.6994 34.272V21.984H22.7954V34.032ZM37.0565 38.856C36.5525 39.072 36.2885 39.192 35.5685 39.192C34.2725 39.192 33.5525 38.376 33.4565 37.44C32.8805 38.448 31.4405 39.312 29.6645 39.312C26.6885 39.312 25.1525 37.44 25.1525 35.4C25.1525 33.024 27.0005 31.656 29.3765 31.488L33.0485 31.224V30.456C33.0485 29.28 32.6405 28.488 30.9365 28.488C29.5445 28.488 28.7285 29.112 28.6565 30.264H25.7525C25.9205 27.456 28.1525 26.208 30.9365 26.208C33.0725 26.208 34.8965 26.88 35.6165 28.752C35.9285 29.544 35.9765 30.432 35.9765 31.272V35.904C35.9765 36.48 36.1685 36.696 36.6725 36.696C36.8645 36.696 37.0565 36.648 37.0565 36.648V38.856ZM33.0485 34.032V33.456L29.8805 33.696C28.9685 33.768 28.0805 34.32 28.0805 35.328C28.0805 36.288 28.9205 36.888 29.8565 36.888C31.7285 36.888 33.0485 35.88 33.0485 34.032ZM49.9331 39H39.2771V36.6L45.7811 28.848C46.3571 28.176 46.6451 27.384 46.6451 26.712C46.6451 25.536 45.9011 24.624 44.5331 24.624C43.1171 24.624 42.3011 25.704 42.3011 27.024H39.2291C39.2531 24.096 41.1251 22.008 44.5571 22.008C47.4131 22.008 49.6931 23.76 49.6931 26.688C49.6931 28.176 48.8051 29.64 47.8691 30.768L43.2611 36.288H49.9331V39Z" fill="#B15300"/>
<path d="M8.69435 59H7.31935V52.983L5.63635 54.204V52.708L7.51735 51.355H8.69435V59ZM16.5188 56.481C16.5188 57.977 15.6278 59.143 13.8898 59.143C12.4378 59.143 11.5358 58.109 11.3048 56.734C11.2168 56.239 11.1838 55.788 11.1838 55.304C11.1838 54.182 11.2498 52.807 12.0308 51.971C12.4488 51.531 12.9878 51.212 13.9008 51.212C14.6818 51.212 15.2538 51.454 15.6498 51.828C16.0788 52.235 16.2988 52.785 16.2988 53.236H14.9128C14.8908 53.005 14.7918 52.796 14.6488 52.653C14.4728 52.466 14.2088 52.378 13.8348 52.378C13.4718 52.378 13.2628 52.51 13.0758 52.686C12.6578 53.071 12.5478 53.764 12.5478 54.435C12.8888 54.028 13.5378 53.874 13.9998 53.874C15.6498 53.874 16.5188 54.93 16.5188 56.481ZM15.1218 56.426C15.1218 55.634 14.7148 54.996 13.8678 54.996C13.1308 54.996 12.6798 55.623 12.6798 56.426C12.6798 57.262 13.0758 57.911 13.8898 57.911C14.7148 57.911 15.1218 57.317 15.1218 56.426ZM22.7372 55.172C22.7372 56.426 22.6162 57.702 21.8242 58.461C21.4282 58.846 20.8672 59.143 20.0422 59.143C19.2172 59.143 18.6562 58.846 18.2602 58.461C17.4682 57.702 17.3472 56.426 17.3472 55.172C17.3472 53.918 17.4682 52.642 18.2602 51.883C18.6562 51.498 19.2172 51.212 20.0422 51.212C20.8672 51.212 21.4282 51.498 21.8242 51.883C22.6162 52.642 22.7372 53.918 22.7372 55.172ZM21.3402 55.172C21.3402 54.182 21.4612 52.477 20.0422 52.477C18.6232 52.477 18.7442 54.182 18.7442 55.172C18.7442 56.162 18.6232 57.867 20.0422 57.867C21.4612 57.867 21.3402 56.162 21.3402 55.172ZM28.7467 59H23.8627V57.9L26.8437 54.347C27.1077 54.039 27.2397 53.676 27.2397 53.368C27.2397 52.829 26.8987 52.411 26.2717 52.411C25.6227 52.411 25.2487 52.906 25.2487 53.511H23.8407C23.8517 52.169 24.7097 51.212 26.2827 51.212C27.5917 51.212 28.6367 52.015 28.6367 53.357C28.6367 54.039 28.2297 54.71 27.8007 55.227L25.6887 57.757H28.7467V59ZM35.2401 52.455L32.2591 59H30.7741L33.7661 52.587H29.9711V51.355H35.2401V52.455ZM41.7775 57.46H40.8095V59H39.4345V57.46H36.0245V56.162L38.8295 51.355H40.3255L37.4765 56.217H39.4345V54.424H40.8095V56.217H41.7775V57.46ZM46.434 56.228H42.661V54.996H46.434V56.228ZM52.9228 55.172C52.9228 56.426 52.8018 57.702 52.0098 58.461C51.6138 58.846 51.0528 59.143 50.2278 59.143C49.4028 59.143 48.8418 58.846 48.4458 58.461C47.6538 57.702 47.5328 56.426 47.5328 55.172C47.5328 53.918 47.6538 52.642 48.4458 51.883C48.8418 51.498 49.4028 51.212 50.2278 51.212C51.0528 51.212 51.6138 51.498 52.0098 51.883C52.8018 52.642 52.9228 53.918 52.9228 55.172ZM51.5258 55.172C51.5258 54.182 51.6468 52.477 50.2278 52.477C48.8088 52.477 48.9298 54.182 48.9298 55.172C48.9298 56.162 48.8088 57.867 50.2278 57.867C51.6468 57.867 51.5258 56.162 51.5258 55.172ZM59.1962 55.172C59.1962 56.426 59.0752 57.702 58.2832 58.461C57.8872 58.846 57.3262 59.143 56.5012 59.143C55.6762 59.143 55.1152 58.846 54.7192 58.461C53.9272 57.702 53.8062 56.426 53.8062 55.172C53.8062 53.918 53.9272 52.642 54.7192 51.883C55.1152 51.498 55.6762 51.212 56.5012 51.212C57.3262 51.212 57.8872 51.498 58.2832 51.883C59.0752 52.642 59.1962 53.918 59.1962 55.172ZM57.7992 55.172C57.7992 54.182 57.9202 52.477 56.5012 52.477C55.0822 52.477 55.2032 54.182 55.2032 55.172C55.2032 56.162 55.0822 57.867 56.5012 57.867C57.9202 57.867 57.7992 56.162 57.7992 55.172Z" fill="#B15300"/>
</g>
<defs>
<clipPath id="clip0_156_1242">
<rect width="64" height="64" fill="white"/>
</clipPath>
</defs>
</svg>
