<svg width="64" height="64" viewBox="0 0 64 64" fill="none" xmlns="http://www.w3.org/2000/svg">
<g clip-path="url(#clip0_156_769)">
<rect width="64" height="64" fill="#149618"/>
<rect width="64" height="64" rx="6" fill="#149618"/>
<path d="M22.4908 34.032C22.4908 37.248 20.5948 39.336 17.3308 39.336C15.7228 39.336 14.5468 38.808 13.7068 37.944C12.6988 36.912 12.2188 35.52 12.2188 33.672H15.2188C15.2188 34.512 15.3148 35.376 15.8428 35.952C16.1788 36.312 16.7068 36.576 17.3308 36.576C18.7228 36.576 19.3948 35.664 19.3948 34.272V21.984H22.4908V34.032ZM36.4398 32.856C36.4398 32.856 36.4158 33.432 36.4158 33.696H28.0638C28.0398 34.656 28.3758 35.568 28.9758 36.144C29.4078 36.552 30.0078 36.912 30.8238 36.912C31.6878 36.912 32.2158 36.744 32.6478 36.312C32.9118 36.048 33.1278 35.712 33.2478 35.256H36.1278C36.0558 36 35.5518 36.984 35.0718 37.56C34.0158 38.808 32.4558 39.312 30.8718 39.312C29.1678 39.312 27.9198 38.712 26.9358 37.776C25.6878 36.576 25.0158 34.824 25.0158 32.784C25.0158 30.792 25.6158 29.016 26.8158 27.792C27.7518 26.832 29.0958 26.208 30.7998 26.208C32.6478 26.208 34.3278 26.952 35.3598 28.512C36.2718 29.88 36.4878 31.296 36.4398 32.856ZM33.4398 31.512C33.4158 30.576 33.1518 29.856 32.6718 29.328C32.2638 28.896 31.6398 28.608 30.7758 28.608C29.8638 28.608 29.1198 28.992 28.6878 29.568C28.2558 30.12 28.0638 30.696 28.0398 31.512H33.4398ZM49.9192 39H47.3272L47.1352 37.632C46.3912 38.784 44.9992 39.288 43.6312 39.288C42.3832 39.288 41.3512 38.856 40.5832 38.232C39.0952 37.008 38.3752 35.136 38.3752 32.784C38.3752 30.336 39.1192 28.44 40.6072 27.216C41.3752 26.592 42.3832 26.208 43.6552 26.208C45.2392 26.208 46.3912 26.736 46.9192 27.384V21.672H49.9192V39ZM47.0632 32.736C47.0632 30.936 46.5832 28.728 44.2312 28.728C43.2952 28.728 42.6472 29.16 42.2152 29.712C41.5912 30.528 41.4232 31.656 41.4232 32.736C41.4232 33.816 41.5912 34.968 42.2152 35.784C42.6472 36.336 43.2952 36.768 44.2312 36.768C46.5832 36.768 47.0632 34.536 47.0632 32.736Z" fill="#CCFFCE"/>
<path d="M9.92635 59H5.04235V57.9L8.02335 54.347C8.28735 54.039 8.41935 53.676 8.41935 53.368C8.41935 52.829 8.07835 52.411 7.45135 52.411C6.80235 52.411 6.42835 52.906 6.42835 53.511H5.02035C5.03135 52.169 5.88935 51.212 7.46235 51.212C8.77135 51.212 9.81635 52.015 9.81635 53.357C9.81635 54.039 9.40935 54.71 8.98035 55.227L6.86835 57.757H9.92635V59ZM16.3098 56.811C16.3098 58.34 15.1438 59.143 13.7028 59.143C12.2948 59.143 11.1508 58.219 11.1068 56.789H12.4818C12.5368 57.537 13.0428 57.933 13.7138 57.933C14.3958 57.933 14.9238 57.515 14.9238 56.789C14.9238 55.997 14.2968 55.634 13.5818 55.634H13.0098V54.435H13.5818C14.3298 54.435 14.7588 54.127 14.7588 53.412C14.7588 52.862 14.3188 52.411 13.7138 52.411C13.0318 52.411 12.5478 52.752 12.5368 53.445H11.1508C11.1728 52.004 12.3168 51.212 13.7138 51.212C15.0998 51.212 16.1558 52.059 16.1558 53.379C16.1558 54.072 15.7488 54.776 15.0558 55.018C15.8478 55.238 16.3098 56.019 16.3098 56.811ZM22.7372 55.172C22.7372 56.426 22.6162 57.702 21.8242 58.461C21.4282 58.846 20.8672 59.143 20.0422 59.143C19.2172 59.143 18.6562 58.846 18.2602 58.461C17.4682 57.702 17.3472 56.426 17.3472 55.172C17.3472 53.918 17.4682 52.642 18.2602 51.883C18.6562 51.498 19.2172 51.212 20.0422 51.212C20.8672 51.212 21.4282 51.498 21.8242 51.883C22.6162 52.642 22.7372 53.918 22.7372 55.172ZM21.3402 55.172C21.3402 54.182 21.4612 52.477 20.0422 52.477C18.6232 52.477 18.7442 54.182 18.7442 55.172C18.7442 56.162 18.6232 57.867 20.0422 57.867C21.4612 57.867 21.3402 56.162 21.3402 55.172ZM28.7467 59H23.8627V57.9L26.8437 54.347C27.1077 54.039 27.2397 53.676 27.2397 53.368C27.2397 52.829 26.8987 52.411 26.2717 52.411C25.6227 52.411 25.2487 52.906 25.2487 53.511H23.8407C23.8517 52.169 24.7097 51.212 26.2827 51.212C27.5917 51.212 28.6367 52.015 28.6367 53.357C28.6367 54.039 28.2297 54.71 27.8007 55.227L25.6887 57.757H28.7467V59ZM35.1301 56.811C35.1301 58.34 33.9641 59.143 32.5231 59.143C31.1151 59.143 29.9711 58.219 29.9271 56.789H31.3021C31.3571 57.537 31.8631 57.933 32.5341 57.933C33.2161 57.933 33.7441 57.515 33.7441 56.789C33.7441 55.997 33.1171 55.634 32.4021 55.634H31.8301V54.435H32.4021C33.1501 54.435 33.5791 54.127 33.5791 53.412C33.5791 52.862 33.1391 52.411 32.5341 52.411C31.8521 52.411 31.3681 52.752 31.3571 53.445H29.9711C29.9931 52.004 31.1371 51.212 32.5341 51.212C33.9201 51.212 34.9761 52.059 34.9761 53.379C34.9761 54.072 34.5691 54.776 33.8761 55.018C34.6681 55.238 35.1301 56.019 35.1301 56.811ZM40.0615 59H38.6865V52.983L37.0035 54.204V52.708L38.8845 51.355H40.0615V59ZM46.434 56.228H42.661V54.996H46.434V56.228ZM52.9228 55.172C52.9228 56.426 52.8018 57.702 52.0098 58.461C51.6138 58.846 51.0528 59.143 50.2278 59.143C49.4028 59.143 48.8418 58.846 48.4458 58.461C47.6538 57.702 47.5328 56.426 47.5328 55.172C47.5328 53.918 47.6538 52.642 48.4458 51.883C48.8418 51.498 49.4028 51.212 50.2278 51.212C51.0528 51.212 51.6138 51.498 52.0098 51.883C52.8018 52.642 52.9228 53.918 52.9228 55.172ZM51.5258 55.172C51.5258 54.182 51.6468 52.477 50.2278 52.477C48.8088 52.477 48.9298 54.182 48.9298 55.172C48.9298 56.162 48.8088 57.867 50.2278 57.867C51.6468 57.867 51.5258 56.162 51.5258 55.172ZM59.1962 55.172C59.1962 56.426 59.0752 57.702 58.2832 58.461C57.8872 58.846 57.3262 59.143 56.5012 59.143C55.6762 59.143 55.1152 58.846 54.7192 58.461C53.9272 57.702 53.8062 56.426 53.8062 55.172C53.8062 53.918 53.9272 52.642 54.7192 51.883C55.1152 51.498 55.6762 51.212 56.5012 51.212C57.3262 51.212 57.8872 51.498 58.2832 51.883C59.0752 52.642 59.1962 53.918 59.1962 55.172ZM57.7992 55.172C57.7992 54.182 57.9202 52.477 56.5012 52.477C55.0822 52.477 55.2032 54.182 55.2032 55.172C55.2032 56.162 55.0822 57.867 56.5012 57.867C57.9202 57.867 57.7992 56.162 57.7992 55.172Z" fill="#CCFFCE"/>
<path d="M10.28 12H8.88L7.7 9.32H6.13V12H4.83V4.91H7.82C9.51 4.91 10.28 5.97 10.28 7.11C10.28 8.06 9.76 8.81 8.98 9.1L10.28 12ZM8.99 7.11C8.99 6.54 8.55 6.04 7.82 6.04H6.12V8.16H7.84C8.57 8.16 8.99 7.78 8.99 7.11ZM16.8918 8.46C16.8918 9.62 16.7618 10.56 15.9918 11.33C15.4518 11.87 14.7118 12.13 13.9518 12.13C13.1918 12.13 12.4518 11.87 11.9118 11.33C11.1418 10.56 11.0118 9.62 11.0118 8.46C11.0118 7.3 11.1418 6.35 11.9118 5.58C12.4518 5.04 13.1918 4.78 13.9518 4.78C14.7118 4.78 15.4518 5.04 15.9918 5.58C16.7618 6.35 16.8918 7.3 16.8918 8.46ZM15.5818 8.46C15.5818 7.81 15.5618 6.93 15.0718 6.42C14.7918 6.12 14.3618 5.95 13.9518 5.95C13.5418 5.95 13.1118 6.12 12.8318 6.42C12.3418 6.93 12.3218 7.81 12.3218 8.46C12.3218 9.11 12.3418 9.98 12.8318 10.49C13.1118 10.79 13.5418 10.96 13.9518 10.96C14.3618 10.96 14.7918 10.79 15.0718 10.49C15.5618 9.98 15.5818 9.11 15.5818 8.46ZM23.3005 9.89C23.3005 10.55 23.0605 11.02 22.7105 11.37C22.1705 11.91 21.3405 12.13 20.4705 12.13C19.7205 12.13 18.9305 11.93 18.3505 11.4C17.9305 11.02 17.6105 10.42 17.6105 9.75H18.9305C18.9305 10.1 19.0905 10.41 19.3005 10.62C19.6005 10.92 20.0805 11 20.4905 11C20.9805 11 21.4505 10.9 21.7205 10.62C21.8805 10.45 22.0005 10.28 22.0005 9.94C22.0005 9.42 21.6005 9.18 21.1605 9.1C20.6805 9.01 20.0605 8.99 19.5905 8.91C18.6105 8.75 17.7905 8.11 17.7905 6.93C17.7905 6.37 18.0405 5.9 18.4105 5.53C18.8805 5.07 19.6605 4.78 20.4905 4.78C21.2505 4.78 21.9905 5.02 22.4705 5.47C22.8905 5.87 23.1805 6.39 23.1905 6.98H21.8705C21.8605 6.73 21.7305 6.46 21.5605 6.28C21.3305 6.04 20.8605 5.9 20.4805 5.9C20.0805 5.9 19.6205 5.99 19.3305 6.29C19.1805 6.45 19.0905 6.63 19.0905 6.89C19.0905 7.35 19.3905 7.59 19.8105 7.66C20.2605 7.73 20.8905 7.78 21.3505 7.84C22.4105 7.99 23.3005 8.68 23.3005 9.89ZM29.9489 12H28.6589V8.91H25.7489V12H24.4589V4.91H25.7489V7.68H28.6589V4.91H29.9489V12ZM37.2773 12H35.9473L32.8773 7.13V12H31.6073V4.91H32.9773L36.0073 9.71V4.91H37.2773V12Z" fill="#CCFFCE"/>
<path d="M54.634 4.5C55.0189 3.83333 55.9811 3.83333 56.366 4.5L59.3971 9.75C59.782 10.4167 59.3009 11.25 58.5311 11.25H52.4689C51.6991 11.25 51.218 10.4167 51.6029 9.75L54.634 4.5Z" fill="#CCFFCE"/>
</g>
<defs>
<clipPath id="clip0_156_769">
<rect width="64" height="64" fill="white"/>
</clipPath>
</defs>
</svg>
