<svg width="64" height="64" viewBox="0 0 64 64" fill="none" xmlns="http://www.w3.org/2000/svg">
<g clip-path="url(#clip0_156_1092)">
<rect width="64" height="64" fill="#621495"/>
<rect width="64" height="64" rx="6" fill="#621495"/>
<path d="M24.9751 39H21.3271L16.7191 30.96L13.7911 34.392V39H10.6951V21.984H13.7911V29.832L20.5831 21.984H24.3511L18.8791 28.416L24.9751 39ZM39.3448 33.936C39.3448 35.52 38.7688 36.648 37.9288 37.488C36.6328 38.784 34.6408 39.312 32.5528 39.312C30.7528 39.312 28.8568 38.832 27.4648 37.56C26.4568 36.648 25.6888 35.208 25.6888 33.6H28.8568C28.8568 34.44 29.2408 35.184 29.7448 35.688C30.4648 36.408 31.6168 36.6 32.6008 36.6C33.7768 36.6 34.9048 36.36 35.5528 35.688C35.9368 35.28 36.2248 34.872 36.2248 34.056C36.2248 32.808 35.2648 32.232 34.2088 32.04C33.0568 31.824 31.5688 31.776 30.4408 31.584C28.0888 31.2 26.1208 29.664 26.1208 26.832C26.1208 25.488 26.7208 24.36 27.6088 23.472C28.7368 22.368 30.6088 21.672 32.6008 21.672C34.4248 21.672 36.2008 22.248 37.3528 23.328C38.3608 24.288 39.0568 25.536 39.0807 26.952H35.9128C35.8888 26.352 35.5768 25.704 35.1688 25.272C34.6168 24.696 33.4888 24.36 32.5768 24.36C31.6168 24.36 30.5128 24.576 29.8168 25.296C29.4568 25.68 29.2408 26.112 29.2408 26.736C29.2408 27.84 29.9608 28.416 30.9688 28.584C32.0488 28.752 33.5608 28.872 34.6648 29.016C37.2088 29.376 39.3448 31.032 39.3448 33.936ZM54.5088 33.936C54.5088 35.52 53.9328 36.648 53.0928 37.488C51.7968 38.784 49.8048 39.312 47.7168 39.312C45.9168 39.312 44.0208 38.832 42.6288 37.56C41.6208 36.648 40.8528 35.208 40.8528 33.6H44.0208C44.0208 34.44 44.4048 35.184 44.9088 35.688C45.6288 36.408 46.7808 36.6 47.7648 36.6C48.9408 36.6 50.0688 36.36 50.7168 35.688C51.1008 35.28 51.3888 34.872 51.3888 34.056C51.3888 32.808 50.4288 32.232 49.3728 32.04C48.2208 31.824 46.7328 31.776 45.6048 31.584C43.2528 31.2 41.2848 29.664 41.2848 26.832C41.2848 25.488 41.8848 24.36 42.7728 23.472C43.9008 22.368 45.7728 21.672 47.7648 21.672C49.5888 21.672 51.3648 22.248 52.5168 23.328C53.5248 24.288 54.2208 25.536 54.2448 26.952H51.0768C51.0528 26.352 50.7408 25.704 50.3328 25.272C49.7808 24.696 48.6528 24.36 47.7408 24.36C46.7808 24.36 45.6768 24.576 44.9808 25.296C44.6208 25.68 44.4048 26.112 44.4048 26.736C44.4048 27.84 45.1248 28.416 46.1328 28.584C47.2128 28.752 48.7248 28.872 49.8288 29.016C52.3728 29.376 54.5088 31.032 54.5088 33.936Z" fill="#EFD8FF"/>
<path d="M9.92635 59H5.04235V57.9L8.02335 54.347C8.28735 54.039 8.41935 53.676 8.41935 53.368C8.41935 52.829 8.07835 52.411 7.45135 52.411C6.80235 52.411 6.42835 52.906 6.42835 53.511H5.02035C5.03135 52.169 5.88935 51.212 7.46235 51.212C8.77135 51.212 9.81635 52.015 9.81635 53.357C9.81635 54.039 9.40935 54.71 8.98035 55.227L6.86835 57.757H9.92635V59ZM14.9678 59H13.5928V52.983L11.9098 54.204V52.708L13.7908 51.355H14.9678V59ZM22.7372 55.172C22.7372 56.426 22.6162 57.702 21.8242 58.461C21.4282 58.846 20.8672 59.143 20.0422 59.143C19.2172 59.143 18.6562 58.846 18.2602 58.461C17.4682 57.702 17.3472 56.426 17.3472 55.172C17.3472 53.918 17.4682 52.642 18.2602 51.883C18.6562 51.498 19.2172 51.212 20.0422 51.212C20.8672 51.212 21.4282 51.498 21.8242 51.883C22.6162 52.642 22.7372 53.918 22.7372 55.172ZM21.3402 55.172C21.3402 54.182 21.4612 52.477 20.0422 52.477C18.6232 52.477 18.7442 54.182 18.7442 55.172C18.7442 56.162 18.6232 57.867 20.0422 57.867C21.4612 57.867 21.3402 56.162 21.3402 55.172ZM29.0107 55.172C29.0107 56.426 28.8897 57.702 28.0977 58.461C27.7017 58.846 27.1407 59.143 26.3157 59.143C25.4907 59.143 24.9297 58.846 24.5337 58.461C23.7417 57.702 23.6207 56.426 23.6207 55.172C23.6207 53.918 23.7417 52.642 24.5337 51.883C24.9297 51.498 25.4907 51.212 26.3157 51.212C27.1407 51.212 27.7017 51.498 28.0977 51.883C28.8897 52.642 29.0107 53.918 29.0107 55.172ZM27.6137 55.172C27.6137 54.182 27.7347 52.477 26.3157 52.477C24.8967 52.477 25.0177 54.182 25.0177 55.172C25.0177 56.162 24.8967 57.867 26.3157 57.867C27.7347 57.867 27.6137 56.162 27.6137 55.172ZM35.3171 56.404C35.3171 58.021 34.3601 59.154 32.6551 59.154C31.1371 59.154 30.0811 58.208 30.0041 56.767H31.3791C31.4121 57.526 31.9401 57.933 32.6661 57.933C33.5901 57.933 33.9201 57.262 33.9201 56.437C33.9201 55.634 33.5461 55.051 32.6661 55.051C32.2151 55.051 31.7641 55.282 31.5221 55.667H30.1691L30.3341 51.355H34.9761V52.587H31.5221L31.4341 54.336C31.7861 54.006 32.2701 53.841 32.9521 53.841C34.4921 53.841 35.3171 54.952 35.3171 56.404ZM41.5905 56.404C41.5905 58.021 40.6335 59.154 38.9285 59.154C37.4105 59.154 36.3545 58.208 36.2775 56.767H37.6525C37.6855 57.526 38.2135 57.933 38.9395 57.933C39.8635 57.933 40.1935 57.262 40.1935 56.437C40.1935 55.634 39.8195 55.051 38.9395 55.051C38.4885 55.051 38.0375 55.282 37.7955 55.667H36.4425L36.6075 51.355H41.2495V52.587H37.7955L37.7075 54.336C38.0595 54.006 38.5435 53.841 39.2255 53.841C40.7655 53.841 41.5905 54.952 41.5905 56.404ZM46.434 56.228H42.661V54.996H46.434V56.228ZM52.9228 55.172C52.9228 56.426 52.8018 57.702 52.0098 58.461C51.6138 58.846 51.0528 59.143 50.2278 59.143C49.4028 59.143 48.8418 58.846 48.4458 58.461C47.6538 57.702 47.5328 56.426 47.5328 55.172C47.5328 53.918 47.6538 52.642 48.4458 51.883C48.8418 51.498 49.4028 51.212 50.2278 51.212C51.0528 51.212 51.6138 51.498 52.0098 51.883C52.8018 52.642 52.9228 53.918 52.9228 55.172ZM51.5258 55.172C51.5258 54.182 51.6468 52.477 50.2278 52.477C48.8088 52.477 48.9298 54.182 48.9298 55.172C48.9298 56.162 48.8088 57.867 50.2278 57.867C51.6468 57.867 51.5258 56.162 51.5258 55.172ZM59.1962 55.172C59.1962 56.426 59.0752 57.702 58.2832 58.461C57.8872 58.846 57.3262 59.143 56.5012 59.143C55.6762 59.143 55.1152 58.846 54.7192 58.461C53.9272 57.702 53.8062 56.426 53.8062 55.172C53.8062 53.918 53.9272 52.642 54.7192 51.883C55.1152 51.498 55.6762 51.212 56.5012 51.212C57.3262 51.212 57.8872 51.498 58.2832 51.883C59.0752 52.642 59.1962 53.918 59.1962 55.172ZM57.7992 55.172C57.7992 54.182 57.9202 52.477 56.5012 52.477C55.0822 52.477 55.2032 54.182 55.2032 55.172C55.2032 56.162 55.0822 57.867 56.5012 57.867C57.9202 57.867 57.7992 56.162 57.7992 55.172Z" fill="#EFD8FF"/>
<path d="M10.41 8.45C10.41 9.43 10.31 10.49 9.58 11.24C9.11 11.73 8.4 12 7.59 12H4.83V4.91H7.59C8.4 4.91 9.11 5.18 9.58 5.67C10.31 6.42 10.41 7.47 10.41 8.45ZM9.1 8.45C9.1 7.8 9.09 6.97 8.59 6.47C8.35 6.23 8 6.07 7.59 6.07H6.12V10.84H7.59C8 10.84 8.35 10.68 8.59 10.44C9.09 9.94 9.1 9.1 9.1 8.45ZM17.0459 12H16.2159L16.0659 11.22C15.8559 11.63 15.1759 12.12 14.2859 12.13C13.4659 12.14 12.7359 11.93 12.1759 11.34C11.4359 10.57 11.2559 9.62 11.2559 8.46C11.2559 7.3 11.4059 6.38 12.1759 5.61C12.7159 5.07 13.5259 4.78 14.2859 4.78C15.1559 4.78 15.9059 5.1 16.3859 5.59C16.7359 5.95 16.9959 6.4 17.0359 7.02H15.7159C15.6959 6.74 15.5559 6.55 15.4059 6.37C15.1559 6.08 14.7659 5.94 14.2759 5.94C13.8659 5.94 13.3959 6.12 13.1159 6.42C12.6259 6.93 12.5659 7.81 12.5659 8.46C12.5659 9.11 12.6359 10.02 13.1259 10.53C13.4059 10.83 13.8659 10.98 14.2759 10.98C14.7359 10.98 15.0959 10.82 15.3359 10.57C15.7159 10.17 15.7959 9.73 15.7959 9.19H14.1059V8.12H17.0459V12ZM23.6719 9.74C23.6119 10.3 23.4019 10.87 22.9919 11.29C22.4619 11.83 21.7219 12.13 20.9619 12.13C20.2019 12.13 19.4919 11.88 18.9519 11.34C18.1819 10.57 18.0719 9.62 18.0719 8.46C18.0719 7.3 18.1819 6.35 18.9519 5.58C19.4919 5.04 20.2019 4.78 20.9619 4.78C21.7219 4.78 22.4619 5.06 22.9919 5.6C23.4019 6.02 23.6119 6.58 23.6719 7.14H22.3519C22.3219 6.83 22.2119 6.61 22.0319 6.39C21.8019 6.1 21.4019 5.95 20.9619 5.95C20.5519 5.95 20.1519 6.12 19.8719 6.42C19.3819 6.93 19.3819 7.81 19.3819 8.46C19.3819 9.11 19.3819 9.99 19.8719 10.5C20.1519 10.8 20.5519 10.97 20.9619 10.97C21.4019 10.97 21.8019 10.81 22.0319 10.52C22.2119 10.3 22.3219 10.05 22.3519 9.74H23.6719ZM29.3612 12H24.7812V4.91H26.0712V10.78H29.3612V12Z" fill="#EFD8FF"/>
<path d="M54.634 4.5C55.0189 3.83333 55.9811 3.83333 56.366 4.5L59.3971 9.75C59.782 10.4167 59.3009 11.25 58.5311 11.25H52.4689C51.6991 11.25 51.218 10.4167 51.6029 9.75L54.634 4.5Z" fill="#EFD8FF"/>
</g>
<defs>
<clipPath id="clip0_156_1092">
<rect width="64" height="64" fill="white"/>
</clipPath>
</defs>
</svg>
