<svg width="64" height="64" viewBox="0 0 64 64" fill="none" xmlns="http://www.w3.org/2000/svg">
<g clip-path="url(#clip0_156_962)">
<rect width="64" height="64" fill="#0000FF"/>
<rect width="64" height="64" rx="6" fill="#0000FF"/>
<path d="M10.41 8.45C10.41 9.43 10.31 10.49 9.58 11.24C9.11 11.73 8.4 12 7.59 12H4.83V4.91H7.59C8.4 4.91 9.11 5.18 9.58 5.67C10.31 6.42 10.41 7.47 10.41 8.45ZM9.1 8.45C9.1 7.8 9.09 6.97 8.59 6.47C8.35 6.23 8 6.07 7.59 6.07H6.12V10.84H7.59C8 10.84 8.35 10.68 8.59 10.44C9.09 9.94 9.1 9.1 9.1 8.45ZM17.0459 12H16.2159L16.0659 11.22C15.8559 11.63 15.1759 12.12 14.2859 12.13C13.4659 12.14 12.7359 11.93 12.1759 11.34C11.4359 10.57 11.2559 9.62 11.2559 8.46C11.2559 7.3 11.4059 6.38 12.1759 5.61C12.7159 5.07 13.5259 4.78 14.2859 4.78C15.1559 4.78 15.9059 5.1 16.3859 5.59C16.7359 5.95 16.9959 6.4 17.0359 7.02H15.7159C15.6959 6.74 15.5559 6.55 15.4059 6.37C15.1559 6.08 14.7659 5.94 14.2759 5.94C13.8659 5.94 13.3959 6.12 13.1159 6.42C12.6259 6.93 12.5659 7.81 12.5659 8.46C12.5659 9.11 12.6359 10.02 13.1259 10.53C13.4059 10.83 13.8659 10.98 14.2759 10.98C14.7359 10.98 15.0959 10.82 15.3359 10.57C15.7159 10.17 15.7959 9.73 15.7959 9.19H14.1059V8.12H17.0459V12ZM23.6719 9.74C23.6119 10.3 23.4019 10.87 22.9919 11.29C22.4619 11.83 21.7219 12.13 20.9619 12.13C20.2019 12.13 19.4919 11.88 18.9519 11.34C18.1819 10.57 18.0719 9.62 18.0719 8.46C18.0719 7.3 18.1819 6.35 18.9519 5.58C19.4919 5.04 20.2019 4.78 20.9619 4.78C21.7219 4.78 22.4619 5.06 22.9919 5.6C23.4019 6.02 23.6119 6.58 23.6719 7.14H22.3519C22.3219 6.83 22.2119 6.61 22.0319 6.39C21.8019 6.1 21.4019 5.95 20.9619 5.95C20.5519 5.95 20.1519 6.12 19.8719 6.42C19.3819 6.93 19.3819 7.81 19.3819 8.46C19.3819 9.11 19.3819 9.99 19.8719 10.5C20.1519 10.8 20.5519 10.97 20.9619 10.97C21.4019 10.97 21.8019 10.81 22.0319 10.52C22.2119 10.3 22.3219 10.05 22.3519 9.74H23.6719ZM29.3612 12H24.7812V4.91H26.0712V10.78H29.3612V12Z" fill="#EEEEFF"/>
<path d="M24.6871 39H13.6951V21.984H16.7911V36.072H24.6871V39ZM37.7624 40.656C37.7624 43.944 34.5224 44.832 31.7384 44.832C30.2264 44.832 28.6184 44.712 27.3224 43.8C26.3624 43.128 25.8104 42.24 25.8104 41.064C25.8104 39.984 26.3384 39 27.2984 38.52C26.5064 38.088 26.0504 37.2 26.0504 36.384C26.0504 35.328 26.5304 34.488 27.5384 33.864C26.7704 33.096 26.2904 32.064 26.2904 30.792C26.2904 27.816 28.5944 26.208 31.4024 26.208C32.4344 26.208 33.4184 26.496 34.2344 26.976C34.7624 25.896 35.7224 25.416 36.7784 25.416C36.9704 25.416 37.4024 25.416 37.5944 25.464V27.792C37.5224 27.792 37.4264 27.768 37.3544 27.768C36.6584 27.768 36.0344 27.96 35.8424 28.56C36.2504 29.232 36.4904 29.976 36.4904 30.816C36.4904 33.672 34.0904 35.352 31.4024 35.352C30.7064 35.352 30.0104 35.232 29.3864 35.016C29.0984 35.184 28.7624 35.496 28.7624 35.904C28.7624 36.648 29.5064 36.816 30.1304 36.816H32.1944C33.4424 36.816 35.0744 36.84 36.2504 37.656C37.3304 38.4 37.7624 39.456 37.7624 40.656ZM33.6104 30.792C33.6104 29.448 32.7704 28.464 31.4024 28.464C30.0344 28.464 29.1944 29.448 29.1944 30.792C29.1944 32.136 30.0344 33.096 31.4024 33.096C32.7704 33.096 33.6104 32.136 33.6104 30.792ZM34.9304 40.728C34.9304 39.192 33.0824 39.192 31.9544 39.192H29.6024C28.9544 39.384 28.4744 39.936 28.4744 40.728C28.4744 42.312 30.4424 42.456 31.6184 42.456C32.8184 42.456 34.9304 42.384 34.9304 40.728ZM50.6212 39H47.6212V31.296C47.6212 29.856 47.1412 28.968 45.5572 28.968C43.7572 28.968 42.9892 30.888 42.9892 32.424V39H39.9892V21.672H42.9892V27.84C43.7092 26.784 45.1012 26.208 46.3972 26.208C49.0612 26.208 50.6212 28.104 50.6212 30.672V39Z" fill="#EEEEFF"/>
<path d="M9.92635 59H5.04235V57.9L8.02335 54.347C8.28735 54.039 8.41935 53.676 8.41935 53.368C8.41935 52.829 8.07835 52.411 7.45135 52.411C6.80235 52.411 6.42835 52.906 6.42835 53.511H5.02035C5.03135 52.169 5.88935 51.212 7.46235 51.212C8.77135 51.212 9.81635 52.015 9.81635 53.357C9.81635 54.039 9.40935 54.71 8.98035 55.227L6.86835 57.757H9.92635V59ZM16.3098 56.811C16.3098 58.34 15.1438 59.143 13.7028 59.143C12.2948 59.143 11.1508 58.219 11.1068 56.789H12.4818C12.5368 57.537 13.0428 57.933 13.7138 57.933C14.3958 57.933 14.9238 57.515 14.9238 56.789C14.9238 55.997 14.2968 55.634 13.5818 55.634H13.0098V54.435H13.5818C14.3298 54.435 14.7588 54.127 14.7588 53.412C14.7588 52.862 14.3188 52.411 13.7138 52.411C13.0318 52.411 12.5478 52.752 12.5368 53.445H11.1508C11.1728 52.004 12.3168 51.212 13.7138 51.212C15.0998 51.212 16.1558 52.059 16.1558 53.379C16.1558 54.072 15.7488 54.776 15.0558 55.018C15.8478 55.238 16.3098 56.019 16.3098 56.811ZM22.7372 55.172C22.7372 56.426 22.6162 57.702 21.8242 58.461C21.4282 58.846 20.8672 59.143 20.0422 59.143C19.2172 59.143 18.6562 58.846 18.2602 58.461C17.4682 57.702 17.3472 56.426 17.3472 55.172C17.3472 53.918 17.4682 52.642 18.2602 51.883C18.6562 51.498 19.2172 51.212 20.0422 51.212C20.8672 51.212 21.4282 51.498 21.8242 51.883C22.6162 52.642 22.7372 53.918 22.7372 55.172ZM21.3402 55.172C21.3402 54.182 21.4612 52.477 20.0422 52.477C18.6232 52.477 18.7442 54.182 18.7442 55.172C18.7442 56.162 18.6232 57.867 20.0422 57.867C21.4612 57.867 21.3402 56.162 21.3402 55.172ZM27.5147 59H26.1397V52.983L24.4567 54.204V52.708L26.3377 51.355H27.5147V59ZM35.2841 55.172C35.2841 56.426 35.1631 57.702 34.3711 58.461C33.9751 58.846 33.4141 59.143 32.5891 59.143C31.7641 59.143 31.2031 58.846 30.8071 58.461C30.0151 57.702 29.8941 56.426 29.8941 55.172C29.8941 53.918 30.0151 52.642 30.8071 51.883C31.2031 51.498 31.7641 51.212 32.5891 51.212C33.4141 51.212 33.9751 51.498 34.3711 51.883C35.1631 52.642 35.2841 53.918 35.2841 55.172ZM33.8871 55.172C33.8871 54.182 34.0081 52.477 32.5891 52.477C31.1701 52.477 31.2911 54.182 31.2911 55.172C31.2911 56.162 31.1701 57.867 32.5891 57.867C34.0081 57.867 33.8871 56.162 33.8871 55.172ZM41.5575 55.172C41.5575 56.426 41.4365 57.702 40.6445 58.461C40.2485 58.846 39.6875 59.143 38.8625 59.143C38.0375 59.143 37.4765 58.846 37.0805 58.461C36.2885 57.702 36.1675 56.426 36.1675 55.172C36.1675 53.918 36.2885 52.642 37.0805 51.883C37.4765 51.498 38.0375 51.212 38.8625 51.212C39.6875 51.212 40.2485 51.498 40.6445 51.883C41.4365 52.642 41.5575 53.918 41.5575 55.172ZM40.1605 55.172C40.1605 54.182 40.2815 52.477 38.8625 52.477C37.4435 52.477 37.5645 54.182 37.5645 55.172C37.5645 56.162 37.4435 57.867 38.8625 57.867C40.2815 57.867 40.1605 56.162 40.1605 55.172ZM46.434 56.228H42.661V54.996H46.434V56.228ZM52.9228 55.172C52.9228 56.426 52.8018 57.702 52.0098 58.461C51.6138 58.846 51.0528 59.143 50.2278 59.143C49.4028 59.143 48.8418 58.846 48.4458 58.461C47.6538 57.702 47.5328 56.426 47.5328 55.172C47.5328 53.918 47.6538 52.642 48.4458 51.883C48.8418 51.498 49.4028 51.212 50.2278 51.212C51.0528 51.212 51.6138 51.498 52.0098 51.883C52.8018 52.642 52.9228 53.918 52.9228 55.172ZM51.5258 55.172C51.5258 54.182 51.6468 52.477 50.2278 52.477C48.8088 52.477 48.9298 54.182 48.9298 55.172C48.9298 56.162 48.8088 57.867 50.2278 57.867C51.6468 57.867 51.5258 56.162 51.5258 55.172ZM59.1962 55.172C59.1962 56.426 59.0752 57.702 58.2832 58.461C57.8872 58.846 57.3262 59.143 56.5012 59.143C55.6762 59.143 55.1152 58.846 54.7192 58.461C53.9272 57.702 53.8062 56.426 53.8062 55.172C53.8062 53.918 53.9272 52.642 54.7192 51.883C55.1152 51.498 55.6762 51.212 56.5012 51.212C57.3262 51.212 57.8872 51.498 58.2832 51.883C59.0752 52.642 59.1962 53.918 59.1962 55.172ZM57.7992 55.172C57.7992 54.182 57.9202 52.477 56.5012 52.477C55.0822 52.477 55.2032 54.182 55.2032 55.172C55.2032 56.162 55.0822 57.867 56.5012 57.867C57.9202 57.867 57.7992 56.162 57.7992 55.172Z" fill="#EEEEFF"/>
<rect x="58.5007" y="3" width="2.1215" height="10.6075" transform="rotate(45 58.5007 3)" fill="#EEEEFF"/>
<rect x="60.0007" y="10.501" width="2.1215" height="10.6075" transform="rotate(135 60.0007 10.501)" fill="#EEEEFF"/>
</g>
<defs>
<clipPath id="clip0_156_962">
<rect width="64" height="64" fill="white"/>
</clipPath>
</defs>
</svg>
