<svg width="64" height="64" viewBox="0 0 64 64" fill="none" xmlns="http://www.w3.org/2000/svg">
<g clip-path="url(#clip0_156_1086)">
<rect width="64" height="64" fill="#621495"/>
<rect width="64" height="64" rx="6" fill="#621495"/>
<path d="M25.0409 39H22.0409V26.856L17.6249 38.76H15.3449L10.9529 26.712V39H7.95294V21.984H12.1289L16.5929 34.104L21.0809 21.984H25.0409V39ZM42.0553 34.056C42.0553 35.568 41.5513 36.936 40.3273 37.872C39.0073 38.88 37.4233 39.024 35.7913 39.024H29.0233V21.984H35.7913C37.1593 21.984 38.5753 22.176 39.7273 22.92C40.9753 23.736 41.6953 25.152 41.6953 26.616C41.6953 28.008 41.0473 29.568 39.6073 30.216C41.2153 30.96 42.0553 32.472 42.0553 34.056ZM38.5513 26.808C38.5513 25.176 37.3033 24.648 35.9113 24.648H32.0953V28.92H35.9833C37.3753 28.92 38.5513 28.416 38.5513 26.808ZM38.9113 33.984C38.9113 32.16 37.6393 31.512 36.0073 31.512H32.0953V36.24H35.9113C37.3513 36.24 38.9113 35.712 38.9113 33.984ZM57.3688 33.576C57.2248 34.92 56.7208 36.288 55.7368 37.296C54.4648 38.592 52.6888 39.312 50.8648 39.312C49.0408 39.312 47.3368 38.712 46.0408 37.416C44.1928 35.568 43.9288 33.288 43.9288 30.504C43.9288 27.72 44.1928 25.44 46.0408 23.592C47.3368 22.296 49.0408 21.672 50.8648 21.672C52.6888 21.672 54.4648 22.344 55.7368 23.64C56.7208 24.648 57.2248 25.992 57.3688 27.336H54.2008C54.1288 26.592 53.8648 26.064 53.4328 25.536C52.8808 24.84 51.9208 24.48 50.8648 24.48C49.8808 24.48 48.9208 24.888 48.2488 25.608C47.0728 26.832 47.0728 28.944 47.0728 30.504C47.0728 32.064 47.0728 34.176 48.2488 35.4C48.9208 36.12 49.8808 36.528 50.8648 36.528C51.9208 36.528 52.8808 36.144 53.4328 35.448C53.8648 34.92 54.1288 34.32 54.2008 33.576H57.3688Z" fill="#EFD8FF"/>
<path d="M9.92635 59H5.04235V57.9L8.02335 54.347C8.28735 54.039 8.41935 53.676 8.41935 53.368C8.41935 52.829 8.07835 52.411 7.45135 52.411C6.80235 52.411 6.42835 52.906 6.42835 53.511H5.02035C5.03135 52.169 5.88935 51.212 7.46235 51.212C8.77135 51.212 9.81635 52.015 9.81635 53.357C9.81635 54.039 9.40935 54.71 8.98035 55.227L6.86835 57.757H9.92635V59ZM16.3098 56.811C16.3098 58.34 15.1438 59.143 13.7028 59.143C12.2948 59.143 11.1508 58.219 11.1068 56.789H12.4818C12.5368 57.537 13.0428 57.933 13.7138 57.933C14.3958 57.933 14.9238 57.515 14.9238 56.789C14.9238 55.997 14.2968 55.634 13.5818 55.634H13.0098V54.435H13.5818C14.3298 54.435 14.7588 54.127 14.7588 53.412C14.7588 52.862 14.3188 52.411 13.7138 52.411C13.0318 52.411 12.5478 52.752 12.5368 53.445H11.1508C11.1728 52.004 12.3168 51.212 13.7138 51.212C15.0998 51.212 16.1558 52.059 16.1558 53.379C16.1558 54.072 15.7488 54.776 15.0558 55.018C15.8478 55.238 16.3098 56.019 16.3098 56.811ZM22.7372 55.172C22.7372 56.426 22.6162 57.702 21.8242 58.461C21.4282 58.846 20.8672 59.143 20.0422 59.143C19.2172 59.143 18.6562 58.846 18.2602 58.461C17.4682 57.702 17.3472 56.426 17.3472 55.172C17.3472 53.918 17.4682 52.642 18.2602 51.883C18.6562 51.498 19.2172 51.212 20.0422 51.212C20.8672 51.212 21.4282 51.498 21.8242 51.883C22.6162 52.642 22.7372 53.918 22.7372 55.172ZM21.3402 55.172C21.3402 54.182 21.4612 52.477 20.0422 52.477C18.6232 52.477 18.7442 54.182 18.7442 55.172C18.7442 56.162 18.6232 57.867 20.0422 57.867C21.4612 57.867 21.3402 56.162 21.3402 55.172ZM27.5147 59H26.1397V52.983L24.4567 54.204V52.708L26.3377 51.355H27.5147V59ZM35.2291 56.855C35.2291 58.34 33.9641 59.154 32.5891 59.154C31.2141 59.154 29.9491 58.34 29.9491 56.855C29.9491 56.096 30.3341 55.37 31.0601 55.029C30.4991 54.721 30.1031 54.028 30.1031 53.379C30.1031 51.938 31.2581 51.212 32.5891 51.212C33.9201 51.212 35.0751 51.938 35.0751 53.379C35.0751 54.028 34.6791 54.721 34.1181 55.029C34.8441 55.37 35.2291 56.096 35.2291 56.855ZM33.6891 53.401C33.6891 52.84 33.3151 52.411 32.5891 52.411C31.8521 52.411 31.4891 52.84 31.4891 53.401C31.4891 53.962 31.8631 54.424 32.5891 54.424C33.3151 54.424 33.6891 53.962 33.6891 53.401ZM33.8431 56.767C33.8431 56.14 33.4031 55.634 32.5891 55.634C31.7751 55.634 31.3351 56.14 31.3351 56.767C31.3351 57.471 31.8411 57.933 32.5891 57.933C33.3371 57.933 33.8431 57.471 33.8431 56.767ZM40.0615 59H38.6865V52.983L37.0035 54.204V52.708L38.8845 51.355H40.0615V59ZM46.434 56.228H42.661V54.996H46.434V56.228ZM52.9228 55.172C52.9228 56.426 52.8018 57.702 52.0098 58.461C51.6138 58.846 51.0528 59.143 50.2278 59.143C49.4028 59.143 48.8418 58.846 48.4458 58.461C47.6538 57.702 47.5328 56.426 47.5328 55.172C47.5328 53.918 47.6538 52.642 48.4458 51.883C48.8418 51.498 49.4028 51.212 50.2278 51.212C51.0528 51.212 51.6138 51.498 52.0098 51.883C52.8018 52.642 52.9228 53.918 52.9228 55.172ZM51.5258 55.172C51.5258 54.182 51.6468 52.477 50.2278 52.477C48.8088 52.477 48.9298 54.182 48.9298 55.172C48.9298 56.162 48.8088 57.867 50.2278 57.867C51.6468 57.867 51.5258 56.162 51.5258 55.172ZM59.1962 55.172C59.1962 56.426 59.0752 57.702 58.2832 58.461C57.8872 58.846 57.3262 59.143 56.5012 59.143C55.6762 59.143 55.1152 58.846 54.7192 58.461C53.9272 57.702 53.8062 56.426 53.8062 55.172C53.8062 53.918 53.9272 52.642 54.7192 51.883C55.1152 51.498 55.6762 51.212 56.5012 51.212C57.3262 51.212 57.8872 51.498 58.2832 51.883C59.0752 52.642 59.1962 53.918 59.1962 55.172ZM57.7992 55.172C57.7992 54.182 57.9202 52.477 56.5012 52.477C55.0822 52.477 55.2032 54.182 55.2032 55.172C55.2032 56.162 55.0822 57.867 56.5012 57.867C57.9202 57.867 57.7992 56.162 57.7992 55.172Z" fill="#EFD8FF"/>
<path d="M11.95 12H10.7V6.94L8.86 11.9H7.91L6.08 6.88V12H4.83V4.91H6.57L8.43 9.96L10.3 4.91H11.95V12ZM19.0393 9.94C19.0393 10.57 18.8293 11.14 18.3193 11.53C17.7693 11.95 17.1093 12.01 16.4293 12.01H13.6093V4.91H16.4293C16.9993 4.91 17.5893 4.99 18.0693 5.3C18.5893 5.64 18.8893 6.23 18.8893 6.84C18.8893 7.42 18.6193 8.07 18.0193 8.34C18.6893 8.65 19.0393 9.28 19.0393 9.94ZM17.5793 6.92C17.5793 6.24 17.0593 6.02 16.4793 6.02H14.8893V7.8H16.5093C17.0893 7.8 17.5793 7.59 17.5793 6.92ZM17.7293 9.91C17.7293 9.15 17.1993 8.88 16.5193 8.88H14.8893V10.85H16.4793C17.0793 10.85 17.7293 10.63 17.7293 9.91ZM25.4199 9.74C25.3599 10.3 25.1499 10.87 24.7399 11.29C24.2099 11.83 23.4699 12.13 22.7099 12.13C21.9499 12.13 21.2399 11.88 20.6999 11.34C19.9299 10.57 19.8199 9.62 19.8199 8.46C19.8199 7.3 19.9299 6.35 20.6999 5.58C21.2399 5.04 21.9499 4.78 22.7099 4.78C23.4699 4.78 24.2099 5.06 24.7399 5.6C25.1499 6.02 25.3599 6.58 25.4199 7.14H24.0999C24.0699 6.83 23.9599 6.61 23.7799 6.39C23.5499 6.1 23.1499 5.95 22.7099 5.95C22.2999 5.95 21.8999 6.12 21.6199 6.42C21.1299 6.93 21.1299 7.81 21.1299 8.46C21.1299 9.11 21.1299 9.99 21.6199 10.5C21.8999 10.8 22.2999 10.97 22.7099 10.97C23.1499 10.97 23.5499 10.81 23.7799 10.52C23.9599 10.3 24.0699 10.05 24.0999 9.74H25.4199Z" fill="#EFD8FF"/>
<path d="M54.634 4.5C55.0189 3.83333 55.9811 3.83333 56.366 4.5L59.3971 9.75C59.782 10.4167 59.3009 11.25 58.5311 11.25H52.4689C51.6991 11.25 51.218 10.4167 51.6029 9.75L54.634 4.5Z" fill="#EFD8FF"/>
</g>
<defs>
<clipPath id="clip0_156_1086">
<rect width="64" height="64" fill="white"/>
</clipPath>
</defs>
</svg>
