<svg width="64" height="64" viewBox="0 0 64 64" fill="none" xmlns="http://www.w3.org/2000/svg">
<g clip-path="url(#clip0_156_833)">
<rect width="64" height="64" fill="#149618"/>
<rect width="64" height="64" rx="6" fill="#149618"/>
<path d="M32.3769 39H29.3769V26.856L24.9609 38.76H22.6809L18.2889 26.712V39H15.2889V21.984H19.4649L23.9289 34.104L28.4169 21.984H32.3769V39ZM39.4072 24.792H36.1912V21.696H39.4072V24.792ZM39.3352 39H36.2872V26.52H39.3352V39ZM50.3784 29.304C50.0424 29.232 49.6824 29.184 49.3464 29.184C47.2344 29.184 46.1304 30.696 46.1304 32.712V39H43.1064V26.52H45.6504L45.9144 28.392C46.4904 26.952 47.9784 26.352 49.4424 26.352C49.7544 26.352 50.0664 26.376 50.3784 26.424V29.304Z" fill="#CCFFCE"/>
<path d="M9.92635 59H5.04235V57.9L8.02335 54.347C8.28735 54.039 8.41935 53.676 8.41935 53.368C8.41935 52.829 8.07835 52.411 7.45135 52.411C6.80235 52.411 6.42835 52.906 6.42835 53.511H5.02035C5.03135 52.169 5.88935 51.212 7.46235 51.212C8.77135 51.212 9.81635 52.015 9.81635 53.357C9.81635 54.039 9.40935 54.71 8.98035 55.227L6.86835 57.757H9.92635V59ZM16.3098 56.811C16.3098 58.34 15.1438 59.143 13.7028 59.143C12.2948 59.143 11.1508 58.219 11.1068 56.789H12.4818C12.5368 57.537 13.0428 57.933 13.7138 57.933C14.3958 57.933 14.9238 57.515 14.9238 56.789C14.9238 55.997 14.2968 55.634 13.5818 55.634H13.0098V54.435H13.5818C14.3298 54.435 14.7588 54.127 14.7588 53.412C14.7588 52.862 14.3188 52.411 13.7138 52.411C13.0318 52.411 12.5478 52.752 12.5368 53.445H11.1508C11.1728 52.004 12.3168 51.212 13.7138 51.212C15.0998 51.212 16.1558 52.059 16.1558 53.379C16.1558 54.072 15.7488 54.776 15.0558 55.018C15.8478 55.238 16.3098 56.019 16.3098 56.811ZM22.7372 55.172C22.7372 56.426 22.6162 57.702 21.8242 58.461C21.4282 58.846 20.8672 59.143 20.0422 59.143C19.2172 59.143 18.6562 58.846 18.2602 58.461C17.4682 57.702 17.3472 56.426 17.3472 55.172C17.3472 53.918 17.4682 52.642 18.2602 51.883C18.6562 51.498 19.2172 51.212 20.0422 51.212C20.8672 51.212 21.4282 51.498 21.8242 51.883C22.6162 52.642 22.7372 53.918 22.7372 55.172ZM21.3402 55.172C21.3402 54.182 21.4612 52.477 20.0422 52.477C18.6232 52.477 18.7442 54.182 18.7442 55.172C18.7442 56.162 18.6232 57.867 20.0422 57.867C21.4612 57.867 21.3402 56.162 21.3402 55.172ZM28.7467 59H23.8627V57.9L26.8437 54.347C27.1077 54.039 27.2397 53.676 27.2397 53.368C27.2397 52.829 26.8987 52.411 26.2717 52.411C25.6227 52.411 25.2487 52.906 25.2487 53.511H23.8407C23.8517 52.169 24.7097 51.212 26.2827 51.212C27.5917 51.212 28.6367 52.015 28.6367 53.357C28.6367 54.039 28.2297 54.71 27.8007 55.227L25.6887 57.757H28.7467V59ZM33.7881 59H32.4131V52.983L30.7301 54.204V52.708L32.6111 51.355H33.7881V59ZM41.5575 55.172C41.5575 56.426 41.4365 57.702 40.6445 58.461C40.2485 58.846 39.6875 59.143 38.8625 59.143C38.0375 59.143 37.4765 58.846 37.0805 58.461C36.2885 57.702 36.1675 56.426 36.1675 55.172C36.1675 53.918 36.2885 52.642 37.0805 51.883C37.4765 51.498 38.0375 51.212 38.8625 51.212C39.6875 51.212 40.2485 51.498 40.6445 51.883C41.4365 52.642 41.5575 53.918 41.5575 55.172ZM40.1605 55.172C40.1605 54.182 40.2815 52.477 38.8625 52.477C37.4435 52.477 37.5645 54.182 37.5645 55.172C37.5645 56.162 37.4435 57.867 38.8625 57.867C40.2815 57.867 40.1605 56.162 40.1605 55.172ZM46.434 56.228H42.661V54.996H46.434V56.228ZM52.9228 55.172C52.9228 56.426 52.8018 57.702 52.0098 58.461C51.6138 58.846 51.0528 59.143 50.2278 59.143C49.4028 59.143 48.8418 58.846 48.4458 58.461C47.6538 57.702 47.5328 56.426 47.5328 55.172C47.5328 53.918 47.6538 52.642 48.4458 51.883C48.8418 51.498 49.4028 51.212 50.2278 51.212C51.0528 51.212 51.6138 51.498 52.0098 51.883C52.8018 52.642 52.9228 53.918 52.9228 55.172ZM51.5258 55.172C51.5258 54.182 51.6468 52.477 50.2278 52.477C48.8088 52.477 48.9298 54.182 48.9298 55.172C48.9298 56.162 48.8088 57.867 50.2278 57.867C51.6468 57.867 51.5258 56.162 51.5258 55.172ZM59.1962 55.172C59.1962 56.426 59.0752 57.702 58.2832 58.461C57.8872 58.846 57.3262 59.143 56.5012 59.143C55.6762 59.143 55.1152 58.846 54.7192 58.461C53.9272 57.702 53.8062 56.426 53.8062 55.172C53.8062 53.918 53.9272 52.642 54.7192 51.883C55.1152 51.498 55.6762 51.212 56.5012 51.212C57.3262 51.212 57.8872 51.498 58.2832 51.883C59.0752 52.642 59.1962 53.918 59.1962 55.172ZM57.7992 55.172C57.7992 54.182 57.9202 52.477 56.5012 52.477C55.0822 52.477 55.2032 54.182 55.2032 55.172C55.2032 56.162 55.0822 57.867 56.5012 57.867C57.9202 57.867 57.7992 56.162 57.7992 55.172Z" fill="#CCFFCE"/>
<path d="M11.95 12H10.7V6.94L8.86 11.9H7.91L6.08 6.88V12H4.83V4.91H6.57L8.43 9.96L10.3 4.91H11.95V12ZM19.1693 12H17.8193L17.3593 10.64H14.5393L14.0793 12H12.7793L15.2693 4.91H16.6793L19.1693 12ZM16.9593 9.48L15.9493 6.49L14.9393 9.48H16.9593ZM23.446 9.93C23.446 11.27 22.656 12.14 21.296 12.14C20.626 12.14 20.136 11.92 19.786 11.56C19.366 11.13 19.166 10.55 19.166 9.78H20.416C20.416 10.13 20.456 10.49 20.676 10.73C20.816 10.88 21.036 10.99 21.296 10.99C21.876 10.99 22.156 10.61 22.156 10.03V4.91H23.446V9.93ZM26.2181 12H24.9081V4.91H26.2181V12ZM33.4569 8.45C33.4569 9.43 33.3569 10.49 32.6269 11.24C32.1569 11.73 31.4469 12 30.6369 12H27.8769V4.91H30.6369C31.4469 4.91 32.1569 5.18 32.6269 5.67C33.3569 6.42 33.4569 7.47 33.4569 8.45ZM32.1469 8.45C32.1469 7.8 32.1369 6.97 31.6369 6.47C31.3969 6.23 31.0469 6.07 30.6369 6.07H29.1669V10.84H30.6369C31.0469 10.84 31.3969 10.68 31.6369 10.44C32.1369 9.94 32.1469 9.1 32.1469 8.45Z" fill="#CCFFCE"/>
<rect x="58.5" y="3" width="2.1215" height="10.6075" transform="rotate(45 58.5 3)" fill="#CCFFCE"/>
<rect x="60" y="10.501" width="2.1215" height="10.6075" transform="rotate(135 60 10.501)" fill="#CCFFCE"/>
</g>
<defs>
<clipPath id="clip0_156_833">
<rect width="64" height="64" fill="white"/>
</clipPath>
</defs>
</svg>
