<svg width="64" height="64" viewBox="0 0 64 64" fill="none" xmlns="http://www.w3.org/2000/svg">
<g clip-path="url(#clip0_156_803)">
<rect width="64" height="64" fill="#149618"/>
<rect width="64" height="64" rx="6" fill="#149618"/>
<path d="M26.0722 39H23.0722V26.856L18.6562 38.76H16.3762L11.9842 26.712V39H8.98419V21.984H13.1602L17.6242 34.104L22.1122 21.984H26.0722V39ZM40.5665 39H37.5665V31.344C37.5665 29.88 37.0865 28.992 35.5025 28.992C34.4465 28.992 33.7505 29.664 33.3425 30.576C32.9105 31.56 32.9345 32.856 32.9345 33.912V39H29.9345V26.52H32.4545L32.6705 28.128C33.4145 26.808 34.9025 26.208 36.3425 26.208C39.0065 26.208 40.5665 28.08 40.5665 30.672V39ZM56.2582 39H42.9382V35.952L52.3222 24.792H43.0822V21.984H56.1382V25.032L46.8262 36.192H56.2582V39Z" fill="#CCFFCE"/>
<path d="M9.92635 59H5.04235V57.9L8.02335 54.347C8.28735 54.039 8.41935 53.676 8.41935 53.368C8.41935 52.829 8.07835 52.411 7.45135 52.411C6.80235 52.411 6.42835 52.906 6.42835 53.511H5.02035C5.03135 52.169 5.88935 51.212 7.46235 51.212C8.77135 51.212 9.81635 52.015 9.81635 53.357C9.81635 54.039 9.40935 54.71 8.98035 55.227L6.86835 57.757H9.92635V59ZM16.1998 59H11.3158V57.9L14.2968 54.347C14.5608 54.039 14.6928 53.676 14.6928 53.368C14.6928 52.829 14.3518 52.411 13.7248 52.411C13.0758 52.411 12.7018 52.906 12.7018 53.511H11.2938C11.3048 52.169 12.1628 51.212 13.7358 51.212C15.0448 51.212 16.0898 52.015 16.0898 53.357C16.0898 54.039 15.6828 54.71 15.2538 55.227L13.1418 57.757H16.1998V59ZM22.7372 55.172C22.7372 56.426 22.6162 57.702 21.8242 58.461C21.4282 58.846 20.8672 59.143 20.0422 59.143C19.2172 59.143 18.6562 58.846 18.2602 58.461C17.4682 57.702 17.3472 56.426 17.3472 55.172C17.3472 53.918 17.4682 52.642 18.2602 51.883C18.6562 51.498 19.2172 51.212 20.0422 51.212C20.8672 51.212 21.4282 51.498 21.8242 51.883C22.6162 52.642 22.7372 53.918 22.7372 55.172ZM21.3402 55.172C21.3402 54.182 21.4612 52.477 20.0422 52.477C18.6232 52.477 18.7442 54.182 18.7442 55.172C18.7442 56.162 18.6232 57.867 20.0422 57.867C21.4612 57.867 21.3402 56.162 21.3402 55.172ZM27.5147 59H26.1397V52.983L24.4567 54.204V52.708L26.3377 51.355H27.5147V59ZM35.1961 55.04C35.1961 56.162 35.1301 57.537 34.3491 58.373C33.9311 58.813 33.3921 59.143 32.4791 59.143C31.6981 59.143 31.1261 58.89 30.7301 58.516C30.3011 58.109 30.0811 57.559 30.0811 57.108H31.4671C31.4891 57.339 31.5881 57.548 31.7311 57.691C31.9071 57.878 32.1711 57.966 32.5451 57.966C32.9081 57.966 33.1171 57.834 33.3041 57.658C33.7221 57.273 33.8321 56.58 33.8321 55.909C33.4911 56.316 32.8421 56.47 32.3801 56.47C30.7301 56.47 29.8611 55.414 29.8611 53.863C29.8611 52.367 30.7521 51.212 32.4901 51.212C33.9421 51.212 34.8441 52.235 35.0751 53.61C35.1631 54.105 35.1961 54.556 35.1961 55.04ZM33.7001 53.918C33.7001 53.082 33.3041 52.433 32.4901 52.433C31.6651 52.433 31.2581 53.027 31.2581 53.918C31.2581 54.71 31.6651 55.348 32.5121 55.348C33.2491 55.348 33.7001 54.721 33.7001 53.918ZM41.5575 55.172C41.5575 56.426 41.4365 57.702 40.6445 58.461C40.2485 58.846 39.6875 59.143 38.8625 59.143C38.0375 59.143 37.4765 58.846 37.0805 58.461C36.2885 57.702 36.1675 56.426 36.1675 55.172C36.1675 53.918 36.2885 52.642 37.0805 51.883C37.4765 51.498 38.0375 51.212 38.8625 51.212C39.6875 51.212 40.2485 51.498 40.6445 51.883C41.4365 52.642 41.5575 53.918 41.5575 55.172ZM40.1605 55.172C40.1605 54.182 40.2815 52.477 38.8625 52.477C37.4435 52.477 37.5645 54.182 37.5645 55.172C37.5645 56.162 37.4435 57.867 38.8625 57.867C40.2815 57.867 40.1605 56.162 40.1605 55.172ZM46.434 56.228H42.661V54.996H46.434V56.228ZM52.9228 55.172C52.9228 56.426 52.8018 57.702 52.0098 58.461C51.6138 58.846 51.0528 59.143 50.2278 59.143C49.4028 59.143 48.8418 58.846 48.4458 58.461C47.6538 57.702 47.5328 56.426 47.5328 55.172C47.5328 53.918 47.6538 52.642 48.4458 51.883C48.8418 51.498 49.4028 51.212 50.2278 51.212C51.0528 51.212 51.6138 51.498 52.0098 51.883C52.8018 52.642 52.9228 53.918 52.9228 55.172ZM51.5258 55.172C51.5258 54.182 51.6468 52.477 50.2278 52.477C48.8088 52.477 48.9298 54.182 48.9298 55.172C48.9298 56.162 48.8088 57.867 50.2278 57.867C51.6468 57.867 51.5258 56.162 51.5258 55.172ZM59.1962 55.172C59.1962 56.426 59.0752 57.702 58.2832 58.461C57.8872 58.846 57.3262 59.143 56.5012 59.143C55.6762 59.143 55.1152 58.846 54.7192 58.461C53.9272 57.702 53.8062 56.426 53.8062 55.172C53.8062 53.918 53.9272 52.642 54.7192 51.883C55.1152 51.498 55.6762 51.212 56.5012 51.212C57.3262 51.212 57.8872 51.498 58.2832 51.883C59.0752 52.642 59.1962 53.918 59.1962 55.172ZM57.7992 55.172C57.7992 54.182 57.9202 52.477 56.5012 52.477C55.0822 52.477 55.2032 54.182 55.2032 55.172C55.2032 56.162 55.0822 57.867 56.5012 57.867C57.9202 57.867 57.7992 56.162 57.7992 55.172Z" fill="#CCFFCE"/>
<path d="M10.39 12H9.04L8.58 10.64H5.76L5.3 12H4L6.49 4.91H7.9L10.39 12ZM8.18 9.48L7.17 6.49L6.16 9.48H8.18ZM15.7967 12H11.2167V4.91H12.5067V10.78H15.7967V12ZM22.2948 8.45C22.2948 9.43 22.1948 10.49 21.4648 11.24C20.9948 11.73 20.2848 12 19.4748 12H16.7148V4.91H19.4748C20.2848 4.91 20.9948 5.18 21.4648 5.67C22.1948 6.42 22.2948 7.47 22.2948 8.45ZM20.9848 8.45C20.9848 7.8 20.9748 6.97 20.4748 6.47C20.2348 6.23 19.8848 6.07 19.4748 6.07H18.0048V10.84H19.4748C19.8848 10.84 20.2348 10.68 20.4748 10.44C20.9748 9.94 20.9848 9.1 20.9848 8.45ZM29.013 12H27.663L27.203 10.64H24.383L23.923 12H22.623L25.113 4.91H26.523L29.013 12ZM26.803 9.48L25.793 6.49L24.783 9.48H26.803ZM35.2898 12H33.8898L32.7098 9.32H31.1398V12H29.8398V4.91H32.8298C34.5198 4.91 35.2898 5.97 35.2898 7.11C35.2898 8.06 34.7698 8.81 33.9898 9.1L35.2898 12ZM33.9998 7.11C33.9998 6.54 33.5598 6.04 32.8298 6.04H31.1298V8.16H32.8498C33.5798 8.16 33.9998 7.78 33.9998 7.11Z" fill="#CCFFCE"/>
<rect x="58.5007" y="3" width="2.1215" height="10.6075" transform="rotate(45 58.5007 3)" fill="#CCFFCE"/>
<rect x="60.0007" y="10.501" width="2.1215" height="10.6075" transform="rotate(135 60.0007 10.501)" fill="#CCFFCE"/>
</g>
<defs>
<clipPath id="clip0_156_803">
<rect width="64" height="64" fill="white"/>
</clipPath>
</defs>
</svg>
