<svg width="64" height="64" viewBox="0 0 64 64" fill="none" xmlns="http://www.w3.org/2000/svg">
<g clip-path="url(#clip0_156_1226)">
<rect width="64" height="64" fill="#F49A27"/>
<path d="M12.55 4.91L11.14 12H9.85L8.37 7.11L6.89 12H5.6L4.17 4.91H5.4L6.39 9.84L7.85 5.02H8.93L10.36 9.84L11.37 4.91H12.55ZM18.9642 12H17.6142L17.1542 10.64H14.3342L13.8742 12H12.5742L15.0642 4.91H16.4742L18.9642 12ZM16.7542 9.48L15.7442 6.49L14.7342 9.48H16.7542ZM24.9021 9.89C24.9021 10.55 24.6621 11.02 24.3121 11.37C23.7721 11.91 22.9421 12.13 22.0721 12.13C21.3221 12.13 20.5321 11.93 19.9521 11.4C19.5321 11.02 19.2121 10.42 19.2121 9.75H20.5321C20.5321 10.1 20.6921 10.41 20.9021 10.62C21.2021 10.92 21.6821 11 22.0921 11C22.5821 11 23.0521 10.9 23.3221 10.62C23.4821 10.45 23.6021 10.28 23.6021 9.94C23.6021 9.42 23.2021 9.18 22.7621 9.1C22.2821 9.01 21.6621 8.99 21.1921 8.91C20.2121 8.75 19.3921 8.11 19.3921 6.93C19.3921 6.37 19.6421 5.9 20.0121 5.53C20.4821 5.07 21.2621 4.78 22.0921 4.78C22.8521 4.78 23.5921 5.02 24.0721 5.47C24.4921 5.87 24.7821 6.39 24.7921 6.98H23.4721C23.4621 6.73 23.3321 6.46 23.1621 6.28C22.9321 6.04 22.4621 5.9 22.0821 5.9C21.6821 5.9 21.2221 5.99 20.9321 6.29C20.7821 6.45 20.6921 6.63 20.6921 6.89C20.6921 7.35 20.9921 7.59 21.4121 7.66C21.8621 7.73 22.4921 7.78 22.9521 7.84C24.0121 7.99 24.9021 8.68 24.9021 9.89ZM30.6405 12H26.0605V4.91H27.3505V10.78H30.6405V12Z" fill="#B15300"/>
<path d="M25.0297 39H21.8377L14.4697 27.312V39H11.4217V21.984H14.7097L21.9817 33.504V21.984H25.0297V39ZM39.7032 32.76C39.7032 34.872 39.1753 36.192 38.2393 37.368C37.3753 38.424 35.7673 39.312 33.8713 39.312C31.9753 39.312 30.3673 38.424 29.5033 37.368C28.5673 36.192 28.0393 34.872 28.0393 32.76C28.0393 30.648 28.5673 29.328 29.5033 28.152C30.3673 27.096 31.9753 26.208 33.8713 26.208C35.7673 26.208 37.3753 27.096 38.2393 28.152C39.1753 29.328 39.7032 30.648 39.7032 32.76ZM36.6553 32.76C36.6553 31.584 36.4873 30.408 35.7673 29.616C35.3593 29.184 34.6873 28.824 33.8713 28.824C33.0553 28.824 32.3833 29.184 31.9753 29.616C31.2553 30.408 31.0873 31.584 31.0873 32.76C31.0873 33.936 31.2553 35.112 31.9753 35.904C32.3833 36.336 33.0553 36.696 33.8713 36.696C34.6873 36.696 35.3593 36.336 35.7673 35.904C36.4873 35.112 36.6553 33.936 36.6553 32.76ZM54.5668 39H51.0868L47.5828 33.552L45.5908 35.712V39H42.5908V21.672H45.5908V31.584L50.3188 26.52H54.0868L49.6228 31.344L54.5668 39Z" fill="#B15300"/>
<path d="M8.69435 59H7.31935V52.983L5.63635 54.204V52.708L7.51735 51.355H8.69435V59ZM16.4088 56.855C16.4088 58.34 15.1438 59.154 13.7688 59.154C12.3938 59.154 11.1288 58.34 11.1288 56.855C11.1288 56.096 11.5138 55.37 12.2398 55.029C11.6788 54.721 11.2828 54.028 11.2828 53.379C11.2828 51.938 12.4378 51.212 13.7688 51.212C15.0998 51.212 16.2548 51.938 16.2548 53.379C16.2548 54.028 15.8588 54.721 15.2978 55.029C16.0238 55.37 16.4088 56.096 16.4088 56.855ZM14.8688 53.401C14.8688 52.84 14.4948 52.411 13.7688 52.411C13.0318 52.411 12.6688 52.84 12.6688 53.401C12.6688 53.962 13.0428 54.424 13.7688 54.424C14.4948 54.424 14.8688 53.962 14.8688 53.401ZM15.0228 56.767C15.0228 56.14 14.5828 55.634 13.7688 55.634C12.9548 55.634 12.5148 56.14 12.5148 56.767C12.5148 57.471 13.0208 57.933 13.7688 57.933C14.5168 57.933 15.0228 57.471 15.0228 56.767ZM22.7372 55.172C22.7372 56.426 22.6162 57.702 21.8242 58.461C21.4282 58.846 20.8672 59.143 20.0422 59.143C19.2172 59.143 18.6562 58.846 18.2602 58.461C17.4682 57.702 17.3472 56.426 17.3472 55.172C17.3472 53.918 17.4682 52.642 18.2602 51.883C18.6562 51.498 19.2172 51.212 20.0422 51.212C20.8672 51.212 21.4282 51.498 21.8242 51.883C22.6162 52.642 22.7372 53.918 22.7372 55.172ZM21.3402 55.172C21.3402 54.182 21.4612 52.477 20.0422 52.477C18.6232 52.477 18.7442 54.182 18.7442 55.172C18.7442 56.162 18.6232 57.867 20.0422 57.867C21.4612 57.867 21.3402 56.162 21.3402 55.172ZM27.5147 59H26.1397V52.983L24.4567 54.204V52.708L26.3377 51.355H27.5147V59ZM35.3171 56.404C35.3171 58.021 34.3601 59.154 32.6551 59.154C31.1371 59.154 30.0811 58.208 30.0041 56.767H31.3791C31.4121 57.526 31.9401 57.933 32.6661 57.933C33.5901 57.933 33.9201 57.262 33.9201 56.437C33.9201 55.634 33.5461 55.051 32.6661 55.051C32.2151 55.051 31.7641 55.282 31.5221 55.667H30.1691L30.3341 51.355H34.9761V52.587H31.5221L31.4341 54.336C31.7861 54.006 32.2701 53.841 32.9521 53.841C34.4921 53.841 35.3171 54.952 35.3171 56.404ZM41.5575 55.172C41.5575 56.426 41.4365 57.702 40.6445 58.461C40.2485 58.846 39.6875 59.143 38.8625 59.143C38.0375 59.143 37.4765 58.846 37.0805 58.461C36.2885 57.702 36.1675 56.426 36.1675 55.172C36.1675 53.918 36.2885 52.642 37.0805 51.883C37.4765 51.498 38.0375 51.212 38.8625 51.212C39.6875 51.212 40.2485 51.498 40.6445 51.883C41.4365 52.642 41.5575 53.918 41.5575 55.172ZM40.1605 55.172C40.1605 54.182 40.2815 52.477 38.8625 52.477C37.4435 52.477 37.5645 54.182 37.5645 55.172C37.5645 56.162 37.4435 57.867 38.8625 57.867C40.2815 57.867 40.1605 56.162 40.1605 55.172ZM46.434 56.228H42.661V54.996H46.434V56.228ZM52.9228 55.172C52.9228 56.426 52.8018 57.702 52.0098 58.461C51.6138 58.846 51.0528 59.143 50.2278 59.143C49.4028 59.143 48.8418 58.846 48.4458 58.461C47.6538 57.702 47.5328 56.426 47.5328 55.172C47.5328 53.918 47.6538 52.642 48.4458 51.883C48.8418 51.498 49.4028 51.212 50.2278 51.212C51.0528 51.212 51.6138 51.498 52.0098 51.883C52.8018 52.642 52.9228 53.918 52.9228 55.172ZM51.5258 55.172C51.5258 54.182 51.6468 52.477 50.2278 52.477C48.8088 52.477 48.9298 54.182 48.9298 55.172C48.9298 56.162 48.8088 57.867 50.2278 57.867C51.6468 57.867 51.5258 56.162 51.5258 55.172ZM59.1962 55.172C59.1962 56.426 59.0752 57.702 58.2832 58.461C57.8872 58.846 57.3262 59.143 56.5012 59.143C55.6762 59.143 55.1152 58.846 54.7192 58.461C53.9272 57.702 53.8062 56.426 53.8062 55.172C53.8062 53.918 53.9272 52.642 54.7192 51.883C55.1152 51.498 55.6762 51.212 56.5012 51.212C57.3262 51.212 57.8872 51.498 58.2832 51.883C59.0752 52.642 59.1962 53.918 59.1962 55.172ZM57.7992 55.172C57.7992 54.182 57.9202 52.477 56.5012 52.477C55.0822 52.477 55.2032 54.182 55.2032 55.172C55.2032 56.162 55.0822 57.867 56.5012 57.867C57.9202 57.867 57.7992 56.162 57.7992 55.172Z" fill="#B15300"/>
<rect x="58.5007" y="4" width="2.1215" height="10.6075" transform="rotate(45 58.5007 4)" fill="#B15300"/>
<rect x="60.0007" y="11.501" width="2.1215" height="10.6075" transform="rotate(135 60.0007 11.501)" fill="#B15300"/>
</g>
<defs>
<clipPath id="clip0_156_1226">
<rect width="64" height="64" fill="white"/>
</clipPath>
</defs>
</svg>
