<svg width="64" height="64" viewBox="0 0 64 64" fill="none" xmlns="http://www.w3.org/2000/svg">
<g clip-path="url(#clip0_156_943)">
<rect width="64" height="64" fill="#0000FF"/>
<rect width="64" height="64" rx="6" fill="#0000FF"/>
<path d="M25.3348 30.504C25.3348 33.288 25.0228 35.544 23.1748 37.392C21.8788 38.688 20.1028 39.312 18.2788 39.312C16.4548 39.312 14.6788 38.688 13.3828 37.392C11.5348 35.544 11.2228 33.288 11.2228 30.504C11.2228 27.72 11.5348 25.44 13.3828 23.592C14.6788 22.296 16.4548 21.672 18.2788 21.672C20.1028 21.672 21.8788 22.296 23.1748 23.592C25.0228 25.44 25.3348 27.72 25.3348 30.504ZM22.1908 30.504C22.1908 28.944 22.1428 26.832 20.9668 25.608C20.2948 24.888 19.2628 24.48 18.2788 24.48C17.2948 24.48 16.2628 24.888 15.5908 25.608C14.4148 26.832 14.3668 28.944 14.3668 30.504C14.3668 32.064 14.4148 34.152 15.5908 35.376C16.2628 36.096 17.2948 36.504 18.2788 36.504C19.2628 36.504 20.2948 36.096 20.9668 35.376C22.1428 34.152 22.1908 32.064 22.1908 30.504ZM40.4518 39H28.3318V21.984H40.4518V24.792H31.4278V28.752H39.3718V31.536H31.4278V36.192H40.4518V39ZM53.7222 26.52L49.4262 32.664L53.6982 39H50.3142L47.5302 34.824L44.7942 39H41.5062L45.8742 32.64L41.4822 26.52H44.9382L47.7222 30.552L50.4342 26.52H53.7222Z" fill="#EEEEFF"/>
<path d="M9.92635 59H5.04235V57.9L8.02335 54.347C8.28735 54.039 8.41935 53.676 8.41935 53.368C8.41935 52.829 8.07835 52.411 7.45135 52.411C6.80235 52.411 6.42835 52.906 6.42835 53.511H5.02035C5.03135 52.169 5.88935 51.212 7.46235 51.212C8.77135 51.212 9.81635 52.015 9.81635 53.357C9.81635 54.039 9.40935 54.71 8.98035 55.227L6.86835 57.757H9.92635V59ZM14.9678 59H13.5928V52.983L11.9098 54.204V52.708L13.7908 51.355H14.9678V59ZM22.7372 55.172C22.7372 56.426 22.6162 57.702 21.8242 58.461C21.4282 58.846 20.8672 59.143 20.0422 59.143C19.2172 59.143 18.6562 58.846 18.2602 58.461C17.4682 57.702 17.3472 56.426 17.3472 55.172C17.3472 53.918 17.4682 52.642 18.2602 51.883C18.6562 51.498 19.2172 51.212 20.0422 51.212C20.8672 51.212 21.4282 51.498 21.8242 51.883C22.6162 52.642 22.7372 53.918 22.7372 55.172ZM21.3402 55.172C21.3402 54.182 21.4612 52.477 20.0422 52.477C18.6232 52.477 18.7442 54.182 18.7442 55.172C18.7442 56.162 18.6232 57.867 20.0422 57.867C21.4612 57.867 21.3402 56.162 21.3402 55.172ZM27.5147 59H26.1397V52.983L24.4567 54.204V52.708L26.3377 51.355H27.5147V59ZM35.5041 57.46H34.5361V59H33.1611V57.46H29.7511V56.162L32.5561 51.355H34.0521L31.2031 56.217H33.1611V54.424H34.5361V56.217H35.5041V57.46ZM40.0615 59H38.6865V52.983L37.0035 54.204V52.708L38.8845 51.355H40.0615V59ZM46.434 56.228H42.661V54.996H46.434V56.228ZM52.9228 55.172C52.9228 56.426 52.8018 57.702 52.0098 58.461C51.6138 58.846 51.0528 59.143 50.2278 59.143C49.4028 59.143 48.8418 58.846 48.4458 58.461C47.6538 57.702 47.5328 56.426 47.5328 55.172C47.5328 53.918 47.6538 52.642 48.4458 51.883C48.8418 51.498 49.4028 51.212 50.2278 51.212C51.0528 51.212 51.6138 51.498 52.0098 51.883C52.8018 52.642 52.9228 53.918 52.9228 55.172ZM51.5258 55.172C51.5258 54.182 51.6468 52.477 50.2278 52.477C48.8088 52.477 48.9298 54.182 48.9298 55.172C48.9298 56.162 48.8088 57.867 50.2278 57.867C51.6468 57.867 51.5258 56.162 51.5258 55.172ZM59.1962 55.172C59.1962 56.426 59.0752 57.702 58.2832 58.461C57.8872 58.846 57.3262 59.143 56.5012 59.143C55.6762 59.143 55.1152 58.846 54.7192 58.461C53.9272 57.702 53.8062 56.426 53.8062 55.172C53.8062 53.918 53.9272 52.642 54.7192 51.883C55.1152 51.498 55.6762 51.212 56.5012 51.212C57.3262 51.212 57.8872 51.498 58.2832 51.883C59.0752 52.642 59.1962 53.918 59.1962 55.172ZM57.7992 55.172C57.7992 54.182 57.9202 52.477 56.5012 52.477C55.0822 52.477 55.2032 54.182 55.2032 55.172C55.2032 56.162 55.0822 57.867 56.5012 57.867C57.9202 57.867 57.7992 56.162 57.7992 55.172Z" fill="#EEEEFF"/>
<path d="M10.41 8.45C10.41 9.43 10.31 10.49 9.58 11.24C9.11 11.73 8.4 12 7.59 12H4.83V4.91H7.59C8.4 4.91 9.11 5.18 9.58 5.67C10.31 6.42 10.41 7.47 10.41 8.45ZM9.1 8.45C9.1 7.8 9.09 6.97 8.59 6.47C8.35 6.23 8 6.07 7.59 6.07H6.12V10.84H7.59C8 10.84 8.35 10.68 8.59 10.44C9.09 9.94 9.1 9.1 9.1 8.45ZM16.5459 12H15.7159L15.5659 11.22C15.3559 11.63 14.6759 12.12 13.7859 12.13C12.9659 12.14 12.2359 11.93 11.6759 11.34C10.9359 10.57 10.7559 9.62 10.7559 8.46C10.7559 7.3 10.9059 6.38 11.6759 5.61C12.2159 5.07 13.0259 4.78 13.7859 4.78C14.6559 4.78 15.4059 5.1 15.8859 5.59C16.2359 5.95 16.4959 6.4 16.5359 7.02H15.2159C15.1959 6.74 15.0559 6.55 14.9059 6.37C14.6559 6.08 14.2659 5.94 13.7759 5.94C13.3659 5.94 12.8959 6.12 12.6159 6.42C12.1259 6.93 12.0659 7.81 12.0659 8.46C12.0659 9.11 12.1359 10.02 12.6259 10.53C12.9059 10.83 13.3659 10.98 13.7759 10.98C14.2359 10.98 14.5959 10.82 14.8359 10.57C15.2159 10.17 15.2959 9.73 15.2959 9.19H13.6059V8.12H16.5459V12ZM22.6719 9.74C22.6119 10.3 22.4019 10.87 21.9919 11.29C21.4619 11.83 20.7219 12.13 19.9619 12.13C19.2019 12.13 18.4919 11.88 17.9519 11.34C17.1819 10.57 17.0719 9.62 17.0719 8.46C17.0719 7.3 17.1819 6.35 17.9519 5.58C18.4919 5.04 19.2019 4.78 19.9619 4.78C20.7219 4.78 21.4619 5.06 21.9919 5.6C22.4019 6.02 22.6119 6.58 22.6719 7.14H21.3519C21.3219 6.83 21.2119 6.61 21.0319 6.39C20.8019 6.1 20.4019 5.95 19.9619 5.95C19.5519 5.95 19.1519 6.12 18.8719 6.42C18.3819 6.93 18.3819 7.81 18.3819 8.46C18.3819 9.11 18.3819 9.99 18.8719 10.5C19.1519 10.8 19.5519 10.97 19.9619 10.97C20.4019 10.97 20.8019 10.81 21.0319 10.52C21.2119 10.3 21.3219 10.05 21.3519 9.74H22.6719ZM27.8612 12H23.2812V4.91H24.5712V10.78H27.8612V12Z" fill="#EEEEFF"/>
<path d="M54.634 4.5C55.0189 3.83333 55.9811 3.83333 56.366 4.5L59.3971 9.75C59.782 10.4167 59.3009 11.25 58.5311 11.25H52.4689C51.6991 11.25 51.218 10.4167 51.6029 9.75L54.634 4.5Z" fill="#EEEEFF"/>
</g>
<defs>
<clipPath id="clip0_156_943">
<rect width="64" height="64" fill="white"/>
</clipPath>
</defs>
</svg>
