<svg width="64" height="64" viewBox="0 0 64 64" fill="none" xmlns="http://www.w3.org/2000/svg">
<g clip-path="url(#clip0_156_1001)">
<rect width="64" height="64" fill="#0000FF"/>
<rect width="64" height="64" rx="6" fill="#0000FF"/>
<path d="M25.2165 39H21.8565L19.0245 32.568H15.2565V39H12.1365V21.984H19.3125C23.3685 21.984 25.2165 24.528 25.2165 27.264C25.2165 29.544 23.9685 31.344 22.0965 32.04L25.2165 39ZM22.1205 27.264C22.1205 25.896 21.0645 24.696 19.3125 24.696H15.2325V29.784H19.3605C21.1125 29.784 22.1205 28.872 22.1205 27.264ZM38.7088 38.856C38.2048 39.072 37.9408 39.192 37.2208 39.192C35.9248 39.192 35.2048 38.376 35.1088 37.44C34.5328 38.448 33.0928 39.312 31.3168 39.312C28.3408 39.312 26.8048 37.44 26.8048 35.4C26.8048 33.024 28.6528 31.656 31.0288 31.488L34.7008 31.224V30.456C34.7008 29.28 34.2928 28.488 32.5888 28.488C31.1968 28.488 30.3808 29.112 30.3088 30.264H27.4048C27.5728 27.456 29.8048 26.208 32.5888 26.208C34.7248 26.208 36.5488 26.88 37.2688 28.752C37.5808 29.544 37.6288 30.432 37.6288 31.272V35.904C37.6288 36.48 37.8208 36.696 38.3248 36.696C38.5168 36.696 38.7088 36.648 38.7088 36.648V38.856ZM34.7008 34.032V33.456L31.5328 33.696C30.6208 33.768 29.7328 34.32 29.7328 35.328C29.7328 36.288 30.5728 36.888 31.5088 36.888C33.3808 36.888 34.7008 35.88 34.7008 34.032ZM51.9934 39H49.4014L49.2094 37.632C48.4654 38.784 47.0734 39.288 45.7054 39.288C44.4574 39.288 43.4254 38.856 42.6574 38.232C41.1694 37.008 40.4494 35.136 40.4494 32.784C40.4494 30.336 41.1934 28.44 42.6814 27.216C43.4494 26.592 44.4574 26.208 45.7294 26.208C47.3134 26.208 48.4654 26.736 48.9934 27.384V21.672H51.9934V39ZM49.1374 32.736C49.1374 30.936 48.6574 28.728 46.3054 28.728C45.3694 28.728 44.7214 29.16 44.2894 29.712C43.6654 30.528 43.4974 31.656 43.4974 32.736C43.4974 33.816 43.6654 34.968 44.2894 35.784C44.7214 36.336 45.3694 36.768 46.3054 36.768C48.6574 36.768 49.1374 34.536 49.1374 32.736Z" fill="#EEEEFF"/>
<path d="M8.69435 59H7.31935V52.983L5.63635 54.204V52.708L7.51735 51.355H8.69435V59ZM16.5188 56.481C16.5188 57.977 15.6278 59.143 13.8898 59.143C12.4378 59.143 11.5358 58.109 11.3048 56.734C11.2168 56.239 11.1838 55.788 11.1838 55.304C11.1838 54.182 11.2498 52.807 12.0308 51.971C12.4488 51.531 12.9878 51.212 13.9008 51.212C14.6818 51.212 15.2538 51.454 15.6498 51.828C16.0788 52.235 16.2988 52.785 16.2988 53.236H14.9128C14.8908 53.005 14.7918 52.796 14.6488 52.653C14.4728 52.466 14.2088 52.378 13.8348 52.378C13.4718 52.378 13.2628 52.51 13.0758 52.686C12.6578 53.071 12.5478 53.764 12.5478 54.435C12.8888 54.028 13.5378 53.874 13.9998 53.874C15.6498 53.874 16.5188 54.93 16.5188 56.481ZM15.1218 56.426C15.1218 55.634 14.7148 54.996 13.8678 54.996C13.1308 54.996 12.6798 55.623 12.6798 56.426C12.6798 57.262 13.0758 57.911 13.8898 57.911C14.7148 57.911 15.1218 57.317 15.1218 56.426ZM22.7372 55.172C22.7372 56.426 22.6162 57.702 21.8242 58.461C21.4282 58.846 20.8672 59.143 20.0422 59.143C19.2172 59.143 18.6562 58.846 18.2602 58.461C17.4682 57.702 17.3472 56.426 17.3472 55.172C17.3472 53.918 17.4682 52.642 18.2602 51.883C18.6562 51.498 19.2172 51.212 20.0422 51.212C20.8672 51.212 21.4282 51.498 21.8242 51.883C22.6162 52.642 22.7372 53.918 22.7372 55.172ZM21.3402 55.172C21.3402 54.182 21.4612 52.477 20.0422 52.477C18.6232 52.477 18.7442 54.182 18.7442 55.172C18.7442 56.162 18.6232 57.867 20.0422 57.867C21.4612 57.867 21.3402 56.162 21.3402 55.172ZM27.5147 59H26.1397V52.983L24.4567 54.204V52.708L26.3377 51.355H27.5147V59ZM35.2841 55.172C35.2841 56.426 35.1631 57.702 34.3711 58.461C33.9751 58.846 33.4141 59.143 32.5891 59.143C31.7641 59.143 31.2031 58.846 30.8071 58.461C30.0151 57.702 29.8941 56.426 29.8941 55.172C29.8941 53.918 30.0151 52.642 30.8071 51.883C31.2031 51.498 31.7641 51.212 32.5891 51.212C33.4141 51.212 33.9751 51.498 34.3711 51.883C35.1631 52.642 35.2841 53.918 35.2841 55.172ZM33.8871 55.172C33.8871 54.182 34.0081 52.477 32.5891 52.477C31.1701 52.477 31.2911 54.182 31.2911 55.172C31.2911 56.162 31.1701 57.867 32.5891 57.867C34.0081 57.867 33.8871 56.162 33.8871 55.172ZM41.5575 55.172C41.5575 56.426 41.4365 57.702 40.6445 58.461C40.2485 58.846 39.6875 59.143 38.8625 59.143C38.0375 59.143 37.4765 58.846 37.0805 58.461C36.2885 57.702 36.1675 56.426 36.1675 55.172C36.1675 53.918 36.2885 52.642 37.0805 51.883C37.4765 51.498 38.0375 51.212 38.8625 51.212C39.6875 51.212 40.2485 51.498 40.6445 51.883C41.4365 52.642 41.5575 53.918 41.5575 55.172ZM40.1605 55.172C40.1605 54.182 40.2815 52.477 38.8625 52.477C37.4435 52.477 37.5645 54.182 37.5645 55.172C37.5645 56.162 37.4435 57.867 38.8625 57.867C40.2815 57.867 40.1605 56.162 40.1605 55.172ZM46.434 56.228H42.661V54.996H46.434V56.228ZM52.9228 55.172C52.9228 56.426 52.8018 57.702 52.0098 58.461C51.6138 58.846 51.0528 59.143 50.2278 59.143C49.4028 59.143 48.8418 58.846 48.4458 58.461C47.6538 57.702 47.5328 56.426 47.5328 55.172C47.5328 53.918 47.6538 52.642 48.4458 51.883C48.8418 51.498 49.4028 51.212 50.2278 51.212C51.0528 51.212 51.6138 51.498 52.0098 51.883C52.8018 52.642 52.9228 53.918 52.9228 55.172ZM51.5258 55.172C51.5258 54.182 51.6468 52.477 50.2278 52.477C48.8088 52.477 48.9298 54.182 48.9298 55.172C48.9298 56.162 48.8088 57.867 50.2278 57.867C51.6468 57.867 51.5258 56.162 51.5258 55.172ZM59.1962 55.172C59.1962 56.426 59.0752 57.702 58.2832 58.461C57.8872 58.846 57.3262 59.143 56.5012 59.143C55.6762 59.143 55.1152 58.846 54.7192 58.461C53.9272 57.702 53.8062 56.426 53.8062 55.172C53.8062 53.918 53.9272 52.642 54.7192 51.883C55.1152 51.498 55.6762 51.212 56.5012 51.212C57.3262 51.212 57.8872 51.498 58.2832 51.883C59.0752 52.642 59.1962 53.918 59.1962 55.172ZM57.7992 55.172C57.7992 54.182 57.9202 52.477 56.5012 52.477C55.0822 52.477 55.2032 54.182 55.2032 55.172C55.2032 56.162 55.0822 57.867 56.5012 57.867C57.9202 57.867 57.7992 56.162 57.7992 55.172Z" fill="#EEEEFF"/>
<path d="M10.39 12H9.04L8.58 10.64H5.76L5.3 12H4L6.49 4.91H7.9L10.39 12ZM8.18 9.48L7.17 6.49L6.16 9.48H8.18ZM15.7967 12H11.2167V4.91H12.5067V10.78H15.7967V12ZM24.0007 12H22.6007L21.4207 9.32H19.8507V12H18.5507V4.91H21.5407C23.2307 4.91 24.0007 5.97 24.0007 7.11C24.0007 8.06 23.4807 8.81 22.7007 9.1L24.0007 12ZM22.7107 7.11C22.7107 6.54 22.2707 6.04 21.5407 6.04H19.8407V8.16H21.5607C22.2907 8.16 22.7107 7.78 22.7107 7.11ZM30.1925 12H25.1425V4.91H30.1925V6.08H26.4325V7.73H29.7425V8.89H26.4325V10.83H30.1925V12ZM36.4718 12H31.4218V4.91H36.4718V6.08H32.7118V7.73H36.0218V8.89H32.7118V10.83H36.4718V12ZM44.8211 12H43.5711V6.94L41.7311 11.9H40.7811L38.9511 6.88V12H37.7011V4.91H39.4411L41.3011 9.96L43.1711 4.91H44.8211V12Z" fill="#EEEEFF"/>
<rect x="58.5007" y="3" width="2.1215" height="10.6075" transform="rotate(45 58.5007 3)" fill="#EEEEFF"/>
<rect x="60.0007" y="10.501" width="2.1215" height="10.6075" transform="rotate(135 60.0007 10.501)" fill="#EEEEFF"/>
</g>
<defs>
<clipPath id="clip0_156_1001">
<rect width="64" height="64" fill="white"/>
</clipPath>
</defs>
</svg>
