<svg width="64" height="64" viewBox="0 0 64 64" fill="none" xmlns="http://www.w3.org/2000/svg">
<g clip-path="url(#clip0_156_907)">
<rect width="64" height="64" fill="#0000FF"/>
<rect width="64" height="64" rx="6" fill="#0000FF"/>
<path d="M25.3923 39H22.0323L19.2003 32.568H15.4323V39H12.3123V21.984H19.4883C23.5443 21.984 25.3923 24.528 25.3923 27.264C25.3923 29.544 24.1443 31.344 22.2723 32.04L25.3923 39ZM22.2963 27.264C22.2963 25.896 21.2403 24.696 19.4883 24.696H15.4083V29.784H19.5363C21.2883 29.784 22.2963 28.872 22.2963 27.264ZM38.3383 32.856C38.3383 32.856 38.3143 33.432 38.3143 33.696H29.9623C29.9383 34.656 30.2743 35.568 30.8743 36.144C31.3063 36.552 31.9062 36.912 32.7223 36.912C33.5863 36.912 34.1143 36.744 34.5463 36.312C34.8103 36.048 35.0263 35.712 35.1463 35.256H38.0262C37.9543 36 37.4503 36.984 36.9703 37.56C35.9143 38.808 34.3543 39.312 32.7703 39.312C31.0663 39.312 29.8183 38.712 28.8343 37.776C27.5863 36.576 26.9143 34.824 26.9143 32.784C26.9143 30.792 27.5143 29.016 28.7143 27.792C29.6503 26.832 30.9943 26.208 32.6983 26.208C34.5463 26.208 36.2263 26.952 37.2583 28.512C38.1703 29.88 38.3863 31.296 38.3383 32.856ZM35.3383 31.512C35.3143 30.576 35.0503 29.856 34.5703 29.328C34.1623 28.896 33.5383 28.608 32.6743 28.608C31.7623 28.608 31.0183 28.992 30.5863 29.568C30.1543 30.12 29.9623 30.696 29.9383 31.512H35.3383ZM51.8176 39H49.2256L49.0336 37.632C48.2896 38.784 46.8976 39.288 45.5296 39.288C44.2816 39.288 43.2496 38.856 42.4816 38.232C40.9936 37.008 40.2736 35.136 40.2736 32.784C40.2736 30.336 41.0176 28.44 42.5056 27.216C43.2736 26.592 44.2816 26.208 45.5536 26.208C47.1376 26.208 48.2896 26.736 48.8176 27.384V21.672H51.8176V39ZM48.9616 32.736C48.9616 30.936 48.4816 28.728 46.1296 28.728C45.1936 28.728 44.5456 29.16 44.1136 29.712C43.4896 30.528 43.3216 31.656 43.3216 32.736C43.3216 33.816 43.4896 34.968 44.1136 35.784C44.5456 36.336 45.1936 36.768 46.1296 36.768C48.4816 36.768 48.9616 34.536 48.9616 32.736Z" fill="#EEEEFF"/>
<path d="M9.92635 59H5.04235V57.9L8.02335 54.347C8.28735 54.039 8.41935 53.676 8.41935 53.368C8.41935 52.829 8.07835 52.411 7.45135 52.411C6.80235 52.411 6.42835 52.906 6.42835 53.511H5.02035C5.03135 52.169 5.88935 51.212 7.46235 51.212C8.77135 51.212 9.81635 52.015 9.81635 53.357C9.81635 54.039 9.40935 54.71 8.98035 55.227L6.86835 57.757H9.92635V59ZM14.9678 59H13.5928V52.983L11.9098 54.204V52.708L13.7908 51.355H14.9678V59ZM22.7372 55.172C22.7372 56.426 22.6162 57.702 21.8242 58.461C21.4282 58.846 20.8672 59.143 20.0422 59.143C19.2172 59.143 18.6562 58.846 18.2602 58.461C17.4682 57.702 17.3472 56.426 17.3472 55.172C17.3472 53.918 17.4682 52.642 18.2602 51.883C18.6562 51.498 19.2172 51.212 20.0422 51.212C20.8672 51.212 21.4282 51.498 21.8242 51.883C22.6162 52.642 22.7372 53.918 22.7372 55.172ZM21.3402 55.172C21.3402 54.182 21.4612 52.477 20.0422 52.477C18.6232 52.477 18.7442 54.182 18.7442 55.172C18.7442 56.162 18.6232 57.867 20.0422 57.867C21.4612 57.867 21.3402 56.162 21.3402 55.172ZM27.5147 59H26.1397V52.983L24.4567 54.204V52.708L26.3377 51.355H27.5147V59ZM35.0201 59H30.1361V57.9L33.1171 54.347C33.3811 54.039 33.5131 53.676 33.5131 53.368C33.5131 52.829 33.1721 52.411 32.5451 52.411C31.8961 52.411 31.5221 52.906 31.5221 53.511H30.1141C30.1251 52.169 30.9831 51.212 32.5561 51.212C33.8651 51.212 34.9101 52.015 34.9101 53.357C34.9101 54.039 34.5031 54.71 34.0741 55.227L31.9621 57.757H35.0201V59ZM41.2935 59H36.4095V57.9L39.3905 54.347C39.6545 54.039 39.7865 53.676 39.7865 53.368C39.7865 52.829 39.4455 52.411 38.8185 52.411C38.1695 52.411 37.7955 52.906 37.7955 53.511H36.3875C36.3985 52.169 37.2565 51.212 38.8295 51.212C40.1385 51.212 41.1835 52.015 41.1835 53.357C41.1835 54.039 40.7765 54.71 40.3475 55.227L38.2355 57.757H41.2935V59ZM46.434 56.228H42.661V54.996H46.434V56.228ZM52.9228 55.172C52.9228 56.426 52.8018 57.702 52.0098 58.461C51.6138 58.846 51.0528 59.143 50.2278 59.143C49.4028 59.143 48.8418 58.846 48.4458 58.461C47.6538 57.702 47.5328 56.426 47.5328 55.172C47.5328 53.918 47.6538 52.642 48.4458 51.883C48.8418 51.498 49.4028 51.212 50.2278 51.212C51.0528 51.212 51.6138 51.498 52.0098 51.883C52.8018 52.642 52.9228 53.918 52.9228 55.172ZM51.5258 55.172C51.5258 54.182 51.6468 52.477 50.2278 52.477C48.8088 52.477 48.9298 54.182 48.9298 55.172C48.9298 56.162 48.8088 57.867 50.2278 57.867C51.6468 57.867 51.5258 56.162 51.5258 55.172ZM59.1962 55.172C59.1962 56.426 59.0752 57.702 58.2832 58.461C57.8872 58.846 57.3262 59.143 56.5012 59.143C55.6762 59.143 55.1152 58.846 54.7192 58.461C53.9272 57.702 53.8062 56.426 53.8062 55.172C53.8062 53.918 53.9272 52.642 54.7192 51.883C55.1152 51.498 55.6762 51.212 56.5012 51.212C57.3262 51.212 57.8872 51.498 58.2832 51.883C59.0752 52.642 59.1962 53.918 59.1962 55.172ZM57.7992 55.172C57.7992 54.182 57.9202 52.477 56.5012 52.477C55.0822 52.477 55.2032 54.182 55.2032 55.172C55.2032 56.162 55.0822 57.867 56.5012 57.867C57.9202 57.867 57.7992 56.162 57.7992 55.172Z" fill="#EEEEFF"/>
<path d="M10.26 9.94C10.26 10.57 10.05 11.14 9.54 11.53C8.99 11.95 8.33 12.01 7.65 12.01H4.83V4.91H7.65C8.22 4.91 8.81 4.99 9.29 5.3C9.81 5.64 10.11 6.23 10.11 6.84C10.11 7.42 9.84 8.07 9.24 8.34C9.91 8.65 10.26 9.28 10.26 9.94ZM8.8 6.92C8.8 6.24 8.28 6.02 7.7 6.02H6.11V7.8H7.73C8.31 7.8 8.8 7.59 8.8 6.92ZM8.95 9.91C8.95 9.15 8.42 8.88 7.74 8.88H6.11V10.85H7.7C8.3 10.85 8.95 10.63 8.95 9.91ZM16.4406 8.46C16.4406 9.62 16.3106 10.56 15.5406 11.33C15.0006 11.87 14.2606 12.13 13.5006 12.13C12.7406 12.13 12.0006 11.87 11.4606 11.33C10.6906 10.56 10.5606 9.62 10.5606 8.46C10.5606 7.3 10.6906 6.35 11.4606 5.58C12.0006 5.04 12.7406 4.78 13.5006 4.78C14.2606 4.78 15.0006 5.04 15.5406 5.58C16.3106 6.35 16.4406 7.3 16.4406 8.46ZM15.1306 8.46C15.1306 7.81 15.1106 6.93 14.6206 6.42C14.3406 6.12 13.9106 5.95 13.5006 5.95C13.0906 5.95 12.6606 6.12 12.3806 6.42C11.8906 6.93 11.8706 7.81 11.8706 8.46C11.8706 9.11 11.8906 9.98 12.3806 10.49C12.6606 10.79 13.0906 10.96 13.5006 10.96C13.9106 10.96 14.3406 10.79 14.6206 10.49C15.1106 9.98 15.1306 9.11 15.1306 8.46ZM22.5494 9.28C22.5494 10.97 21.5994 12.13 19.7694 12.13C17.9394 12.13 16.9894 10.97 16.9894 9.28V4.91H18.2794V9.26C18.2794 10.27 18.7394 10.96 19.7694 10.96C20.7994 10.96 21.2594 10.27 21.2594 9.26V4.91H22.5494V9.28ZM28.2258 6.11H26.1258V12H24.8358V6.11H22.7358V4.91H28.2258V6.11ZM29.9213 12H28.6113V4.91H29.9213V12ZM36.55 8.46C36.55 9.62 36.42 10.55 35.66 11.32L36.28 12.1L35.51 12.7L34.85 11.88C34.46 12.05 34.04 12.13 33.61 12.13C32.85 12.13 32.11 11.87 31.57 11.33C30.8 10.56 30.67 9.62 30.67 8.46C30.67 7.3 30.8 6.35 31.57 5.58C32.11 5.04 32.85 4.78 33.61 4.78C34.37 4.78 35.11 5.04 35.65 5.58C36.42 6.35 36.55 7.3 36.55 8.46ZM35.24 8.46C35.24 7.81 35.22 6.93 34.73 6.42C34.45 6.12 34.02 5.95 33.61 5.95C33.2 5.95 32.77 6.12 32.49 6.42C32 6.93 31.98 7.81 31.98 8.46C31.98 9.11 32 9.98 32.49 10.49C32.77 10.79 33.2 10.96 33.61 10.96C33.76 10.96 33.92 10.94 34.07 10.89L33.31 9.94L34.09 9.33L34.87 10.32C35.22 9.8 35.24 9.04 35.24 8.46ZM42.6588 9.28C42.6588 10.97 41.7088 12.13 39.8788 12.13C38.0488 12.13 37.0988 10.97 37.0988 9.28V4.91H38.3888V9.26C38.3888 10.27 38.8488 10.96 39.8788 10.96C40.9088 10.96 41.3688 10.27 41.3688 9.26V4.91H42.6588V9.28ZM48.6652 12H43.6152V4.91H48.6652V6.08H44.9052V7.73H48.2152V8.89H44.9052V10.83H48.6652V12Z" fill="#EEEEFF"/>
<path d="M54.634 4.5C55.0189 3.83333 55.9811 3.83333 56.366 4.5L59.3971 9.75C59.782 10.4167 59.3009 11.25 58.5311 11.25H52.4689C51.6991 11.25 51.218 10.4167 51.6029 9.75L54.634 4.5Z" fill="#EEEEFF"/>
</g>
<defs>
<clipPath id="clip0_156_907">
<rect width="64" height="64" fill="white"/>
</clipPath>
</defs>
</svg>
