<svg width="64" height="64" viewBox="0 0 64 64" fill="none" xmlns="http://www.w3.org/2000/svg">
<g clip-path="url(#clip0_172_1613)">
<rect width="64" height="64" fill="#F49A27"/>
<path d="M9.88 12H4.83V4.91H9.88V6.08H6.12V7.73H9.43V8.89H6.12V10.83H9.88V12ZM17.3193 12.01H15.7993L15.2993 11.45C14.7293 11.95 14.0193 12.19 13.2893 12.19C12.0293 12.19 10.9393 11.37 10.9393 10.04C10.9393 9.16 11.4493 8.55 12.1993 8.09C11.7493 7.6 11.4393 7.21 11.4393 6.55C11.4393 5.43 12.3093 4.76 13.3793 4.76C14.4093 4.76 15.3393 5.4 15.3393 6.51C15.3393 7.43 14.7793 7.96 13.9993 8.41L15.2293 9.75C15.3493 9.53 15.3893 9.21 15.4093 8.88C15.4293 8.56 15.4293 8.23 15.4293 8.01H17.2593V9H16.4393C16.4093 9.55 16.3093 10.12 16.0093 10.59C16.4593 11.07 16.8793 11.54 17.3193 12.01ZM14.1693 6.56C14.1693 6.07 13.8293 5.79 13.3793 5.79C12.9693 5.79 12.5893 6.04 12.5893 6.53C12.5893 6.99 12.9693 7.32 13.2593 7.62C13.6993 7.38 14.1693 7.15 14.1693 6.56ZM14.5493 10.66C13.9993 10.06 13.4793 9.47 12.9293 8.87C12.4593 9.15 12.0893 9.39 12.0893 9.99C12.0893 10.72 12.6893 11.1 13.3593 11.1C13.7793 11.1 14.2393 11 14.5493 10.66ZM26.2512 4.91L24.8412 12H23.5512L22.0712 7.11L20.5912 12H19.3012L17.8712 4.91H19.1012L20.0912 9.84L21.5512 5.02H22.6312L24.0612 9.84L25.0712 4.91H26.2512ZM34.1017 9.39C34.1017 10.41 33.7917 11.2 33.1717 11.71C32.8517 11.97 32.4317 12.13 31.9017 12.13C31.2817 12.13 30.7817 11.91 30.5417 11.62V13.99H29.2917V6.8H30.3717L30.4517 7.37C30.7617 6.89 31.3417 6.68 31.9117 6.68C32.4317 6.68 32.8517 6.86 33.1717 7.12C33.7917 7.63 34.1017 8.41 34.1017 9.39ZM32.8317 9.41C32.8317 8.96 32.7617 8.48 32.5017 8.14C32.3217 7.91 32.0517 7.73 31.6617 7.73C30.6817 7.73 30.4817 8.66 30.4817 9.41C30.4817 10.16 30.6817 11.08 31.6617 11.08C32.0517 11.08 32.3217 10.9 32.5017 10.67C32.7617 10.33 32.8317 9.86 32.8317 9.41ZM38.3276 7.96C38.1876 7.93 38.0376 7.91 37.8976 7.91C37.0176 7.91 36.5576 8.54 36.5576 9.38V12H35.2976V6.8H36.3576L36.4676 7.58C36.7076 6.98 37.3276 6.73 37.9376 6.73C38.0676 6.73 38.1976 6.74 38.3276 6.76V7.96ZM39.7356 12H38.2156V10.44H39.7356V12Z" fill="#B15300"/>
<rect x="58.5007" y="4" width="2.1215" height="10.6075" transform="rotate(45 58.5007 4)" fill="#B15300"/>
<rect x="60.0007" y="11.501" width="2.1215" height="10.6075" transform="rotate(135 60.0007 11.501)" fill="#B15300"/>
<path d="M29.5408 39H26.1808L23.3488 32.568H19.5808V39H16.4608V21.984H23.6368C27.6927 21.984 29.5408 24.528 29.5408 27.264C29.5408 29.544 28.2928 31.344 26.4208 32.04L29.5408 39ZM26.4448 27.264C26.4448 25.896 25.3888 24.696 23.6368 24.696H19.5568V29.784H23.6848C25.4368 29.784 26.4448 28.872 26.4448 27.264ZM35.3291 24.792H32.1131V21.696H35.3291V24.792ZM35.2571 39H32.2091V26.52H35.2571V39ZM49.4683 26.52L45.1723 32.664L49.4443 39H46.0603L43.2763 34.824L40.5403 39H37.2523L41.6203 32.64L37.2283 26.52H40.6842L43.4683 30.552L46.1803 26.52H49.4683Z" fill="#B15300"/>
<path d="M9.92635 59H5.04235V57.9L8.02335 54.347C8.28735 54.039 8.41935 53.676 8.41935 53.368C8.41935 52.829 8.07835 52.411 7.45135 52.411C6.80235 52.411 6.42835 52.906 6.42835 53.511H5.02035C5.03135 52.169 5.88935 51.212 7.46235 51.212C8.77135 51.212 9.81635 52.015 9.81635 53.357C9.81635 54.039 9.40935 54.71 8.98035 55.227L6.86835 57.757H9.92635V59ZM16.3098 56.811C16.3098 58.34 15.1438 59.143 13.7028 59.143C12.2948 59.143 11.1508 58.219 11.1068 56.789H12.4818C12.5368 57.537 13.0428 57.933 13.7138 57.933C14.3958 57.933 14.9238 57.515 14.9238 56.789C14.9238 55.997 14.2968 55.634 13.5818 55.634H13.0098V54.435H13.5818C14.3298 54.435 14.7588 54.127 14.7588 53.412C14.7588 52.862 14.3188 52.411 13.7138 52.411C13.0318 52.411 12.5478 52.752 12.5368 53.445H11.1508C11.1728 52.004 12.3168 51.212 13.7138 51.212C15.0998 51.212 16.1558 52.059 16.1558 53.379C16.1558 54.072 15.7488 54.776 15.0558 55.018C15.8478 55.238 16.3098 56.019 16.3098 56.811ZM22.7372 55.172C22.7372 56.426 22.6162 57.702 21.8242 58.461C21.4282 58.846 20.8672 59.143 20.0422 59.143C19.2172 59.143 18.6562 58.846 18.2602 58.461C17.4682 57.702 17.3472 56.426 17.3472 55.172C17.3472 53.918 17.4682 52.642 18.2602 51.883C18.6562 51.498 19.2172 51.212 20.0422 51.212C20.8672 51.212 21.4282 51.498 21.8242 51.883C22.6162 52.642 22.7372 53.918 22.7372 55.172ZM21.3402 55.172C21.3402 54.182 21.4612 52.477 20.0422 52.477C18.6232 52.477 18.7442 54.182 18.7442 55.172C18.7442 56.162 18.6232 57.867 20.0422 57.867C21.4612 57.867 21.3402 56.162 21.3402 55.172ZM29.0107 55.172C29.0107 56.426 28.8897 57.702 28.0977 58.461C27.7017 58.846 27.1407 59.143 26.3157 59.143C25.4907 59.143 24.9297 58.846 24.5337 58.461C23.7417 57.702 23.6207 56.426 23.6207 55.172C23.6207 53.918 23.7417 52.642 24.5337 51.883C24.9297 51.498 25.4907 51.212 26.3157 51.212C27.1407 51.212 27.7017 51.498 28.0977 51.883C28.8897 52.642 29.0107 53.918 29.0107 55.172ZM27.6137 55.172C27.6137 54.182 27.7347 52.477 26.3157 52.477C24.8967 52.477 25.0177 54.182 25.0177 55.172C25.0177 56.162 24.8967 57.867 26.3157 57.867C27.7347 57.867 27.6137 56.162 27.6137 55.172ZM35.1961 55.04C35.1961 56.162 35.1301 57.537 34.3491 58.373C33.9311 58.813 33.3921 59.143 32.4791 59.143C31.6981 59.143 31.1261 58.89 30.7301 58.516C30.3011 58.109 30.0811 57.559 30.0811 57.108H31.4671C31.4891 57.339 31.5881 57.548 31.7311 57.691C31.9071 57.878 32.1711 57.966 32.5451 57.966C32.9081 57.966 33.1171 57.834 33.3041 57.658C33.7221 57.273 33.8321 56.58 33.8321 55.909C33.4911 56.316 32.8421 56.47 32.3801 56.47C30.7301 56.47 29.8611 55.414 29.8611 53.863C29.8611 52.367 30.7521 51.212 32.4901 51.212C33.9421 51.212 34.8441 52.235 35.0751 53.61C35.1631 54.105 35.1961 54.556 35.1961 55.04ZM33.7001 53.918C33.7001 53.082 33.3041 52.433 32.4901 52.433C31.6651 52.433 31.2581 53.027 31.2581 53.918C31.2581 54.71 31.6651 55.348 32.5121 55.348C33.2491 55.348 33.7001 54.721 33.7001 53.918ZM41.5575 55.172C41.5575 56.426 41.4365 57.702 40.6445 58.461C40.2485 58.846 39.6875 59.143 38.8625 59.143C38.0375 59.143 37.4765 58.846 37.0805 58.461C36.2885 57.702 36.1675 56.426 36.1675 55.172C36.1675 53.918 36.2885 52.642 37.0805 51.883C37.4765 51.498 38.0375 51.212 38.8625 51.212C39.6875 51.212 40.2485 51.498 40.6445 51.883C41.4365 52.642 41.5575 53.918 41.5575 55.172ZM40.1605 55.172C40.1605 54.182 40.2815 52.477 38.8625 52.477C37.4435 52.477 37.5645 54.182 37.5645 55.172C37.5645 56.162 37.4435 57.867 38.8625 57.867C40.2815 57.867 40.1605 56.162 40.1605 55.172ZM46.434 56.228H42.661V54.996H46.434V56.228ZM52.9228 55.172C52.9228 56.426 52.8018 57.702 52.0098 58.461C51.6138 58.846 51.0528 59.143 50.2278 59.143C49.4028 59.143 48.8418 58.846 48.4458 58.461C47.6538 57.702 47.5328 56.426 47.5328 55.172C47.5328 53.918 47.6538 52.642 48.4458 51.883C48.8418 51.498 49.4028 51.212 50.2278 51.212C51.0528 51.212 51.6138 51.498 52.0098 51.883C52.8018 52.642 52.9228 53.918 52.9228 55.172ZM51.5258 55.172C51.5258 54.182 51.6468 52.477 50.2278 52.477C48.8088 52.477 48.9298 54.182 48.9298 55.172C48.9298 56.162 48.8088 57.867 50.2278 57.867C51.6468 57.867 51.5258 56.162 51.5258 55.172ZM59.1962 55.172C59.1962 56.426 59.0752 57.702 58.2832 58.461C57.8872 58.846 57.3262 59.143 56.5012 59.143C55.6762 59.143 55.1152 58.846 54.7192 58.461C53.9272 57.702 53.8062 56.426 53.8062 55.172C53.8062 53.918 53.9272 52.642 54.7192 51.883C55.1152 51.498 55.6762 51.212 56.5012 51.212C57.3262 51.212 57.8872 51.498 58.2832 51.883C59.0752 52.642 59.1962 53.918 59.1962 55.172ZM57.7992 55.172C57.7992 54.182 57.9202 52.477 56.5012 52.477C55.0822 52.477 55.2032 54.182 55.2032 55.172C55.2032 56.162 55.0822 57.867 56.5012 57.867C57.9202 57.867 57.7992 56.162 57.7992 55.172Z" fill="#B15300"/>
</g>
<defs>
<clipPath id="clip0_172_1613">
<rect width="64" height="64" fill="white"/>
</clipPath>
</defs>
</svg>
