<svg width="64" height="64" viewBox="0 0 64 64" fill="none" xmlns="http://www.w3.org/2000/svg">
<g clip-path="url(#clip0_156_781)">
<rect width="64" height="64" fill="#149618"/>
<rect width="64" height="64" rx="6" fill="#149618"/>
<path d="M10.11 7.18C10.11 8.54 9.24 9.46 7.61 9.46H6.11V12H4.83V4.91H7.61C9.24 4.91 10.11 5.82 10.11 7.18ZM8.81 7.19C8.81 6.51 8.42 6.04 7.56 6.04H6.11V8.33H7.56C8.42 8.33 8.81 7.87 8.81 7.19ZM12.3802 12H11.0702V4.91H12.3802V12ZM18.939 6.08H15.329V7.98H18.549V9.15H15.329V12H14.039V4.91H18.939V6.08Z" fill="#CCFFCE"/>
<path d="M23.5642 39H20.2042L17.3722 32.568H13.6042V39H10.4842V21.984H17.6602C21.7162 21.984 23.5642 24.528 23.5642 27.264C23.5642 29.544 22.3162 31.344 20.4442 32.04L23.5642 39ZM20.4682 27.264C20.4682 25.896 19.4122 24.696 17.6602 24.696H13.5802V29.784H17.7082C19.4602 29.784 20.4682 28.872 20.4682 27.264ZM36.4833 39H33.9873L33.7713 37.368C33.1713 38.592 31.7793 39.312 30.1953 39.312C27.5313 39.312 25.8753 37.512 25.8753 34.848V26.52H28.8753V34.176C28.8753 35.64 29.4513 36.552 31.0353 36.552C31.7313 36.552 32.2113 36.288 32.5713 35.928C33.2913 35.256 33.4833 34.128 33.4833 33.12V26.52H36.4833V39ZM53.5196 39H50.4236V31.584H43.4396V39H40.3436V21.984H43.4396V28.632H50.4236V21.984H53.5196V39Z" fill="#CCFFCE"/>
<path d="M9.92635 59H5.04235V57.9L8.02335 54.347C8.28735 54.039 8.41935 53.676 8.41935 53.368C8.41935 52.829 8.07835 52.411 7.45135 52.411C6.80235 52.411 6.42835 52.906 6.42835 53.511H5.02035C5.03135 52.169 5.88935 51.212 7.46235 51.212C8.77135 51.212 9.81635 52.015 9.81635 53.357C9.81635 54.039 9.40935 54.71 8.98035 55.227L6.86835 57.757H9.92635V59ZM16.4638 55.172C16.4638 56.426 16.3428 57.702 15.5508 58.461C15.1548 58.846 14.5938 59.143 13.7688 59.143C12.9438 59.143 12.3828 58.846 11.9868 58.461C11.1948 57.702 11.0738 56.426 11.0738 55.172C11.0738 53.918 11.1948 52.642 11.9868 51.883C12.3828 51.498 12.9438 51.212 13.7688 51.212C14.5938 51.212 15.1548 51.498 15.5508 51.883C16.3428 52.642 16.4638 53.918 16.4638 55.172ZM15.0668 55.172C15.0668 54.182 15.1878 52.477 13.7688 52.477C12.3498 52.477 12.4708 54.182 12.4708 55.172C12.4708 56.162 12.3498 57.867 13.7688 57.867C15.1878 57.867 15.0668 56.162 15.0668 55.172ZM22.7372 55.172C22.7372 56.426 22.6162 57.702 21.8242 58.461C21.4282 58.846 20.8672 59.143 20.0422 59.143C19.2172 59.143 18.6562 58.846 18.2602 58.461C17.4682 57.702 17.3472 56.426 17.3472 55.172C17.3472 53.918 17.4682 52.642 18.2602 51.883C18.6562 51.498 19.2172 51.212 20.0422 51.212C20.8672 51.212 21.4282 51.498 21.8242 51.883C22.6162 52.642 22.7372 53.918 22.7372 55.172ZM21.3402 55.172C21.3402 54.182 21.4612 52.477 20.0422 52.477C18.6232 52.477 18.7442 54.182 18.7442 55.172C18.7442 56.162 18.6232 57.867 20.0422 57.867C21.4612 57.867 21.3402 56.162 21.3402 55.172ZM29.0107 55.172C29.0107 56.426 28.8897 57.702 28.0977 58.461C27.7017 58.846 27.1407 59.143 26.3157 59.143C25.4907 59.143 24.9297 58.846 24.5337 58.461C23.7417 57.702 23.6207 56.426 23.6207 55.172C23.6207 53.918 23.7417 52.642 24.5337 51.883C24.9297 51.498 25.4907 51.212 26.3157 51.212C27.1407 51.212 27.7017 51.498 28.0977 51.883C28.8897 52.642 29.0107 53.918 29.0107 55.172ZM27.6137 55.172C27.6137 54.182 27.7347 52.477 26.3157 52.477C24.8967 52.477 25.0177 54.182 25.0177 55.172C25.0177 56.162 24.8967 57.867 26.3157 57.867C27.7347 57.867 27.6137 56.162 27.6137 55.172ZM35.0201 59H30.1361V57.9L33.1171 54.347C33.3811 54.039 33.5131 53.676 33.5131 53.368C33.5131 52.829 33.1721 52.411 32.5451 52.411C31.8961 52.411 31.5221 52.906 31.5221 53.511H30.1141C30.1251 52.169 30.9831 51.212 32.5561 51.212C33.8651 51.212 34.9101 52.015 34.9101 53.357C34.9101 54.039 34.5031 54.71 34.0741 55.227L31.9621 57.757H35.0201V59ZM41.5025 56.855C41.5025 58.34 40.2375 59.154 38.8625 59.154C37.4875 59.154 36.2225 58.34 36.2225 56.855C36.2225 56.096 36.6075 55.37 37.3335 55.029C36.7725 54.721 36.3765 54.028 36.3765 53.379C36.3765 51.938 37.5315 51.212 38.8625 51.212C40.1935 51.212 41.3485 51.938 41.3485 53.379C41.3485 54.028 40.9525 54.721 40.3915 55.029C41.1175 55.37 41.5025 56.096 41.5025 56.855ZM39.9625 53.401C39.9625 52.84 39.5885 52.411 38.8625 52.411C38.1255 52.411 37.7625 52.84 37.7625 53.401C37.7625 53.962 38.1365 54.424 38.8625 54.424C39.5885 54.424 39.9625 53.962 39.9625 53.401ZM40.1165 56.767C40.1165 56.14 39.6765 55.634 38.8625 55.634C38.0485 55.634 37.6085 56.14 37.6085 56.767C37.6085 57.471 38.1145 57.933 38.8625 57.933C39.6105 57.933 40.1165 57.471 40.1165 56.767ZM46.434 56.228H42.661V54.996H46.434V56.228ZM52.9228 55.172C52.9228 56.426 52.8018 57.702 52.0098 58.461C51.6138 58.846 51.0528 59.143 50.2278 59.143C49.4028 59.143 48.8418 58.846 48.4458 58.461C47.6538 57.702 47.5328 56.426 47.5328 55.172C47.5328 53.918 47.6538 52.642 48.4458 51.883C48.8418 51.498 49.4028 51.212 50.2278 51.212C51.0528 51.212 51.6138 51.498 52.0098 51.883C52.8018 52.642 52.9228 53.918 52.9228 55.172ZM51.5258 55.172C51.5258 54.182 51.6468 52.477 50.2278 52.477C48.8088 52.477 48.9298 54.182 48.9298 55.172C48.9298 56.162 48.8088 57.867 50.2278 57.867C51.6468 57.867 51.5258 56.162 51.5258 55.172ZM59.1962 55.172C59.1962 56.426 59.0752 57.702 58.2832 58.461C57.8872 58.846 57.3262 59.143 56.5012 59.143C55.6762 59.143 55.1152 58.846 54.7192 58.461C53.9272 57.702 53.8062 56.426 53.8062 55.172C53.8062 53.918 53.9272 52.642 54.7192 51.883C55.1152 51.498 55.6762 51.212 56.5012 51.212C57.3262 51.212 57.8872 51.498 58.2832 51.883C59.0752 52.642 59.1962 53.918 59.1962 55.172ZM57.7992 55.172C57.7992 54.182 57.9202 52.477 56.5012 52.477C55.0822 52.477 55.2032 54.182 55.2032 55.172C55.2032 56.162 55.0822 57.867 56.5012 57.867C57.9202 57.867 57.7992 56.162 57.7992 55.172Z" fill="#CCFFCE"/>
<path d="M54.634 4.5C55.0189 3.83333 55.9811 3.83333 56.366 4.5L59.3971 9.75C59.782 10.4167 59.3009 11.25 58.5311 11.25H52.4689C51.6991 11.25 51.218 10.4167 51.6029 9.75L54.634 4.5Z" fill="#CCFFCE"/>
</g>
<defs>
<clipPath id="clip0_156_781">
<rect width="64" height="64" fill="white"/>
</clipPath>
</defs>
</svg>
