<svg width="64" height="64" viewBox="0 0 64 64" fill="none" xmlns="http://www.w3.org/2000/svg">
<g clip-path="url(#clip0_156_1204)">
<rect width="64" height="64" fill="#F49A27"/>
<path d="M9.88 12H4.83V4.91H9.88V6.08H6.12V7.73H9.43V8.89H6.12V10.83H9.88V12ZM18.2293 12H16.9793V6.94L15.1393 11.9H14.1893L12.3593 6.88V12H11.1093V4.91H12.8493L14.7093 9.96L16.5793 4.91H18.2293V12ZM25.4486 12H24.0986L23.6386 10.64H20.8186L20.3586 12H19.0586L21.5486 4.91H22.9586L25.4486 12ZM23.2386 9.48L22.2286 6.49L21.2186 9.48H23.2386ZM31.8353 12H30.4853L30.0253 10.64H27.2053L26.7453 12H25.4453L27.9353 4.91H29.3453L31.8353 12ZM29.6253 9.48L28.6153 6.49L27.6053 9.48H29.6253ZM38.112 12H36.712L35.532 9.32H33.962V12H32.662V4.91H35.652C37.342 4.91 38.112 5.97 38.112 7.11C38.112 8.06 37.592 8.81 36.812 9.1L38.112 12ZM36.822 7.11C36.822 6.54 36.382 6.04 35.652 6.04H33.952V8.16H35.672C36.402 8.16 36.822 7.78 36.822 7.11Z" fill="#B15300"/>
<rect x="59.5007" y="3" width="2.1215" height="10.6075" transform="rotate(45 59.5007 3)" fill="#B15300"/>
<rect x="61.0007" y="10.501" width="2.1215" height="10.6075" transform="rotate(135 61.0007 10.501)" fill="#B15300"/>
<path d="M28.1533 33.936C28.1533 35.52 27.5773 36.648 26.7373 37.488C25.4413 38.784 23.4493 39.312 21.3613 39.312C19.5613 39.312 17.6653 38.832 16.2733 37.56C15.2653 36.648 14.4973 35.208 14.4973 33.6H17.6653C17.6653 34.44 18.0493 35.184 18.5533 35.688C19.2733 36.408 20.4253 36.6 21.4093 36.6C22.5853 36.6 23.7133 36.36 24.3613 35.688C24.7453 35.28 25.0333 34.872 25.0333 34.056C25.0333 32.808 24.0733 32.232 23.0173 32.04C21.8653 31.824 20.3773 31.776 19.2493 31.584C16.8973 31.2 14.9293 29.664 14.9293 26.832C14.9293 25.488 15.5293 24.36 16.4173 23.472C17.5453 22.368 19.4173 21.672 21.4093 21.672C23.2333 21.672 25.0093 22.248 26.1613 23.328C27.1693 24.288 27.8653 25.536 27.8893 26.952H24.7213C24.6973 26.352 24.3853 25.704 23.9773 25.272C23.4253 24.696 22.2973 24.36 21.3853 24.36C20.4253 24.36 19.3213 24.576 18.6253 25.296C18.2653 25.68 18.0493 26.112 18.0493 26.736C18.0493 27.84 18.7693 28.416 19.7773 28.584C20.8573 28.752 22.3693 28.872 23.4733 29.016C26.0173 29.376 28.1533 31.032 28.1533 33.936ZM33.9814 24.792H30.7654V21.696H33.9814V24.792ZM33.9094 39H30.8614V26.52H33.9094V39ZM48.3606 39H45.7686L45.5766 37.632C44.8326 38.784 43.4406 39.288 42.0726 39.288C40.8246 39.288 39.7926 38.856 39.0246 38.232C37.5366 37.008 36.8166 35.136 36.8166 32.784C36.8166 30.336 37.5606 28.44 39.0486 27.216C39.8166 26.592 40.8246 26.208 42.0966 26.208C43.6806 26.208 44.8326 26.736 45.3606 27.384V21.672H48.3606V39ZM45.5046 32.736C45.5046 30.936 45.0246 28.728 42.6726 28.728C41.7366 28.728 41.0886 29.16 40.6566 29.712C40.0326 30.528 39.8646 31.656 39.8646 32.736C39.8646 33.816 40.0326 34.968 40.6566 35.784C41.0886 36.336 41.7366 36.768 42.6726 36.768C45.0246 36.768 45.5046 34.536 45.5046 32.736Z" fill="#B15300"/>
<path d="M8.69435 59H7.31935V52.983L5.63635 54.204V52.708L7.51735 51.355H8.69435V59ZM16.4198 52.455L13.4388 59H11.9538L14.9458 52.587H11.1508V51.355H16.4198V52.455ZM22.7372 55.172C22.7372 56.426 22.6162 57.702 21.8242 58.461C21.4282 58.846 20.8672 59.143 20.0422 59.143C19.2172 59.143 18.6562 58.846 18.2602 58.461C17.4682 57.702 17.3472 56.426 17.3472 55.172C17.3472 53.918 17.4682 52.642 18.2602 51.883C18.6562 51.498 19.2172 51.212 20.0422 51.212C20.8672 51.212 21.4282 51.498 21.8242 51.883C22.6162 52.642 22.7372 53.918 22.7372 55.172ZM21.3402 55.172C21.3402 54.182 21.4612 52.477 20.0422 52.477C18.6232 52.477 18.7442 54.182 18.7442 55.172C18.7442 56.162 18.6232 57.867 20.0422 57.867C21.4612 57.867 21.3402 56.162 21.3402 55.172ZM28.7467 59H23.8627V57.9L26.8437 54.347C27.1077 54.039 27.2397 53.676 27.2397 53.368C27.2397 52.829 26.8987 52.411 26.2717 52.411C25.6227 52.411 25.2487 52.906 25.2487 53.511H23.8407C23.8517 52.169 24.7097 51.212 26.2827 51.212C27.5917 51.212 28.6367 52.015 28.6367 53.357C28.6367 54.039 28.2297 54.71 27.8007 55.227L25.6887 57.757H28.7467V59ZM35.3171 56.404C35.3171 58.021 34.3601 59.154 32.6551 59.154C31.1371 59.154 30.0811 58.208 30.0041 56.767H31.3791C31.4121 57.526 31.9401 57.933 32.6661 57.933C33.5901 57.933 33.9201 57.262 33.9201 56.437C33.9201 55.634 33.5461 55.051 32.6661 55.051C32.2151 55.051 31.7641 55.282 31.5221 55.667H30.1691L30.3341 51.355H34.9761V52.587H31.5221L31.4341 54.336C31.7861 54.006 32.2701 53.841 32.9521 53.841C34.4921 53.841 35.3171 54.952 35.3171 56.404ZM41.5575 55.172C41.5575 56.426 41.4365 57.702 40.6445 58.461C40.2485 58.846 39.6875 59.143 38.8625 59.143C38.0375 59.143 37.4765 58.846 37.0805 58.461C36.2885 57.702 36.1675 56.426 36.1675 55.172C36.1675 53.918 36.2885 52.642 37.0805 51.883C37.4765 51.498 38.0375 51.212 38.8625 51.212C39.6875 51.212 40.2485 51.498 40.6445 51.883C41.4365 52.642 41.5575 53.918 41.5575 55.172ZM40.1605 55.172C40.1605 54.182 40.2815 52.477 38.8625 52.477C37.4435 52.477 37.5645 54.182 37.5645 55.172C37.5645 56.162 37.4435 57.867 38.8625 57.867C40.2815 57.867 40.1605 56.162 40.1605 55.172ZM46.434 56.228H42.661V54.996H46.434V56.228ZM52.9228 55.172C52.9228 56.426 52.8018 57.702 52.0098 58.461C51.6138 58.846 51.0528 59.143 50.2278 59.143C49.4028 59.143 48.8418 58.846 48.4458 58.461C47.6538 57.702 47.5328 56.426 47.5328 55.172C47.5328 53.918 47.6538 52.642 48.4458 51.883C48.8418 51.498 49.4028 51.212 50.2278 51.212C51.0528 51.212 51.6138 51.498 52.0098 51.883C52.8018 52.642 52.9228 53.918 52.9228 55.172ZM51.5258 55.172C51.5258 54.182 51.6468 52.477 50.2278 52.477C48.8088 52.477 48.9298 54.182 48.9298 55.172C48.9298 56.162 48.8088 57.867 50.2278 57.867C51.6468 57.867 51.5258 56.162 51.5258 55.172ZM59.1962 55.172C59.1962 56.426 59.0752 57.702 58.2832 58.461C57.8872 58.846 57.3262 59.143 56.5012 59.143C55.6762 59.143 55.1152 58.846 54.7192 58.461C53.9272 57.702 53.8062 56.426 53.8062 55.172C53.8062 53.918 53.9272 52.642 54.7192 51.883C55.1152 51.498 55.6762 51.212 56.5012 51.212C57.3262 51.212 57.8872 51.498 58.2832 51.883C59.0752 52.642 59.1962 53.918 59.1962 55.172ZM57.7992 55.172C57.7992 54.182 57.9202 52.477 56.5012 52.477C55.0822 52.477 55.2032 54.182 55.2032 55.172C55.2032 56.162 55.0822 57.867 56.5012 57.867C57.9202 57.867 57.7992 56.162 57.7992 55.172Z" fill="#B15300"/>
</g>
<defs>
<clipPath id="clip0_156_1204">
<rect width="64" height="64" fill="white"/>
</clipPath>
</defs>
</svg>
