<svg width="64" height="64" viewBox="0 0 64 64" fill="none" xmlns="http://www.w3.org/2000/svg">
<g clip-path="url(#clip0_156_865)">
<rect width="64" height="64" fill="#149618"/>
<rect width="64" height="64" rx="6" fill="#149618"/>
<path d="M28.4346 33.936C28.4346 35.52 27.8586 36.648 27.0186 37.488C25.7226 38.784 23.7306 39.312 21.6426 39.312C19.8426 39.312 17.9466 38.832 16.5546 37.56C15.5466 36.648 14.7786 35.208 14.7786 33.6H17.9466C17.9466 34.44 18.3306 35.184 18.8346 35.688C19.5546 36.408 20.7066 36.6 21.6906 36.6C22.8666 36.6 23.9946 36.36 24.6426 35.688C25.0266 35.28 25.3146 34.872 25.3146 34.056C25.3146 32.808 24.3546 32.232 23.2986 32.04C22.1466 31.824 20.6586 31.776 19.5306 31.584C17.1786 31.2 15.2106 29.664 15.2106 26.832C15.2106 25.488 15.8106 24.36 16.6986 23.472C17.8266 22.368 19.6986 21.672 21.6906 21.672C23.5146 21.672 25.2906 22.248 26.4426 23.328C27.4506 24.288 28.1466 25.536 28.1706 26.952H25.0026C24.9786 26.352 24.6666 25.704 24.2586 25.272C23.7066 24.696 22.5786 24.36 21.6666 24.36C20.7066 24.36 19.6026 24.576 18.9066 25.296C18.5466 25.68 18.3306 26.112 18.3306 26.736C18.3306 27.84 19.0506 28.416 20.0586 28.584C21.1386 28.752 22.6506 28.872 23.7546 29.016C26.2986 29.376 28.4346 31.032 28.4346 33.936ZM43.0707 39H39.5907L36.0867 33.552L34.0947 35.712V39H31.0947V21.672H34.0947V31.584L38.8227 26.52H42.5907L38.1267 31.344L43.0707 39ZM48.1142 24.792H44.8982V21.696H48.1142V24.792ZM48.0422 39H44.9942V26.52H48.0422V39Z" fill="#CCFFCE"/>
<path d="M9.92635 59H5.04235V57.9L8.02335 54.347C8.28735 54.039 8.41935 53.676 8.41935 53.368C8.41935 52.829 8.07835 52.411 7.45135 52.411C6.80235 52.411 6.42835 52.906 6.42835 53.511H5.02035C5.03135 52.169 5.88935 51.212 7.46235 51.212C8.77135 51.212 9.81635 52.015 9.81635 53.357C9.81635 54.039 9.40935 54.71 8.98035 55.227L6.86835 57.757H9.92635V59ZM16.3098 56.811C16.3098 58.34 15.1438 59.143 13.7028 59.143C12.2948 59.143 11.1508 58.219 11.1068 56.789H12.4818C12.5368 57.537 13.0428 57.933 13.7138 57.933C14.3958 57.933 14.9238 57.515 14.9238 56.789C14.9238 55.997 14.2968 55.634 13.5818 55.634H13.0098V54.435H13.5818C14.3298 54.435 14.7588 54.127 14.7588 53.412C14.7588 52.862 14.3188 52.411 13.7138 52.411C13.0318 52.411 12.5478 52.752 12.5368 53.445H11.1508C11.1728 52.004 12.3168 51.212 13.7138 51.212C15.0998 51.212 16.1558 52.059 16.1558 53.379C16.1558 54.072 15.7488 54.776 15.0558 55.018C15.8478 55.238 16.3098 56.019 16.3098 56.811ZM22.7372 55.172C22.7372 56.426 22.6162 57.702 21.8242 58.461C21.4282 58.846 20.8672 59.143 20.0422 59.143C19.2172 59.143 18.6562 58.846 18.2602 58.461C17.4682 57.702 17.3472 56.426 17.3472 55.172C17.3472 53.918 17.4682 52.642 18.2602 51.883C18.6562 51.498 19.2172 51.212 20.0422 51.212C20.8672 51.212 21.4282 51.498 21.8242 51.883C22.6162 52.642 22.7372 53.918 22.7372 55.172ZM21.3402 55.172C21.3402 54.182 21.4612 52.477 20.0422 52.477C18.6232 52.477 18.7442 54.182 18.7442 55.172C18.7442 56.162 18.6232 57.867 20.0422 57.867C21.4612 57.867 21.3402 56.162 21.3402 55.172ZM27.5147 59H26.1397V52.983L24.4567 54.204V52.708L26.3377 51.355H27.5147V59ZM35.2841 55.172C35.2841 56.426 35.1631 57.702 34.3711 58.461C33.9751 58.846 33.4141 59.143 32.5891 59.143C31.7641 59.143 31.2031 58.846 30.8071 58.461C30.0151 57.702 29.8941 56.426 29.8941 55.172C29.8941 53.918 30.0151 52.642 30.8071 51.883C31.2031 51.498 31.7641 51.212 32.5891 51.212C33.4141 51.212 33.9751 51.498 34.3711 51.883C35.1631 52.642 35.2841 53.918 35.2841 55.172ZM33.8871 55.172C33.8871 54.182 34.0081 52.477 32.5891 52.477C31.1701 52.477 31.2911 54.182 31.2911 55.172C31.2911 56.162 31.1701 57.867 32.5891 57.867C34.0081 57.867 33.8871 56.162 33.8871 55.172ZM41.2935 59H36.4095V57.9L39.3905 54.347C39.6545 54.039 39.7865 53.676 39.7865 53.368C39.7865 52.829 39.4455 52.411 38.8185 52.411C38.1695 52.411 37.7955 52.906 37.7955 53.511H36.3875C36.3985 52.169 37.2565 51.212 38.8295 51.212C40.1385 51.212 41.1835 52.015 41.1835 53.357C41.1835 54.039 40.7765 54.71 40.3475 55.227L38.2355 57.757H41.2935V59ZM46.434 56.228H42.661V54.996H46.434V56.228ZM52.9228 55.172C52.9228 56.426 52.8018 57.702 52.0098 58.461C51.6138 58.846 51.0528 59.143 50.2278 59.143C49.4028 59.143 48.8418 58.846 48.4458 58.461C47.6538 57.702 47.5328 56.426 47.5328 55.172C47.5328 53.918 47.6538 52.642 48.4458 51.883C48.8418 51.498 49.4028 51.212 50.2278 51.212C51.0528 51.212 51.6138 51.498 52.0098 51.883C52.8018 52.642 52.9228 53.918 52.9228 55.172ZM51.5258 55.172C51.5258 54.182 51.6468 52.477 50.2278 52.477C48.8088 52.477 48.9298 54.182 48.9298 55.172C48.9298 56.162 48.8088 57.867 50.2278 57.867C51.6468 57.867 51.5258 56.162 51.5258 55.172ZM59.1962 55.172C59.1962 56.426 59.0752 57.702 58.2832 58.461C57.8872 58.846 57.3262 59.143 56.5012 59.143C55.6762 59.143 55.1152 58.846 54.7192 58.461C53.9272 57.702 53.8062 56.426 53.8062 55.172C53.8062 53.918 53.9272 52.642 54.7192 51.883C55.1152 51.498 55.6762 51.212 56.5012 51.212C57.3262 51.212 57.8872 51.498 58.2832 51.883C59.0752 52.642 59.1962 53.918 59.1962 55.172ZM57.7992 55.172C57.7992 54.182 57.9202 52.477 56.5012 52.477C55.0822 52.477 55.2032 54.182 55.2032 55.172C55.2032 56.162 55.0822 57.867 56.5012 57.867C57.9202 57.867 57.7992 56.162 57.7992 55.172Z" fill="#CCFFCE"/>
<path d="M10.5 12H9.17L6.1 7.13V12H4.83V4.91H6.2L9.23 9.71V4.91H10.5V12ZM17.214 12H12.164V4.91H17.214V6.08H13.454V7.73H16.764V8.89H13.454V10.83H17.214V12ZM23.8645 8.46C23.8645 9.62 23.7345 10.56 22.9645 11.33C22.4245 11.87 21.6845 12.13 20.9245 12.13C20.1645 12.13 19.4245 11.87 18.8845 11.33C18.1145 10.56 17.9845 9.62 17.9845 8.46C17.9845 7.3 18.1145 6.35 18.8845 5.58C19.4245 5.04 20.1645 4.78 20.9245 4.78C21.6845 4.78 22.4245 5.04 22.9645 5.58C23.7345 6.35 23.8645 7.3 23.8645 8.46ZM22.5545 8.46C22.5545 7.81 22.5345 6.93 22.0445 6.42C21.7645 6.12 21.3345 5.95 20.9245 5.95C20.5145 5.95 20.0845 6.12 19.8045 6.42C19.3145 6.93 19.2945 7.81 19.2945 8.46C19.2945 9.11 19.3145 9.98 19.8045 10.49C20.0845 10.79 20.5145 10.96 20.9245 10.96C21.3345 10.96 21.7645 10.79 22.0445 10.49C22.5345 9.98 22.5545 9.11 22.5545 8.46ZM32.2332 12H30.9832V6.94L29.1432 11.9H28.1932L26.3632 6.88V12H25.1132V4.91H26.8532L28.7132 9.96L30.5832 4.91H32.2332V12Z" fill="#CCFFCE"/>
<rect x="53" y="4" width="7" height="7" rx="3.5" stroke="#CCFFCE" stroke-width="2"/>
</g>
<defs>
<clipPath id="clip0_156_865">
<rect width="64" height="64" fill="white"/>
</clipPath>
</defs>
</svg>
