<svg width="64" height="64" viewBox="0 0 64 64" fill="none" xmlns="http://www.w3.org/2000/svg">
<g clip-path="url(#clip0_156_1588)">
<rect width="64" height="64" fill="#0000FF"/>
<rect width="64" height="64" rx="6" fill="#0000FF"/>
<path d="M28.9151 33.936C28.9151 35.52 28.3391 36.648 27.4991 37.488C26.2031 38.784 24.2111 39.312 22.1231 39.312C20.3231 39.312 18.4271 38.832 17.0351 37.56C16.0271 36.648 15.2591 35.208 15.2591 33.6H18.4271C18.4271 34.44 18.8111 35.184 19.3151 35.688C20.0351 36.408 21.1871 36.6 22.1711 36.6C23.3471 36.6 24.4751 36.36 25.1231 35.688C25.5071 35.28 25.7951 34.872 25.7951 34.056C25.7951 32.808 24.8351 32.232 23.7791 32.04C22.6271 31.824 21.1391 31.776 20.0111 31.584C17.6591 31.2 15.6911 29.664 15.6911 26.832C15.6911 25.488 16.2911 24.36 17.1791 23.472C18.3071 22.368 20.1791 21.672 22.1711 21.672C23.9951 21.672 25.7711 22.248 26.9231 23.328C27.9311 24.288 28.6271 25.536 28.6511 26.952H25.4831C25.4591 26.352 25.1471 25.704 24.7391 25.272C24.1871 24.696 23.0591 24.36 22.1471 24.36C21.1871 24.36 20.0831 24.576 19.3871 25.296C19.0271 25.68 18.8111 26.112 18.8111 26.736C18.8111 27.84 19.5311 28.416 20.5391 28.584C21.6191 28.752 23.1311 28.872 24.2351 29.016C26.7791 29.376 28.9151 31.032 28.9151 33.936ZM36.2311 38.976C35.6311 39.096 35.5111 39.144 34.9111 39.144C32.8711 39.144 31.5031 38.16 31.5031 35.784V21.648H34.5271V35.28C34.5271 36 34.6951 36.48 35.7271 36.48C35.9911 36.48 36.0631 36.456 36.2311 36.456V38.976ZM48.5133 35.136C48.5133 36.336 48.0813 37.224 47.4333 37.872C46.4253 38.88 44.8653 39.312 43.1613 39.312C41.5773 39.312 40.1613 38.856 39.1293 37.872C38.4093 37.176 37.8093 36.144 37.8093 34.968H40.6173C40.6173 35.52 40.9053 36.12 41.2893 36.432C41.7693 36.816 42.3213 36.984 43.1853 36.984C44.1933 36.984 45.7293 36.768 45.7293 35.4C45.7293 34.68 45.2493 34.2 44.4813 34.08C43.3773 33.912 42.1293 33.84 41.0253 33.6C39.3213 33.24 38.1693 31.848 38.1693 30.264C38.1693 28.992 38.6973 28.104 39.4413 27.456C40.3533 26.664 41.6733 26.208 43.2333 26.208C44.7213 26.208 46.2333 26.688 47.1453 27.672C47.8173 28.392 48.2493 29.328 48.2493 30.24H45.3933C45.3933 29.76 45.1773 29.376 44.8893 29.064C44.5293 28.704 43.8813 28.488 43.2573 28.488C42.8253 28.488 42.4173 28.488 41.9613 28.68C41.4333 28.896 41.0013 29.352 41.0013 30C41.0013 30.888 41.7693 31.152 42.4413 31.248C43.5693 31.392 43.8813 31.416 45.1053 31.608C47.0733 31.92 48.5133 33.168 48.5133 35.136Z" fill="#EEEEFF"/>
<path d="M8.69435 59H7.31935V52.983L5.63635 54.204V52.708L7.51735 51.355H8.69435V59ZM16.4968 56.404C16.4968 58.021 15.5398 59.154 13.8348 59.154C12.3168 59.154 11.2608 58.208 11.1838 56.767H12.5588C12.5918 57.526 13.1198 57.933 13.8458 57.933C14.7698 57.933 15.0998 57.262 15.0998 56.437C15.0998 55.634 14.7258 55.051 13.8458 55.051C13.3948 55.051 12.9438 55.282 12.7018 55.667H11.3488L11.5138 51.355H16.1558V52.587H12.7018L12.6138 54.336C12.9658 54.006 13.4498 53.841 14.1318 53.841C15.6718 53.841 16.4968 54.952 16.4968 56.404ZM22.7372 55.172C22.7372 56.426 22.6162 57.702 21.8242 58.461C21.4282 58.846 20.8672 59.143 20.0422 59.143C19.2172 59.143 18.6562 58.846 18.2602 58.461C17.4682 57.702 17.3472 56.426 17.3472 55.172C17.3472 53.918 17.4682 52.642 18.2602 51.883C18.6562 51.498 19.2172 51.212 20.0422 51.212C20.8672 51.212 21.4282 51.498 21.8242 51.883C22.6162 52.642 22.7372 53.918 22.7372 55.172ZM21.3402 55.172C21.3402 54.182 21.4612 52.477 20.0422 52.477C18.6232 52.477 18.7442 54.182 18.7442 55.172C18.7442 56.162 18.6232 57.867 20.0422 57.867C21.4612 57.867 21.3402 56.162 21.3402 55.172ZM27.5147 59H26.1397V52.983L24.4567 54.204V52.708L26.3377 51.355H27.5147V59ZM35.1961 55.04C35.1961 56.162 35.1301 57.537 34.3491 58.373C33.9311 58.813 33.3921 59.143 32.4791 59.143C31.6981 59.143 31.1261 58.89 30.7301 58.516C30.3011 58.109 30.0811 57.559 30.0811 57.108H31.4671C31.4891 57.339 31.5881 57.548 31.7311 57.691C31.9071 57.878 32.1711 57.966 32.5451 57.966C32.9081 57.966 33.1171 57.834 33.3041 57.658C33.7221 57.273 33.8321 56.58 33.8321 55.909C33.4911 56.316 32.8421 56.47 32.3801 56.47C30.7301 56.47 29.8611 55.414 29.8611 53.863C29.8611 52.367 30.7521 51.212 32.4901 51.212C33.9421 51.212 34.8441 52.235 35.0751 53.61C35.1631 54.105 35.1961 54.556 35.1961 55.04ZM33.7001 53.918C33.7001 53.082 33.3041 52.433 32.4901 52.433C31.6651 52.433 31.2581 53.027 31.2581 53.918C31.2581 54.71 31.6651 55.348 32.5121 55.348C33.2491 55.348 33.7001 54.721 33.7001 53.918ZM41.4035 56.811C41.4035 58.34 40.2375 59.143 38.7965 59.143C37.3885 59.143 36.2445 58.219 36.2005 56.789H37.5755C37.6305 57.537 38.1365 57.933 38.8075 57.933C39.4895 57.933 40.0175 57.515 40.0175 56.789C40.0175 55.997 39.3905 55.634 38.6755 55.634H38.1035V54.435H38.6755C39.4235 54.435 39.8525 54.127 39.8525 53.412C39.8525 52.862 39.4125 52.411 38.8075 52.411C38.1255 52.411 37.6415 52.752 37.6305 53.445H36.2445C36.2665 52.004 37.4105 51.212 38.8075 51.212C40.1935 51.212 41.2495 52.059 41.2495 53.379C41.2495 54.072 40.8425 54.776 40.1495 55.018C40.9415 55.238 41.4035 56.019 41.4035 56.811ZM46.434 56.228H42.661V54.996H46.434V56.228ZM52.9228 55.172C52.9228 56.426 52.8018 57.702 52.0098 58.461C51.6138 58.846 51.0528 59.143 50.2278 59.143C49.4028 59.143 48.8418 58.846 48.4458 58.461C47.6538 57.702 47.5328 56.426 47.5328 55.172C47.5328 53.918 47.6538 52.642 48.4458 51.883C48.8418 51.498 49.4028 51.212 50.2278 51.212C51.0528 51.212 51.6138 51.498 52.0098 51.883C52.8018 52.642 52.9228 53.918 52.9228 55.172ZM51.5258 55.172C51.5258 54.182 51.6468 52.477 50.2278 52.477C48.8088 52.477 48.9298 54.182 48.9298 55.172C48.9298 56.162 48.8088 57.867 50.2278 57.867C51.6468 57.867 51.5258 56.162 51.5258 55.172ZM59.1962 55.172C59.1962 56.426 59.0752 57.702 58.2832 58.461C57.8872 58.846 57.3262 59.143 56.5012 59.143C55.6762 59.143 55.1152 58.846 54.7192 58.461C53.9272 57.702 53.8062 56.426 53.8062 55.172C53.8062 53.918 53.9272 52.642 54.7192 51.883C55.1152 51.498 55.6762 51.212 56.5012 51.212C57.3262 51.212 57.8872 51.498 58.2832 51.883C59.0752 52.642 59.1962 53.918 59.1962 55.172ZM57.7992 55.172C57.7992 54.182 57.9202 52.477 56.5012 52.477C55.0822 52.477 55.2032 54.182 55.2032 55.172C55.2032 56.162 55.0822 57.867 56.5012 57.867C57.9202 57.867 57.7992 56.162 57.7992 55.172Z" fill="#EEEEFF"/>
<path d="M12.55 4.91L11.14 12H9.85L8.37 7.11L6.89 12H5.6L4.17 4.91H5.4L6.39 9.84L7.85 5.02H8.93L10.36 9.84L11.37 4.91H12.55ZM18.9719 8.46C18.9719 9.62 18.8419 10.56 18.0719 11.33C17.5319 11.87 16.7919 12.13 16.0319 12.13C15.2719 12.13 14.5319 11.87 13.9919 11.33C13.2219 10.56 13.0919 9.62 13.0919 8.46C13.0919 7.3 13.2219 6.35 13.9919 5.58C14.5319 5.04 15.2719 4.78 16.0319 4.78C16.7919 4.78 17.5319 5.04 18.0719 5.58C18.8419 6.35 18.9719 7.3 18.9719 8.46ZM17.6619 8.46C17.6619 7.81 17.6419 6.93 17.1519 6.42C16.8719 6.12 16.4419 5.95 16.0319 5.95C15.6219 5.95 15.1919 6.12 14.9119 6.42C14.4219 6.93 14.4019 7.81 14.4019 8.46C14.4019 9.11 14.4219 9.98 14.9119 10.49C15.1919 10.79 15.6219 10.96 16.0319 10.96C16.4419 10.96 16.8719 10.79 17.1519 10.49C17.6419 9.98 17.6619 9.11 17.6619 8.46ZM27.8918 4.91L26.4818 12H25.1918L23.7118 7.11L22.2318 12H20.9418L19.5118 4.91H20.7418L21.7318 9.84L23.1918 5.02H24.2718L25.7018 9.84L26.7118 4.91H27.8918Z" fill="#EEEEFF"/>
<rect x="58.5007" y="3" width="2.1215" height="10.6075" transform="rotate(45 58.5007 3)" fill="#EEEEFF"/>
<rect x="60.0007" y="10.501" width="2.1215" height="10.6075" transform="rotate(135 60.0007 10.501)" fill="#EEEEFF"/>
</g>
<defs>
<clipPath id="clip0_156_1588">
<rect width="64" height="64" fill="white"/>
</clipPath>
</defs>
</svg>
