<svg width="64" height="64" viewBox="0 0 64 64" fill="none" xmlns="http://www.w3.org/2000/svg">
<g clip-path="url(#clip0_156_1139)">
<rect width="64" height="64" fill="#621495"/>
<rect width="64" height="64" rx="6" fill="#621495"/>
<path d="M12.55 4.91L11.14 12H9.85L8.37 7.11L6.89 12H5.6L4.17 4.91H5.4L6.39 9.84L7.85 5.02H8.93L10.36 9.84L11.37 4.91H12.55ZM18.9642 12H17.6142L17.1542 10.64H14.3342L13.8742 12H12.5742L15.0642 4.91H16.4742L18.9642 12ZM16.7542 9.48L15.7442 6.49L14.7342 9.48H16.7542ZM24.9021 9.89C24.9021 10.55 24.6621 11.02 24.3121 11.37C23.7721 11.91 22.9421 12.13 22.0721 12.13C21.3221 12.13 20.5321 11.93 19.9521 11.4C19.5321 11.02 19.2121 10.42 19.2121 9.75H20.5321C20.5321 10.1 20.6921 10.41 20.9021 10.62C21.2021 10.92 21.6821 11 22.0921 11C22.5821 11 23.0521 10.9 23.3221 10.62C23.4821 10.45 23.6021 10.28 23.6021 9.94C23.6021 9.42 23.2021 9.18 22.7621 9.1C22.2821 9.01 21.6621 8.99 21.1921 8.91C20.2121 8.75 19.3921 8.11 19.3921 6.93C19.3921 6.37 19.6421 5.9 20.0121 5.53C20.4821 5.07 21.2621 4.78 22.0921 4.78C22.8521 4.78 23.5921 5.02 24.0721 5.47C24.4921 5.87 24.7821 6.39 24.7921 6.98H23.4721C23.4621 6.73 23.3321 6.46 23.1621 6.28C22.9321 6.04 22.4621 5.9 22.0821 5.9C21.6821 5.9 21.2221 5.99 20.9321 6.29C20.7821 6.45 20.6921 6.63 20.6921 6.89C20.6921 7.35 20.9921 7.59 21.4121 7.66C21.8621 7.73 22.4921 7.78 22.9521 7.84C24.0121 7.99 24.9021 8.68 24.9021 9.89ZM30.6405 12H26.0605V4.91H27.3505V10.78H30.6405V12Z" fill="#EFD8FF"/>
<path d="M27.251 33.936C27.251 35.52 26.675 36.648 25.835 37.488C24.539 38.784 22.547 39.312 20.459 39.312C18.659 39.312 16.763 38.832 15.371 37.56C14.363 36.648 13.595 35.208 13.595 33.6H16.763C16.763 34.44 17.147 35.184 17.651 35.688C18.371 36.408 19.523 36.6 20.507 36.6C21.683 36.6 22.811 36.36 23.459 35.688C23.843 35.28 24.131 34.872 24.131 34.056C24.131 32.808 23.171 32.232 22.115 32.04C20.963 31.824 19.475 31.776 18.347 31.584C15.995 31.2 14.027 29.664 14.027 26.832C14.027 25.488 14.627 24.36 15.515 23.472C16.643 22.368 18.515 21.672 20.507 21.672C22.331 21.672 24.107 22.248 25.259 23.328C26.267 24.288 26.963 25.536 26.987 26.952H23.819C23.795 26.352 23.483 25.704 23.075 25.272C22.523 24.696 21.395 24.36 20.483 24.36C19.523 24.36 18.419 24.576 17.723 25.296C17.363 25.68 17.147 26.112 17.147 26.736C17.147 27.84 17.867 28.416 18.875 28.584C19.955 28.752 21.467 28.872 22.571 29.016C25.115 29.376 27.251 31.032 27.251 33.936ZM36.9671 38.832C36.1271 39.048 35.2871 39.168 34.3991 39.168C31.8791 39.168 30.6311 37.728 30.6311 35.328V28.992H28.3511V26.52H30.6311V23.352L33.6311 22.608V26.52H36.7751V28.992H33.6311V35.064C33.6311 36.024 34.0631 36.432 35.0231 36.432C35.6471 36.432 36.1511 36.408 36.9671 36.312V38.832ZM50.3924 38.856C49.8884 39.072 49.6244 39.192 48.9044 39.192C47.6084 39.192 46.8884 38.376 46.7924 37.44C46.2164 38.448 44.7764 39.312 43.0004 39.312C40.0244 39.312 38.4884 37.44 38.4884 35.4C38.4884 33.024 40.3364 31.656 42.7124 31.488L46.3844 31.224V30.456C46.3844 29.28 45.9764 28.488 44.2724 28.488C42.8804 28.488 42.0644 29.112 41.9924 30.264H39.0884C39.2564 27.456 41.4884 26.208 44.2724 26.208C46.4084 26.208 48.2324 26.88 48.9524 28.752C49.2644 29.544 49.3124 30.432 49.3124 31.272V35.904C49.3124 36.48 49.5044 36.696 50.0084 36.696C50.2004 36.696 50.3924 36.648 50.3924 36.648V38.856ZM46.3844 34.032V33.456L43.2164 33.696C42.3044 33.768 41.4164 34.32 41.4164 35.328C41.4164 36.288 42.2564 36.888 43.1924 36.888C45.0644 36.888 46.3844 35.88 46.3844 34.032Z" fill="#EFD8FF"/>
<path d="M9.92635 59H5.04235V57.9L8.02335 54.347C8.28735 54.039 8.41935 53.676 8.41935 53.368C8.41935 52.829 8.07835 52.411 7.45135 52.411C6.80235 52.411 6.42835 52.906 6.42835 53.511H5.02035C5.03135 52.169 5.88935 51.212 7.46235 51.212C8.77135 51.212 9.81635 52.015 9.81635 53.357C9.81635 54.039 9.40935 54.71 8.98035 55.227L6.86835 57.757H9.92635V59ZM16.6838 57.46H15.7158V59H14.3408V57.46H10.9308V56.162L13.7358 51.355H15.2318L12.3828 56.217H14.3408V54.424H15.7158V56.217H16.6838V57.46ZM22.7372 55.172C22.7372 56.426 22.6162 57.702 21.8242 58.461C21.4282 58.846 20.8672 59.143 20.0422 59.143C19.2172 59.143 18.6562 58.846 18.2602 58.461C17.4682 57.702 17.3472 56.426 17.3472 55.172C17.3472 53.918 17.4682 52.642 18.2602 51.883C18.6562 51.498 19.2172 51.212 20.0422 51.212C20.8672 51.212 21.4282 51.498 21.8242 51.883C22.6162 52.642 22.7372 53.918 22.7372 55.172ZM21.3402 55.172C21.3402 54.182 21.4612 52.477 20.0422 52.477C18.6232 52.477 18.7442 54.182 18.7442 55.172C18.7442 56.162 18.6232 57.867 20.0422 57.867C21.4612 57.867 21.3402 56.162 21.3402 55.172ZM29.0107 55.172C29.0107 56.426 28.8897 57.702 28.0977 58.461C27.7017 58.846 27.1407 59.143 26.3157 59.143C25.4907 59.143 24.9297 58.846 24.5337 58.461C23.7417 57.702 23.6207 56.426 23.6207 55.172C23.6207 53.918 23.7417 52.642 24.5337 51.883C24.9297 51.498 25.4907 51.212 26.3157 51.212C27.1407 51.212 27.7017 51.498 28.0977 51.883C28.8897 52.642 29.0107 53.918 29.0107 55.172ZM27.6137 55.172C27.6137 54.182 27.7347 52.477 26.3157 52.477C24.8967 52.477 25.0177 54.182 25.0177 55.172C25.0177 56.162 24.8967 57.867 26.3157 57.867C27.7347 57.867 27.6137 56.162 27.6137 55.172ZM35.0201 59H30.1361V57.9L33.1171 54.347C33.3811 54.039 33.5131 53.676 33.5131 53.368C33.5131 52.829 33.1721 52.411 32.5451 52.411C31.8961 52.411 31.5221 52.906 31.5221 53.511H30.1141C30.1251 52.169 30.9831 51.212 32.5561 51.212C33.8651 51.212 34.9101 52.015 34.9101 53.357C34.9101 54.039 34.5031 54.71 34.0741 55.227L31.9621 57.757H35.0201V59ZM41.5135 52.455L38.5325 59H37.0475L40.0395 52.587H36.2445V51.355H41.5135V52.455ZM46.434 56.228H42.661V54.996H46.434V56.228ZM52.9228 55.172C52.9228 56.426 52.8018 57.702 52.0098 58.461C51.6138 58.846 51.0528 59.143 50.2278 59.143C49.4028 59.143 48.8418 58.846 48.4458 58.461C47.6538 57.702 47.5328 56.426 47.5328 55.172C47.5328 53.918 47.6538 52.642 48.4458 51.883C48.8418 51.498 49.4028 51.212 50.2278 51.212C51.0528 51.212 51.6138 51.498 52.0098 51.883C52.8018 52.642 52.9228 53.918 52.9228 55.172ZM51.5258 55.172C51.5258 54.182 51.6468 52.477 50.2278 52.477C48.8088 52.477 48.9298 54.182 48.9298 55.172C48.9298 56.162 48.8088 57.867 50.2278 57.867C51.6468 57.867 51.5258 56.162 51.5258 55.172ZM59.1962 55.172C59.1962 56.426 59.0752 57.702 58.2832 58.461C57.8872 58.846 57.3262 59.143 56.5012 59.143C55.6762 59.143 55.1152 58.846 54.7192 58.461C53.9272 57.702 53.8062 56.426 53.8062 55.172C53.8062 53.918 53.9272 52.642 54.7192 51.883C55.1152 51.498 55.6762 51.212 56.5012 51.212C57.3262 51.212 57.8872 51.498 58.2832 51.883C59.0752 52.642 59.1962 53.918 59.1962 55.172ZM57.7992 55.172C57.7992 54.182 57.9202 52.477 56.5012 52.477C55.0822 52.477 55.2032 54.182 55.2032 55.172C55.2032 56.162 55.0822 57.867 56.5012 57.867C57.9202 57.867 57.7992 56.162 57.7992 55.172Z" fill="#EFD8FF"/>
<rect x="53" y="4" width="7" height="7" rx="3.5" stroke="#EFD8FF" stroke-width="2"/>
</g>
<defs>
<clipPath id="clip0_156_1139">
<rect width="64" height="64" fill="white"/>
</clipPath>
</defs>
</svg>
