<svg width="64" height="64" viewBox="0 0 64 64" fill="none" xmlns="http://www.w3.org/2000/svg">
<g clip-path="url(#clip0_156_969)">
<rect width="64" height="64" fill="#0000FF"/>
<rect width="64" height="64" rx="6" fill="#0000FF"/>
<path d="M25.6752 21.984L20.0832 39H16.6752L11.0352 21.984H14.3232L18.4512 34.968L22.5552 21.984H25.6752ZM37.6262 39H35.0342L34.8422 37.632C34.0982 38.784 32.7062 39.288 31.3382 39.288C30.0902 39.288 29.0582 38.856 28.2902 38.232C26.8022 37.008 26.0822 35.136 26.0822 32.784C26.0822 30.336 26.8262 28.44 28.3142 27.216C29.0822 26.592 30.0902 26.208 31.3622 26.208C32.9462 26.208 34.0982 26.736 34.6262 27.384V21.672H37.6262V39ZM34.7702 32.736C34.7702 30.936 34.2902 28.728 31.9382 28.728C31.0022 28.728 30.3542 29.16 29.9222 29.712C29.2982 30.528 29.1302 31.656 29.1302 32.736C29.1302 33.816 29.2982 34.968 29.9222 35.784C30.3542 36.336 31.0022 36.768 31.9382 36.768C34.2902 36.768 34.7702 34.536 34.7702 32.736ZM52.2323 38.856C51.7283 39.072 51.4643 39.192 50.7443 39.192C49.4483 39.192 48.7283 38.376 48.6323 37.44C48.0563 38.448 46.6163 39.312 44.8403 39.312C41.8643 39.312 40.3283 37.44 40.3283 35.4C40.3283 33.024 42.1763 31.656 44.5523 31.488L48.2243 31.224V30.456C48.2243 29.28 47.8163 28.488 46.1123 28.488C44.7203 28.488 43.9043 29.112 43.8323 30.264H40.9283C41.0963 27.456 43.3283 26.208 46.1123 26.208C48.2483 26.208 50.0723 26.88 50.7923 28.752C51.1043 29.544 51.1523 30.432 51.1523 31.272V35.904C51.1523 36.48 51.3443 36.696 51.8483 36.696C52.0403 36.696 52.2323 36.648 52.2323 36.648V38.856ZM48.2243 34.032V33.456L45.0563 33.696C44.1443 33.768 43.2563 34.32 43.2563 35.328C43.2563 36.288 44.0963 36.888 45.0323 36.888C46.9043 36.888 48.2243 35.88 48.2243 34.032Z" fill="#EEEEFF"/>
<path d="M8.69435 59H7.31935V52.983L5.63635 54.204V52.708L7.51735 51.355H8.69435V59ZM16.5188 56.481C16.5188 57.977 15.6278 59.143 13.8898 59.143C12.4378 59.143 11.5358 58.109 11.3048 56.734C11.2168 56.239 11.1838 55.788 11.1838 55.304C11.1838 54.182 11.2498 52.807 12.0308 51.971C12.4488 51.531 12.9878 51.212 13.9008 51.212C14.6818 51.212 15.2538 51.454 15.6498 51.828C16.0788 52.235 16.2988 52.785 16.2988 53.236H14.9128C14.8908 53.005 14.7918 52.796 14.6488 52.653C14.4728 52.466 14.2088 52.378 13.8348 52.378C13.4718 52.378 13.2628 52.51 13.0758 52.686C12.6578 53.071 12.5478 53.764 12.5478 54.435C12.8888 54.028 13.5378 53.874 13.9998 53.874C15.6498 53.874 16.5188 54.93 16.5188 56.481ZM15.1218 56.426C15.1218 55.634 14.7148 54.996 13.8678 54.996C13.1308 54.996 12.6798 55.623 12.6798 56.426C12.6798 57.262 13.0758 57.911 13.8898 57.911C14.7148 57.911 15.1218 57.317 15.1218 56.426ZM22.7372 55.172C22.7372 56.426 22.6162 57.702 21.8242 58.461C21.4282 58.846 20.8672 59.143 20.0422 59.143C19.2172 59.143 18.6562 58.846 18.2602 58.461C17.4682 57.702 17.3472 56.426 17.3472 55.172C17.3472 53.918 17.4682 52.642 18.2602 51.883C18.6562 51.498 19.2172 51.212 20.0422 51.212C20.8672 51.212 21.4282 51.498 21.8242 51.883C22.6162 52.642 22.7372 53.918 22.7372 55.172ZM21.3402 55.172C21.3402 54.182 21.4612 52.477 20.0422 52.477C18.6232 52.477 18.7442 54.182 18.7442 55.172C18.7442 56.162 18.6232 57.867 20.0422 57.867C21.4612 57.867 21.3402 56.162 21.3402 55.172ZM28.7467 59H23.8627V57.9L26.8437 54.347C27.1077 54.039 27.2397 53.676 27.2397 53.368C27.2397 52.829 26.8987 52.411 26.2717 52.411C25.6227 52.411 25.2487 52.906 25.2487 53.511H23.8407C23.8517 52.169 24.7097 51.212 26.2827 51.212C27.5917 51.212 28.6367 52.015 28.6367 53.357C28.6367 54.039 28.2297 54.71 27.8007 55.227L25.6887 57.757H28.7467V59ZM33.7881 59H32.4131V52.983L30.7301 54.204V52.708L32.6111 51.355H33.7881V59ZM41.5135 52.455L38.5325 59H37.0475L40.0395 52.587H36.2445V51.355H41.5135V52.455ZM46.434 56.228H42.661V54.996H46.434V56.228ZM52.9228 55.172C52.9228 56.426 52.8018 57.702 52.0098 58.461C51.6138 58.846 51.0528 59.143 50.2278 59.143C49.4028 59.143 48.8418 58.846 48.4458 58.461C47.6538 57.702 47.5328 56.426 47.5328 55.172C47.5328 53.918 47.6538 52.642 48.4458 51.883C48.8418 51.498 49.4028 51.212 50.2278 51.212C51.0528 51.212 51.6138 51.498 52.0098 51.883C52.8018 52.642 52.9228 53.918 52.9228 55.172ZM51.5258 55.172C51.5258 54.182 51.6468 52.477 50.2278 52.477C48.8088 52.477 48.9298 54.182 48.9298 55.172C48.9298 56.162 48.8088 57.867 50.2278 57.867C51.6468 57.867 51.5258 56.162 51.5258 55.172ZM59.1962 55.172C59.1962 56.426 59.0752 57.702 58.2832 58.461C57.8872 58.846 57.3262 59.143 56.5012 59.143C55.6762 59.143 55.1152 58.846 54.7192 58.461C53.9272 57.702 53.8062 56.426 53.8062 55.172C53.8062 53.918 53.9272 52.642 54.7192 51.883C55.1152 51.498 55.6762 51.212 56.5012 51.212C57.3262 51.212 57.8872 51.498 58.2832 51.883C59.0752 52.642 59.1962 53.918 59.1962 55.172ZM57.7992 55.172C57.7992 54.182 57.9202 52.477 56.5012 52.477C55.0822 52.477 55.2032 54.182 55.2032 55.172C55.2032 56.162 55.0822 57.867 56.5012 57.867C57.9202 57.867 57.7992 56.162 57.7992 55.172Z" fill="#EEEEFF"/>
<path d="M9.88 12H4.83V4.91H9.88V6.08H6.12V7.73H9.43V8.89H6.12V10.83H9.88V12ZM18.2293 12H16.9793V6.94L15.1393 11.9H14.1893L12.3593 6.88V12H11.1093V4.91H12.8493L14.7093 9.96L16.5793 4.91H18.2293V12ZM25.4486 12H24.0986L23.6386 10.64H20.8186L20.3586 12H19.0586L21.5486 4.91H22.9586L25.4486 12ZM23.2386 9.48L22.2286 6.49L21.2186 9.48H23.2386ZM31.8353 12H30.4853L30.0253 10.64H27.2053L26.7453 12H25.4453L27.9353 4.91H29.3453L31.8353 12ZM29.6253 9.48L28.6153 6.49L27.6053 9.48H29.6253ZM38.112 12H36.712L35.532 9.32H33.962V12H32.662V4.91H35.652C37.342 4.91 38.112 5.97 38.112 7.11C38.112 8.06 37.592 8.81 36.812 9.1L38.112 12ZM36.822 7.11C36.822 6.54 36.382 6.04 35.652 6.04H33.952V8.16H35.672C36.402 8.16 36.822 7.78 36.822 7.11Z" fill="#EEEEFF"/>
<rect x="58.5007" y="3" width="2.1215" height="10.6075" transform="rotate(45 58.5007 3)" fill="#EEEEFF"/>
<rect x="60.0007" y="10.501" width="2.1215" height="10.6075" transform="rotate(135 60.0007 10.501)" fill="#EEEEFF"/>
</g>
<defs>
<clipPath id="clip0_156_969">
<rect width="64" height="64" fill="white"/>
</clipPath>
</defs>
</svg>
