<svg width="64" height="64" viewBox="0 0 64 64" fill="none" xmlns="http://www.w3.org/2000/svg">
<g clip-path="url(#clip0_156_993)">
<rect width="64" height="64" fill="#0000FF"/>
<rect width="64" height="64" rx="6" fill="#0000FF"/>
<path d="M42.0552 21.984L38.6712 39H35.5752L32.0232 27.264L28.4712 39H25.3752L21.9432 21.984H24.8952L27.2712 33.816L30.7752 22.248H33.3672L36.7992 33.816L39.2232 21.984H42.0552Z" fill="#EEEEFF"/>
<path d="M8.69435 59H7.31935V52.983L5.63635 54.204V52.708L7.51735 51.355H8.69435V59ZM16.4198 52.455L13.4388 59H11.9538L14.9458 52.587H11.1508V51.355H16.4198V52.455ZM22.7372 55.172C22.7372 56.426 22.6162 57.702 21.8242 58.461C21.4282 58.846 20.8672 59.143 20.0422 59.143C19.2172 59.143 18.6562 58.846 18.2602 58.461C17.4682 57.702 17.3472 56.426 17.3472 55.172C17.3472 53.918 17.4682 52.642 18.2602 51.883C18.6562 51.498 19.2172 51.212 20.0422 51.212C20.8672 51.212 21.4282 51.498 21.8242 51.883C22.6162 52.642 22.7372 53.918 22.7372 55.172ZM21.3402 55.172C21.3402 54.182 21.4612 52.477 20.0422 52.477C18.6232 52.477 18.7442 54.182 18.7442 55.172C18.7442 56.162 18.6232 57.867 20.0422 57.867C21.4612 57.867 21.3402 56.162 21.3402 55.172ZM29.0107 55.172C29.0107 56.426 28.8897 57.702 28.0977 58.461C27.7017 58.846 27.1407 59.143 26.3157 59.143C25.4907 59.143 24.9297 58.846 24.5337 58.461C23.7417 57.702 23.6207 56.426 23.6207 55.172C23.6207 53.918 23.7417 52.642 24.5337 51.883C24.9297 51.498 25.4907 51.212 26.3157 51.212C27.1407 51.212 27.7017 51.498 28.0977 51.883C28.8897 52.642 29.0107 53.918 29.0107 55.172ZM27.6137 55.172C27.6137 54.182 27.7347 52.477 26.3157 52.477C24.8967 52.477 25.0177 54.182 25.0177 55.172C25.0177 56.162 24.8967 57.867 26.3157 57.867C27.7347 57.867 27.6137 56.162 27.6137 55.172ZM35.1301 56.811C35.1301 58.34 33.9641 59.143 32.5231 59.143C31.1151 59.143 29.9711 58.219 29.9271 56.789H31.3021C31.3571 57.537 31.8631 57.933 32.5341 57.933C33.2161 57.933 33.7441 57.515 33.7441 56.789C33.7441 55.997 33.1171 55.634 32.4021 55.634H31.8301V54.435H32.4021C33.1501 54.435 33.5791 54.127 33.5791 53.412C33.5791 52.862 33.1391 52.411 32.5341 52.411C31.8521 52.411 31.3681 52.752 31.3571 53.445H29.9711C29.9931 52.004 31.1371 51.212 32.5341 51.212C33.9201 51.212 34.9761 52.059 34.9761 53.379C34.9761 54.072 34.5691 54.776 33.8761 55.018C34.6681 55.238 35.1301 56.019 35.1301 56.811ZM41.6125 56.481C41.6125 57.977 40.7215 59.143 38.9835 59.143C37.5315 59.143 36.6295 58.109 36.3985 56.734C36.3105 56.239 36.2775 55.788 36.2775 55.304C36.2775 54.182 36.3435 52.807 37.1245 51.971C37.5425 51.531 38.0815 51.212 38.9945 51.212C39.7755 51.212 40.3475 51.454 40.7435 51.828C41.1725 52.235 41.3925 52.785 41.3925 53.236H40.0065C39.9845 53.005 39.8855 52.796 39.7425 52.653C39.5665 52.466 39.3025 52.378 38.9285 52.378C38.5655 52.378 38.3565 52.51 38.1695 52.686C37.7515 53.071 37.6415 53.764 37.6415 54.435C37.9825 54.028 38.6315 53.874 39.0935 53.874C40.7435 53.874 41.6125 54.93 41.6125 56.481ZM40.2155 56.426C40.2155 55.634 39.8085 54.996 38.9615 54.996C38.2245 54.996 37.7735 55.623 37.7735 56.426C37.7735 57.262 38.1695 57.911 38.9835 57.911C39.8085 57.911 40.2155 57.317 40.2155 56.426ZM46.434 56.228H42.661V54.996H46.434V56.228ZM52.9228 55.172C52.9228 56.426 52.8018 57.702 52.0098 58.461C51.6138 58.846 51.0528 59.143 50.2278 59.143C49.4028 59.143 48.8418 58.846 48.4458 58.461C47.6538 57.702 47.5328 56.426 47.5328 55.172C47.5328 53.918 47.6538 52.642 48.4458 51.883C48.8418 51.498 49.4028 51.212 50.2278 51.212C51.0528 51.212 51.6138 51.498 52.0098 51.883C52.8018 52.642 52.9228 53.918 52.9228 55.172ZM51.5258 55.172C51.5258 54.182 51.6468 52.477 50.2278 52.477C48.8088 52.477 48.9298 54.182 48.9298 55.172C48.9298 56.162 48.8088 57.867 50.2278 57.867C51.6468 57.867 51.5258 56.162 51.5258 55.172ZM59.1962 55.172C59.1962 56.426 59.0752 57.702 58.2832 58.461C57.8872 58.846 57.3262 59.143 56.5012 59.143C55.6762 59.143 55.1152 58.846 54.7192 58.461C53.9272 57.702 53.8062 56.426 53.8062 55.172C53.8062 53.918 53.9272 52.642 54.7192 51.883C55.1152 51.498 55.6762 51.212 56.5012 51.212C57.3262 51.212 57.8872 51.498 58.2832 51.883C59.0752 52.642 59.1962 53.918 59.1962 55.172ZM57.7992 55.172C57.7992 54.182 57.9202 52.477 56.5012 52.477C55.0822 52.477 55.2032 54.182 55.2032 55.172C55.2032 56.162 55.0822 57.867 56.5012 57.867C57.9202 57.867 57.7992 56.162 57.7992 55.172Z" fill="#EEEEFF"/>
<path d="M12.55 4.91L11.14 12H9.85L8.37 7.11L6.89 12H5.6L4.17 4.91H5.4L6.39 9.84L7.85 5.02H8.93L10.36 9.84L11.37 4.91H12.55ZM18.9642 12H17.6142L17.1542 10.64H14.3342L13.8742 12H12.5742L15.0642 4.91H16.4742L18.9642 12ZM16.7542 9.48L15.7442 6.49L14.7342 9.48H16.7542ZM24.9021 9.89C24.9021 10.55 24.6621 11.02 24.3121 11.37C23.7721 11.91 22.9421 12.13 22.0721 12.13C21.3221 12.13 20.5321 11.93 19.9521 11.4C19.5321 11.02 19.2121 10.42 19.2121 9.75H20.5321C20.5321 10.1 20.6921 10.41 20.9021 10.62C21.2021 10.92 21.6821 11 22.0921 11C22.5821 11 23.0521 10.9 23.3221 10.62C23.4821 10.45 23.6021 10.28 23.6021 9.94C23.6021 9.42 23.2021 9.18 22.7621 9.1C22.2821 9.01 21.6621 8.99 21.1921 8.91C20.2121 8.75 19.3921 8.11 19.3921 6.93C19.3921 6.37 19.6421 5.9 20.0121 5.53C20.4821 5.07 21.2621 4.78 22.0921 4.78C22.8521 4.78 23.5921 5.02 24.0721 5.47C24.4921 5.87 24.7821 6.39 24.7921 6.98H23.4721C23.4621 6.73 23.3321 6.46 23.1621 6.28C22.9321 6.04 22.4621 5.9 22.0821 5.9C21.6821 5.9 21.2221 5.99 20.9321 6.29C20.7821 6.45 20.6921 6.63 20.6921 6.89C20.6921 7.35 20.9921 7.59 21.4121 7.66C21.8621 7.73 22.4921 7.78 22.9521 7.84C24.0121 7.99 24.9021 8.68 24.9021 9.89ZM30.6405 12H26.0605V4.91H27.3505V10.78H30.6405V12Z" fill="#EEEEFF"/>
<rect x="58.5007" y="3" width="2.1215" height="10.6075" transform="rotate(45 58.5007 3)" fill="#EEEEFF"/>
<rect x="60.0007" y="10.501" width="2.1215" height="10.6075" transform="rotate(135 60.0007 10.501)" fill="#EEEEFF"/>
</g>
<defs>
<clipPath id="clip0_156_993">
<rect width="64" height="64" fill="white"/>
</clipPath>
</defs>
</svg>
