<svg width="64" height="64" viewBox="0 0 64 64" fill="none" xmlns="http://www.w3.org/2000/svg">
<g clip-path="url(#clip0_177_1635)">
<rect width="64" height="64" fill="#0000FF"/>
<rect width="64" height="64" rx="6" fill="#0000FF"/>
<path d="M27.4419 21.984L24.0579 39H20.9619L17.4099 27.264L13.8579 39H10.7619L7.32988 21.984H10.2819L12.6579 33.816L16.1619 22.248H18.7539L22.1859 33.816L24.6099 21.984H27.4419ZM40.052 39H37.46L37.268 37.632C36.524 38.784 35.132 39.288 33.764 39.288C32.516 39.288 31.484 38.856 30.716 38.232C29.228 37.008 28.508 35.136 28.508 32.784C28.508 30.336 29.252 28.44 30.74 27.216C31.508 26.592 32.516 26.208 33.788 26.208C35.372 26.208 36.524 26.736 37.052 27.384V21.672H40.052V39ZM37.196 32.736C37.196 30.936 36.716 28.728 34.364 28.728C33.428 28.728 32.78 29.16 32.348 29.712C31.724 30.528 31.556 31.656 31.556 32.736C31.556 33.816 31.724 34.968 32.348 35.784C32.78 36.336 33.428 36.768 34.364 36.768C36.716 36.768 37.196 34.536 37.196 32.736ZM56.2901 33.936C56.2901 35.52 55.7141 36.648 54.8741 37.488C53.5781 38.784 51.5861 39.312 49.4981 39.312C47.6981 39.312 45.8021 38.832 44.4101 37.56C43.4021 36.648 42.6341 35.208 42.6341 33.6H45.8021C45.8021 34.44 46.1861 35.184 46.6901 35.688C47.4101 36.408 48.5621 36.6 49.5461 36.6C50.7221 36.6 51.8501 36.36 52.4981 35.688C52.8821 35.28 53.1701 34.872 53.1701 34.056C53.1701 32.808 52.2101 32.232 51.1541 32.04C50.0021 31.824 48.5141 31.776 47.3861 31.584C45.0341 31.2 43.0661 29.664 43.0661 26.832C43.0661 25.488 43.6661 24.36 44.5541 23.472C45.6821 22.368 47.5541 21.672 49.5461 21.672C51.3701 21.672 53.1461 22.248 54.2981 23.328C55.3061 24.288 56.0021 25.536 56.0261 26.952H52.8581C52.8341 26.352 52.5221 25.704 52.1141 25.272C51.5621 24.696 50.4341 24.36 49.5221 24.36C48.5621 24.36 47.4581 24.576 46.7621 25.296C46.4021 25.68 46.1861 26.112 46.1861 26.736C46.1861 27.84 46.9061 28.416 47.9141 28.584C48.9941 28.752 50.5061 28.872 51.6101 29.016C54.1541 29.376 56.2901 31.032 56.2901 33.936Z" fill="#EEEEFF"/>
<path d="M9.92635 59H5.04235V57.9L8.02335 54.347C8.28735 54.039 8.41935 53.676 8.41935 53.368C8.41935 52.829 8.07835 52.411 7.45135 52.411C6.80235 52.411 6.42835 52.906 6.42835 53.511H5.02035C5.03135 52.169 5.88935 51.212 7.46235 51.212C8.77135 51.212 9.81635 52.015 9.81635 53.357C9.81635 54.039 9.40935 54.71 8.98035 55.227L6.86835 57.757H9.92635V59ZM14.9678 59H13.5928V52.983L11.9098 54.204V52.708L13.7908 51.355H14.9678V59ZM22.7372 55.172C22.7372 56.426 22.6162 57.702 21.8242 58.461C21.4282 58.846 20.8672 59.143 20.0422 59.143C19.2172 59.143 18.6562 58.846 18.2602 58.461C17.4682 57.702 17.3472 56.426 17.3472 55.172C17.3472 53.918 17.4682 52.642 18.2602 51.883C18.6562 51.498 19.2172 51.212 20.0422 51.212C20.8672 51.212 21.4282 51.498 21.8242 51.883C22.6162 52.642 22.7372 53.918 22.7372 55.172ZM21.3402 55.172C21.3402 54.182 21.4612 52.477 20.0422 52.477C18.6232 52.477 18.7442 54.182 18.7442 55.172C18.7442 56.162 18.6232 57.867 20.0422 57.867C21.4612 57.867 21.3402 56.162 21.3402 55.172ZM29.0107 55.172C29.0107 56.426 28.8897 57.702 28.0977 58.461C27.7017 58.846 27.1407 59.143 26.3157 59.143C25.4907 59.143 24.9297 58.846 24.5337 58.461C23.7417 57.702 23.6207 56.426 23.6207 55.172C23.6207 53.918 23.7417 52.642 24.5337 51.883C24.9297 51.498 25.4907 51.212 26.3157 51.212C27.1407 51.212 27.7017 51.498 28.0977 51.883C28.8897 52.642 29.0107 53.918 29.0107 55.172ZM27.6137 55.172C27.6137 54.182 27.7347 52.477 26.3157 52.477C24.8967 52.477 25.0177 54.182 25.0177 55.172C25.0177 56.162 24.8967 57.867 26.3157 57.867C27.7347 57.867 27.6137 56.162 27.6137 55.172ZM35.3391 56.481C35.3391 57.977 34.4481 59.143 32.7101 59.143C31.2581 59.143 30.3561 58.109 30.1251 56.734C30.0371 56.239 30.0041 55.788 30.0041 55.304C30.0041 54.182 30.0701 52.807 30.8511 51.971C31.2691 51.531 31.8081 51.212 32.7211 51.212C33.5021 51.212 34.0741 51.454 34.4701 51.828C34.8991 52.235 35.1191 52.785 35.1191 53.236H33.7331C33.7111 53.005 33.6121 52.796 33.4691 52.653C33.2931 52.466 33.0291 52.378 32.6551 52.378C32.2921 52.378 32.0831 52.51 31.8961 52.686C31.4781 53.071 31.3681 53.764 31.3681 54.435C31.7091 54.028 32.3581 53.874 32.8201 53.874C34.4701 53.874 35.3391 54.93 35.3391 56.481ZM33.9421 56.426C33.9421 55.634 33.5351 54.996 32.6881 54.996C31.9511 54.996 31.5001 55.623 31.5001 56.426C31.5001 57.262 31.8961 57.911 32.7101 57.911C33.5351 57.911 33.9421 57.317 33.9421 56.426ZM41.4695 55.04C41.4695 56.162 41.4035 57.537 40.6225 58.373C40.2045 58.813 39.6655 59.143 38.7525 59.143C37.9715 59.143 37.3995 58.89 37.0035 58.516C36.5745 58.109 36.3545 57.559 36.3545 57.108H37.7405C37.7625 57.339 37.8615 57.548 38.0045 57.691C38.1805 57.878 38.4445 57.966 38.8185 57.966C39.1815 57.966 39.3905 57.834 39.5775 57.658C39.9955 57.273 40.1055 56.58 40.1055 55.909C39.7645 56.316 39.1155 56.47 38.6535 56.47C37.0035 56.47 36.1345 55.414 36.1345 53.863C36.1345 52.367 37.0255 51.212 38.7635 51.212C40.2155 51.212 41.1175 52.235 41.3485 53.61C41.4365 54.105 41.4695 54.556 41.4695 55.04ZM39.9735 53.918C39.9735 53.082 39.5775 52.433 38.7635 52.433C37.9385 52.433 37.5315 53.027 37.5315 53.918C37.5315 54.71 37.9385 55.348 38.7855 55.348C39.5225 55.348 39.9735 54.721 39.9735 53.918ZM46.434 56.228H42.661V54.996H46.434V56.228ZM52.9228 55.172C52.9228 56.426 52.8018 57.702 52.0098 58.461C51.6138 58.846 51.0528 59.143 50.2278 59.143C49.4028 59.143 48.8418 58.846 48.4458 58.461C47.6538 57.702 47.5328 56.426 47.5328 55.172C47.5328 53.918 47.6538 52.642 48.4458 51.883C48.8418 51.498 49.4028 51.212 50.2278 51.212C51.0528 51.212 51.6138 51.498 52.0098 51.883C52.8018 52.642 52.9228 53.918 52.9228 55.172ZM51.5258 55.172C51.5258 54.182 51.6468 52.477 50.2278 52.477C48.8088 52.477 48.9298 54.182 48.9298 55.172C48.9298 56.162 48.8088 57.867 50.2278 57.867C51.6468 57.867 51.5258 56.162 51.5258 55.172ZM59.1962 55.172C59.1962 56.426 59.0752 57.702 58.2832 58.461C57.8872 58.846 57.3262 59.143 56.5012 59.143C55.6762 59.143 55.1152 58.846 54.7192 58.461C53.9272 57.702 53.8062 56.426 53.8062 55.172C53.8062 53.918 53.9272 52.642 54.7192 51.883C55.1152 51.498 55.6762 51.212 56.5012 51.212C57.3262 51.212 57.8872 51.498 58.2832 51.883C59.0752 52.642 59.1962 53.918 59.1962 55.172ZM57.7992 55.172C57.7992 54.182 57.9202 52.477 56.5012 52.477C55.0822 52.477 55.2032 54.182 55.2032 55.172C55.2032 56.162 55.0822 57.867 56.5012 57.867C57.9202 57.867 57.7992 56.162 57.7992 55.172Z" fill="#EEEEFF"/>
<path d="M10.41 8.45C10.41 9.43 10.31 10.49 9.58 11.24C9.11 11.73 8.4 12 7.59 12H4.83V4.91H7.59C8.4 4.91 9.11 5.18 9.58 5.67C10.31 6.42 10.41 7.47 10.41 8.45ZM9.1 8.45C9.1 7.8 9.09 6.97 8.59 6.47C8.35 6.23 8 6.07 7.59 6.07H6.12V10.84H7.59C8 10.84 8.35 10.68 8.59 10.44C9.09 9.94 9.1 9.1 9.1 8.45ZM17.0459 12H16.2159L16.0659 11.22C15.8559 11.63 15.1759 12.12 14.2859 12.13C13.4659 12.14 12.7359 11.93 12.1759 11.34C11.4359 10.57 11.2559 9.62 11.2559 8.46C11.2559 7.3 11.4059 6.38 12.1759 5.61C12.7159 5.07 13.5259 4.78 14.2859 4.78C15.1559 4.78 15.9059 5.1 16.3859 5.59C16.7359 5.95 16.9959 6.4 17.0359 7.02H15.7159C15.6959 6.74 15.5559 6.55 15.4059 6.37C15.1559 6.08 14.7659 5.94 14.2759 5.94C13.8659 5.94 13.3959 6.12 13.1159 6.42C12.6259 6.93 12.5659 7.81 12.5659 8.46C12.5659 9.11 12.6359 10.02 13.1259 10.53C13.4059 10.83 13.8659 10.98 14.2759 10.98C14.7359 10.98 15.0959 10.82 15.3359 10.57C15.7159 10.17 15.7959 9.73 15.7959 9.19H14.1059V8.12H17.0459V12ZM23.6719 9.74C23.6119 10.3 23.4019 10.87 22.9919 11.29C22.4619 11.83 21.7219 12.13 20.9619 12.13C20.2019 12.13 19.4919 11.88 18.9519 11.34C18.1819 10.57 18.0719 9.62 18.0719 8.46C18.0719 7.3 18.1819 6.35 18.9519 5.58C19.4919 5.04 20.2019 4.78 20.9619 4.78C21.7219 4.78 22.4619 5.06 22.9919 5.6C23.4019 6.02 23.6119 6.58 23.6719 7.14H22.3519C22.3219 6.83 22.2119 6.61 22.0319 6.39C21.8019 6.1 21.4019 5.95 20.9619 5.95C20.5519 5.95 20.1519 6.12 19.8719 6.42C19.3819 6.93 19.3819 7.81 19.3819 8.46C19.3819 9.11 19.3819 9.99 19.8719 10.5C20.1519 10.8 20.5519 10.97 20.9619 10.97C21.4019 10.97 21.8019 10.81 22.0319 10.52C22.2119 10.3 22.3219 10.05 22.3519 9.74H23.6719ZM29.3612 12H24.7812V4.91H26.0712V10.78H29.3612V12Z" fill="#EEEEFF"/>
<rect x="58.5007" y="3" width="2.1215" height="10.6075" transform="rotate(45 58.5007 3)" fill="#EEEEFF"/>
<rect x="60.0007" y="10.501" width="2.1215" height="10.6075" transform="rotate(135 60.0007 10.501)" fill="#EEEEFF"/>
</g>
<defs>
<clipPath id="clip0_177_1635">
<rect width="64" height="64" fill="white"/>
</clipPath>
</defs>
</svg>
